<?xml version="1.0" encoding="UTF-8" standalone="no"?>
<!-- Created with Inkscape (http://www.inkscape.org/) -->

<svg
   xmlns:dc="http://purl.org/dc/elements/1.1/"
   xmlns:cc="http://creativecommons.org/ns#"
   xmlns:rdf="http://www.w3.org/1999/02/22-rdf-syntax-ns#"
   xmlns:svg="http://www.w3.org/2000/svg"
   xmlns="http://www.w3.org/2000/svg"
   xmlns:sodipodi="http://sodipodi.sourceforge.net/DTD/sodipodi-0.dtd"
   xmlns:inkscape="http://www.inkscape.org/namespaces/inkscape"
   width="28.355368mm"
   height="31.024807mm"
   viewBox="0 0 28.355368 31.024807"
   version="1.1"
   id="svg2666"
   inkscape:version="0.92.2 5c3e80d, 2017-08-06"
   sodipodi:docname="socket.svg">
  <defs
     id="defs2660" />
  <sodipodi:namedview
     id="base"
     pagecolor="#ffffff"
     bordercolor="#666666"
     borderopacity="1.0"
     inkscape:pageopacity="0.0"
     inkscape:pageshadow="2"
     inkscape:zoom="1.4"
     inkscape:cx="74.412823"
     inkscape:cy="72.330905"
     inkscape:document-units="mm"
     inkscape:current-layer="layer1"
     showgrid="false"
     inkscape:window-width="1440"
     inkscape:window-height="818"
     inkscape:window-x="0"
     inkscape:window-y="0"
     inkscape:window-maximized="1" />
  <metadata
     id="metadata2663">
    <rdf:RDF>
      <cc:Work
         rdf:about="">
        <dc:format>image/svg+xml</dc:format>
        <dc:type
           rdf:resource="http://purl.org/dc/dcmitype/StillImage" />
        <dc:title></dc:title>
      </cc:Work>
    </rdf:RDF>
  </metadata>
  <g
     inkscape:label="Layer 1"
     inkscape:groupmode="layer"
     id="layer1"
     transform="translate(-0.32300566,-0.21701015)">
    <path
       style="fill:#ffaaaa;stroke:#000000;stroke-width:0.26458332px;stroke-linecap:butt;stroke-linejoin:miter;stroke-opacity:1"
       d="M 17.302105,0.36785846 28.527425,1.9714755 25.587462,21.21488 23.449303,28.698427 19.172992,31.103852 10.887637,29.767505 2.869551,28.431158 0.4641253,25.491193 V 22.01669 l 3.2072341,-2.405425 5.3453904,0.267268 6.6817382,0.267269 z"
       id="path3213"
       inkscape:connector-curvature="0" />
    <path
       style="fill:#cccccc;stroke:#000000;stroke-width:0.16500001;stroke-linecap:butt;stroke-linejoin:miter;stroke-miterlimit:4;stroke-dasharray:none;stroke-opacity:1"
       d="m 17.812128,30.574031 v -2.22061 l 0.614211,-1.086681 1.559152,-0.850448 1.511905,-0.236233 1.275669,0.09449 1.039434,0.33073 0.04725,0.09449"
       id="path3215"
       inkscape:connector-curvature="0" />
    <path
       style="opacity:0.28173379;fill:#cccccc;fill-opacity:1;stroke:#000000;stroke-width:0.16500001;stroke-linejoin:round;stroke-miterlimit:4;stroke-dasharray:none;stroke-dashoffset:0;stroke-opacity:0;paint-order:normal"
       id="path3217"
       d="m 17.91632,30.454707 c -6.88e-4,0.06757 -4.5e-4,0.135149 1.52e-4,0.202719 2.22e-4,0.02355 3.97e-4,0.04707 5.03e-4,0.07061 0,0 -0.2097,0.106847 -0.2097,0.106847 v 0 c 9.7e-5,-0.02371 2.91e-4,-0.04742 5.03e-4,-0.07113 6.09e-4,-0.06762 8.47e-4,-0.135252 1.52e-4,-0.202872 0,0 0.208384,-0.106177 0.208384,-0.106177 z"
       inkscape:connector-curvature="0" />
    <path
       style="opacity:0.28173379;fill:#cccccc;fill-opacity:1;stroke:#000000;stroke-width:0.02946429;stroke-linejoin:round;stroke-miterlimit:4;stroke-dasharray:none;stroke-dashoffset:0;stroke-opacity:0;paint-order:normal"
       d="m 18.478337,30.841751 c -0.589542,-0.09989 -0.59269,-0.101103 -0.564987,-0.218562 0.02235,-0.09475 0.606936,-0.489241 2.955196,-1.994207 1.610035,-1.031851 2.932282,-1.850406 2.938323,-1.81901 0.006,0.03139 -0.101322,0.446111 -0.238583,0.921596 l -0.249568,0.864518 -2.096149,1.178915 c -1.152883,0.648404 -2.108579,1.176279 -2.123769,1.173057 -0.01519,-0.0032 -0.294398,-0.05106 -0.620463,-0.106307 z"
       id="path3219"
       inkscape:connector-curvature="0" />
    <path
       style="opacity:0.28173379;fill:#cccccc;fill-opacity:1;stroke:#000000;stroke-width:0.02946429;stroke-linejoin:round;stroke-miterlimit:4;stroke-dasharray:none;stroke-dashoffset:0;stroke-opacity:0;paint-order:normal"
       d="M 16.023749,30.714039 C 14.451605,30.457957 10.836109,29.862602 7.9893133,29.391027 L 2.8133223,28.533621 1.5755301,27.020535 0.3377378,25.507446 v -1.764897 -1.764898 l 1.6377073,-1.228757 1.6377076,-1.228757 h 0.2701417 c 0.1485781,0 1.3197985,0.05346 2.6027131,0.11879 2.3946053,0.121952 9.0794405,0.401643 9.1008605,0.380778 0.0066,-0.0064 0.176024,-2.034939 0.376543,-4.507844 l 0.364578,-4.496188 h 0.107739 c 0.0717,0 0.107224,0.02766 0.1062,0.08268 -0.0045,0.242312 -0.741546,9.132771 -0.758242,9.146248 -0.03185,0.02572 -6.4405966,-0.239373 -9.3747059,-0.387762 l -2.6930802,-0.1362 -1.5709635,1.175671 -1.57096352,1.175671 4.445e-5,1.688827 4.445e-5,1.688828 1.17837712,1.440651 1.1783775,1.44065 3.3218569,0.554805 c 1.8270217,0.305142 5.1184257,0.843405 7.3142307,1.196136 2.195806,0.352735 4.038184,0.663859 4.094175,0.691388 0.05599,0.02753 0.119773,0.03932 0.141741,0.02619 0.02196,-0.01312 0.336032,0.0236 0.697922,0.08159 l 0.657982,0.105447 2.101994,-1.185653 2.101992,-1.185654 0.249481,-0.874069 c 0.325189,-1.139315 0.311081,-1.076984 0.242316,-1.07056 -0.03224,0.003 -0.292494,-0.07179 -0.578339,-0.166227 -0.42014,-0.138803 -0.637397,-0.180663 -1.133928,-0.218477 -0.559591,-0.04262 -0.681438,-0.03634 -1.370165,0.07063 l -0.755952,0.117406 -0.779576,0.420949 -0.779576,0.420952 -0.295294,0.53738 -0.295294,0.537379 v 1.045448 c 0,0.665467 -0.01717,1.045448 -0.04725,1.045448 -0.03013,0 -0.04725,-0.395298 -0.04725,-1.091401 v -1.091401 l 0.266578,-0.470812 c 0.146617,-0.258948 0.30076,-0.510675 0.342541,-0.559396 0.04178,-0.04872 0.413415,-0.272589 0.825855,-0.49749 l 0.749892,-0.408906 0.738389,-0.119848 c 0.696515,-0.113054 0.77858,-0.11697 1.447096,-0.06906 0.590791,0.04234 0.787313,0.07698 1.181174,0.208217 0.259858,0.08659 0.500462,0.174953 0.534673,0.196371 0.03421,0.0214 0.06781,0.03149 0.07467,0.02238 0.0069,-0.0091 0.35642,-1.223418 0.776811,-2.698486 l 0.764345,-2.681941 0.754377,-4.948451 c 0.414909,-2.72165 0.766511,-5.017551 0.781338,-5.102005 0.02188,-0.124592 0.04901,-0.153553 0.143838,-0.153553 0.09702,0 0.112684,0.01806 0.09219,0.106305 -0.01357,0.05847 -0.365678,2.349358 -0.782444,5.090867 l -0.757756,4.984562 -1.068234,3.756136 c -0.587529,2.065877 -1.091594,3.780536 -1.120148,3.810349 -0.02855,0.02982 -1.001863,0.587923 -2.16291,1.240235 -1.789225,1.005244 -2.138505,1.185225 -2.29148,1.180772 -0.09927,-0.0029 -1.466787,-0.214776 -3.038932,-0.470861 z"
       id="path3221"
       inkscape:connector-curvature="0" />
    <path
       style="opacity:0.28173379;fill:#cccccc;fill-opacity:1;stroke:#000000;stroke-width:0.02946429;stroke-linejoin:round;stroke-miterlimit:4;stroke-dasharray:none;stroke-dashoffset:0;stroke-opacity:0;paint-order:normal"
       d="m 18.374289,30.823598 c -0.496,-0.08513 -0.696894,-0.138065 -0.696894,-0.183632 0,-0.03947 0.05372,-0.06403 0.140079,-0.06403 0.09364,0 0.157562,-0.03267 0.192816,-0.09854 0.029,-0.0542 0.06486,-0.08642 0.07967,-0.0716 0.01481,0.01482 0.0503,-0.0016 0.07886,-0.03672 0.02855,-0.03501 0.934256,-0.626969 2.01267,-1.315471 1.078413,-0.688501 2.328206,-1.488628 2.777317,-1.778058 0.520179,-0.335227 0.824122,-0.50487 0.83738,-0.467368 0.01146,0.03238 -0.09138,0.448175 -0.228502,0.923994 l -0.249314,0.865129 -2.097831,1.178306 c -1.153808,0.648068 -2.109425,1.175896 -2.123594,1.172948 -0.01417,-0.0029 -0.339364,-0.05918 -0.722655,-0.124962 z"
       id="path3223"
       inkscape:connector-curvature="0" />
    <path
       style="opacity:0.28173379;fill:#cccccc;fill-opacity:1;stroke:#000000;stroke-width:0.02946429;stroke-linejoin:round;stroke-miterlimit:4;stroke-dasharray:none;stroke-dashoffset:0;stroke-opacity:0;paint-order:normal"
       d="m 18.433348,30.830818 c -0.35081,-0.06272 -0.667967,-0.125158 -0.704795,-0.138758 -0.08961,-0.03309 -0.01191,-0.103584 0.13783,-0.125053 0.06497,-0.0093 0.112803,-0.04301 0.106306,-0.07487 -0.0065,-0.03187 0.0094,-0.06059 0.03543,-0.06384 0.02599,-0.0033 0.06928,-0.0086 0.09622,-0.0118 0.02693,-0.0033 0.06414,-0.02986 0.08268,-0.05914 0.05533,-0.08737 5.363495,-3.474291 5.47893,-3.495884 0.148318,-0.02774 0.141976,0.02183 -0.120525,0.942007 l -0.226698,0.794681 -0.399259,0.223711 c -0.219591,0.123039 -1.144169,0.641379 -2.054617,1.151866 -0.910449,0.510487 -1.686481,0.937824 -1.724517,0.94964 -0.03804,0.01183 -0.356181,-0.02983 -0.70699,-0.09255 z"
       id="path3225"
       inkscape:connector-curvature="0" />
    <path
       style="opacity:0.28173379;fill:#cccccc;fill-opacity:1;stroke:#000000;stroke-width:0.02946429;stroke-linejoin:round;stroke-miterlimit:4;stroke-dasharray:none;stroke-dashoffset:0;stroke-opacity:0;paint-order:normal"
       d="m 18.433348,30.830882 c -0.35081,-0.06275 -0.667967,-0.125222 -0.704795,-0.138822 -0.08961,-0.03309 -0.01191,-0.103584 0.13783,-0.125053 0.06497,-0.0093 0.112803,-0.04301 0.106306,-0.07487 -0.0065,-0.03187 0.0094,-0.06059 0.03543,-0.06384 0.02599,-0.0033 0.06759,-0.0086 0.09246,-0.0118 0.02487,-0.0033 0.0727,-0.04029 0.106306,-0.08232 0.0336,-0.04203 1.134781,-0.762883 2.447067,-1.601901 1.312286,-0.839015 2.495035,-1.595623 2.628332,-1.681348 0.1333,-0.08573 0.255551,-0.142676 0.271672,-0.126553 0.01611,0.01611 0.02931,0.009 0.02931,-0.01577 0,-0.02479 0.04252,-0.04827 0.0945,-0.05219 0.05197,-0.0039 0.09449,0.01773 0.09449,0.0481 0,0.03037 -0.100578,0.423306 -0.223506,0.873196 l -0.22351,0.817983 -0.402516,0.225422 c -1.887524,1.057082 -3.825519,2.131994 -3.837241,2.128333 -0.0079,-0.0024 -0.301331,-0.05581 -0.65214,-0.118568 z"
       id="path3227"
       inkscape:connector-curvature="0" />
    <path
       style="opacity:0.28173379;fill:#cccccc;fill-opacity:1;stroke:#000000;stroke-width:0.02946429;stroke-linejoin:round;stroke-miterlimit:4;stroke-dasharray:none;stroke-dashoffset:0;stroke-opacity:0;paint-order:normal"
       d="m 18.433348,30.827987 c -0.35081,-0.06116 -0.667967,-0.122327 -0.704795,-0.135927 -0.09002,-0.03324 -0.01137,-0.103958 0.13783,-0.123931 0.06639,-0.0089 0.118172,-0.04685 0.11824,-0.08668 6.7e-5,-0.03898 0.04259,-0.07186 0.09449,-0.07308 0.05191,-0.0013 0.09126,-0.02246 0.08745,-0.04725 -0.0038,-0.02477 0.347004,-0.270881 0.779575,-0.54691 0.432572,-0.276026 1.509373,-0.964824 2.392893,-1.530659 0.88352,-0.565833 1.744596,-1.116854 1.913503,-1.224489 0.306753,-0.195475 0.519718,-0.258805 0.519718,-0.154549 0,0.03037 -0.100533,0.423146 -0.223411,0.872842 l -0.223409,0.817626 -0.473482,0.264708 c -2.468702,1.380164 -3.298777,1.839973 -3.520918,1.950365 l -0.259859,0.129135 z"
       id="path3229"
       inkscape:connector-curvature="0" />
    <path
       style="opacity:0.28173379;fill:#cccccc;fill-opacity:1;stroke:#000000;stroke-width:0.02946429;stroke-linejoin:round;stroke-miterlimit:4;stroke-dasharray:none;stroke-dashoffset:0;stroke-opacity:0;paint-order:normal"
       d="m 18.433348,30.828027 c -0.35081,-0.06118 -0.667967,-0.122367 -0.704795,-0.135967 -0.07951,-0.02936 -0.01924,-0.09954 0.105929,-0.123344 0.08062,-0.01534 0.08595,-0.08687 0.08215,-1.103079 l -0.0041,-1.086684 0.295825,-0.516024 0.295824,-0.516025 0.75773,-0.414563 0.757729,-0.414565 0.751383,-0.119337 c 0.693412,-0.110128 0.798984,-0.11556 1.368385,-0.0704 0.490556,0.03891 0.722903,0.08362 1.133745,0.218141 l 0.516745,0.169201 -0.138766,0.115464 c -0.108662,0.09042 -0.114827,0.103473 -0.02841,0.06019 0.06069,-0.0304 0.12297,-0.04265 0.138393,-0.02723 0.01543,0.01543 -0.07585,0.410239 -0.202824,0.877371 l -0.23086,0.849334 -0.687107,0.385336 c -1.752667,0.982917 -3.117315,1.738726 -3.33294,1.845948 l -0.236235,0.11747 z"
       id="path3231"
       inkscape:connector-curvature="0" />
    <path
       style="opacity:0.28173379;fill:#cccccc;fill-opacity:1;stroke:#000000;stroke-width:0.02946429;stroke-linejoin:round;stroke-miterlimit:4;stroke-dasharray:none;stroke-dashoffset:0;stroke-opacity:0;paint-order:normal"
       d="m 18.433348,30.828027 c -0.35081,-0.06118 -0.667967,-0.122367 -0.704795,-0.135967 -0.07951,-0.02936 -0.01924,-0.09954 0.105929,-0.123344 0.08062,-0.01534 0.08595,-0.08687 0.08215,-1.103079 l -0.0041,-1.086684 0.296541,-0.518342 0.296541,-0.518345 0.755409,-0.411991 0.755409,-0.411991 0.752987,-0.119589 c 0.695152,-0.110405 0.800375,-0.115832 1.369989,-0.07065 0.49048,0.0389 0.722921,0.08362 1.133512,0.218064 l 0.516509,0.169122 -0.114908,0.09401 c -0.11257,0.0921 -0.112745,0.09334 -0.0086,0.06091 0.07265,-0.02262 0.106307,-0.01368 0.106307,0.02824 0,0.03373 -0.100547,0.429313 -0.223438,0.879059 l -0.223436,0.817727 -0.686069,0.382905 c -2.469985,1.378535 -3.122238,1.739461 -3.331901,1.843717 l -0.236235,0.11747 z"
       id="path3233"
       inkscape:connector-curvature="0" />
    <path
       style="opacity:0.28173379;fill:#cccccc;fill-opacity:1;stroke:#000000;stroke-width:0.02946429;stroke-linejoin:round;stroke-miterlimit:4;stroke-dasharray:none;stroke-dashoffset:0;stroke-opacity:0;paint-order:normal"
       d="m 18.433348,30.829381 c -0.35081,-0.06193 -0.667967,-0.123721 -0.704795,-0.137321 -0.07951,-0.02936 -0.01924,-0.09954 0.105929,-0.123344 0.08062,-0.01534 0.08595,-0.08687 0.08215,-1.103079 l -0.0041,-1.086684 0.297246,-0.519715 0.297246,-0.519719 0.754531,-0.410699 0.754531,-0.410697 0.753159,-0.11951 c 0.695176,-0.110307 0.800661,-0.115742 1.370163,-0.07057 0.488577,0.03875 0.723329,0.08375 1.127818,0.216167 0.499015,0.163362 0.5089,0.169344 0.427874,0.258876 -0.07575,0.0837 -0.076,0.08899 -0.0029,0.06094 0.113662,-0.04362 0.107674,-0.0055 -0.143307,0.913071 l -0.22334,0.81737 -1.678352,0.938305 c -0.923094,0.516067 -1.880333,1.044257 -2.127199,1.173755 l -0.448847,0.235447 z"
       id="path3235"
       inkscape:connector-curvature="0" />
    <path
       style="fill:#999999;stroke:#cccccc;stroke-width:0.26458332px;stroke-linecap:butt;stroke-linejoin:miter;stroke-opacity:1"
       d="M 17.101653,5.1787095 27.6588,6.6486915 v 0.06682"
       id="path3237"
       inkscape:connector-curvature="0" />
    <path
       style="fill:none;stroke:#cccccc;stroke-width:0.26458332px;stroke-linecap:butt;stroke-linejoin:miter;stroke-opacity:1"
       d="M 16.633932,8.6532135 27.057442,10.25683"
       id="path3239"
       inkscape:connector-curvature="0" />
  </g>
</svg>
