<?xml version="1.0" encoding="UTF-8" standalone="no"?>
<!-- Created with Inkscape (http://www.inkscape.org/) -->

<svg
   xmlns:dc="http://purl.org/dc/elements/1.1/"
   xmlns:cc="http://creativecommons.org/ns#"
   xmlns:rdf="http://www.w3.org/1999/02/22-rdf-syntax-ns#"
   xmlns:svg="http://www.w3.org/2000/svg"
   xmlns="http://www.w3.org/2000/svg"
   xmlns:sodipodi="http://sodipodi.sourceforge.net/DTD/sodipodi-0.dtd"
   xmlns:inkscape="http://www.inkscape.org/namespaces/inkscape"
   width="210mm"
   height="297mm"
   viewBox="0 0 210 297"
   version="1.1"
   id="svg46497"
   inkscape:version="0.92.2 5c3e80d, 2017-08-06"
   sodipodi:docname="string.svg">
  <defs
     id="defs46491" />
  <sodipodi:namedview
     id="base"
     pagecolor="#ffffff"
     bordercolor="#666666"
     borderopacity="1.0"
     inkscape:pageopacity="0.0"
     inkscape:pageshadow="2"
     inkscape:zoom="1.4"
     inkscape:cx="2.8571429"
     inkscape:cy="45.714285"
     inkscape:document-units="mm"
     inkscape:current-layer="layer1"
     showgrid="false"
     inkscape:window-width="1440"
     inkscape:window-height="818"
     inkscape:window-x="0"
     inkscape:window-y="0"
     inkscape:window-maximized="1" />
  <metadata
     id="metadata46494">
    <rdf:RDF>
      <cc:Work
         rdf:about="">
        <dc:format>image/svg+xml</dc:format>
        <dc:type
           rdf:resource="http://purl.org/dc/dcmitype/StillImage" />
        <dc:title></dc:title>
      </cc:Work>
    </rdf:RDF>
  </metadata>
  <g
     inkscape:label="Layer 1"
     inkscape:groupmode="layer"
     id="layer1">
    <path
       style="opacity:0.97000002;fill:#ffd5d5;fill-opacity:1;stroke:#000000;stroke-width:0;stroke-linejoin:round;stroke-miterlimit:4;stroke-dasharray:none;stroke-dashoffset:0;stroke-opacity:1;paint-order:normal"
       id="path47056"
       d="m 8.1006021,0.10664481 c 0.056436,3.04105999 0.060056,6.08265999 0.068981,9.12403999 0.020679,4.8398202 0.021353,9.6796502 0.018256,14.5195002 -0.014266,3.65199 -0.032372,7.30398 -0.042962,10.95599 0.051259,2.20731 -0.058205,4.40613 -0.1625688,6.60867 -0.1323033,2.40844 -0.6285276,4.78026 -0.988517,7.16672 -0.6766734,3.2643 -1.2232376,6.5361 -1.4287787,9.84767 -0.3916224,3.7599 -0.8935622,7.51214 -1.2990145,11.272615 -0.33733,3.145072 -0.464545,6.304514 -0.5046825,9.461736 -0.046464,2.377958 -0.031827,4.756253 -0.041728,7.134401 0.0043,2.297215 0.015527,4.594433 0.017491,6.891661 0.00641,2.501555 6.771e-4,5.00311 -0.00478,7.504682 -0.00453,1.93412 -0.010131,3.8682 -0.010234,5.80232 0.018318,1.9732 0.4391325,3.92507 0.638513,5.89046 0.1830698,2.08482 0.2271707,4.1762 0.242319,6.26614 0.011061,1.53974 -0.00488,3.07944 -0.00895,4.61916 -0.0042,1.49478 0.00513,2.98955 0.00581,4.48434 0.012612,2.01137 0.00779,4.02283 0.00337,6.03423 -0.005,1.46021 -0.00639,2.92045 -0.016209,4.38064 0.037096,1.03605 0.03199,2.03959 -0.2281472,3.05124 -0.4001558,1.21585 -0.516521,2.47312 -0.5810054,3.72928 -0.0603,1.75585 -0.453225,3.48939 -0.6916702,5.23256 -0.019496,0.89556 -0.3255785,1.76106 -0.4158211,2.64597 0.02781,0.61034 0.088669,1.21982 0.1164872,1.83096 0.1394525,1.34645 -0.178201,2.66569 -0.5581614,3.96397 -0.2973277,1.10286 -0.3376596,2.23226 -0.3364366,3.35844 0.1204525,0.70114 -0.1186291,1.20158 -0.5348266,1.77399 -0.3168408,0.38661 -0.355406,0.80061 -0.35795887,1.25768 0.018479,0.37616 0.0122187,0.19791 0.0202715,0.53471 0,0 3.9047575,1.69608 3.9047575,1.69608 v 0 c -0.017305,-0.33472 -0.011702,-0.15804 -0.014369,-0.5301 -0.028115,-0.38724 -0.046173,-0.7292 0.2143508,-1.06765 0.4738273,-0.61011 0.7876324,-1.2112 0.6525639,-1.9678 -0.02397,-1.09913 -0.00988,-2.20378 0.2498729,-3.28544 0.4177322,-1.31875 0.7439539,-2.67066 0.6483781,-4.04433 -0.01625,-0.6008 -0.032687,-1.20296 -0.1156891,-1.79959 -0.0085,-0.88317 0.4109121,-1.74811 0.3512846,-2.64564 0.2179864,-1.75316 0.6259062,-3.49051 0.7095312,-5.25182 0.07062,-1.23199 0.1701172,-2.46799 0.5635639,-3.66113 0.2919363,-1.03877 0.3340799,-2.0562 0.2727771,-3.12693 -0.00988,-1.46493 -0.011164,-2.92991 -0.016271,-4.39486 -0.00442,-2.01028 -0.0093,-4.02062 0.00407,-6.03087 0.00151,-1.49194 0.01166,-2.98383 0.012653,-4.47577 9.855e-4,-1.54528 -0.00767,-3.09057 -0.019455,-4.63581 -0.02751,-2.09954 -0.051434,-4.20059 -0.2389151,-6.2953 -0.1796854,-1.95585 -0.5788657,-3.89669 -0.6363916,-5.85525 -1.454e-4,-1.9371 -0.00571,-3.87415 -0.010131,-5.81124 -0.00546,-2.50321 -0.011164,-5.006416 -0.00616,-7.509611 2.851e-4,-2.294118 0.00885,-4.588206 0.00488,-6.882311 -0.017346,-2.382638 -0.014121,-4.765443 -0.00337,-7.148091 0.057775,-3.152902 0.1273083,-6.308024 0.4585161,-9.450516 0.3915184,-3.766219 0.9059794,-7.521306 1.3050021,-11.285156 0.2060083,-3.29882 0.7616517,-6.55527 1.4547607,-9.80431 0.370976,-2.39304 0.886988,-4.7672 1.042298,-7.18257 0.07276,-2.21182 0.242368,-4.42094 0.127927,-6.63817 -0.01059,-3.66454 -0.02871,-7.32907 -0.04296,-10.99361 -0.0031,-4.83452 -0.0024,-9.66902 0.01824,-14.50351 0.0088,-3.0212402 0.01224,-6.0427202 0.06898,-9.0636302 0,0 -3.8797552,-1.69883999 -3.8797552,-1.69883999 z"
       inkscape:connector-curvature="0" />
    <path
       style="opacity:0.97000002;fill:#ffd5d5;fill-opacity:1;stroke:#000000;stroke-width:0.06392154;stroke-linejoin:round;stroke-miterlimit:4;stroke-dasharray:none;stroke-dashoffset:0;stroke-opacity:1;paint-order:normal"
       id="path47056-3"
       d="m 4.189452,163.58095 c 0.046917,3.04106 0.049839,6.08266 0.0574,9.12404 0.017186,4.83982 0.017701,9.67965 0.015467,14.5195 -0.01203,3.65199 -0.026982,7.30398 -0.035746,10.95599 0.04262,2.20731 -0.048464,4.40613 -0.1350797,6.60867 -0.1099886,2.40844 -0.5223599,4.78026 -0.8215458,7.16672 -0.5623682,3.2643 -1.016621,6.5361 -1.187447,9.84767 -0.3254631,3.7599 -0.7426291,7.51214 -1.0795895,11.27262 -0.28035047,3.14507 -0.38607707,6.30451 -0.41943447,9.46173 -0.038668,2.37796 -0.026466,4.75626 -0.034715,7.13441 0.00344,2.29721 0.013749,4.59443 0.013749,6.89166 0.00516,2.50155 5.671e-4,5.00311 -0.00344,7.50467 -0.00344,1.93412 -0.00859,3.8682 -0.00859,5.80232 0.015467,1.9732 0.3649558,3.92507 0.53066047,5.89047 0.1520936,2.08481 0.1888023,4.1762 0.2013822,6.26613 0.00859,1.53974 -0.00344,3.07944 -0.00687,4.61917 -0.00344,1.49478 0.00344,2.98954 0.00516,4.48433 0.010311,2.01137 0.00687,4.02283 0.00344,6.03423 -0.00344,1.46022 -0.00516,2.92045 -0.013749,4.38064 0.030762,1.03605 0.026638,2.0396 -0.18961,3.05125 -0.33256067,1.21585 -0.42926477,2.47311 -0.48286697,3.72928 -0.050182,1.75585 -0.37667647,3.48938 -0.57484507,5.23256 -0.015467,0.89555 -0.27057187,1.76106 -0.34558757,2.64597 0.023201,0.61033 0.073727,1.21982 0.096756,1.83096 0.1158317,1.34645 -0.1481409,2.66569 -0.46389401,3.96396 -0.24709621,1.10286 -0.28062554,2.23226 -0.2795944,3.35845 0.10019272,0.70114 -0.098646,1.20158 -0.44449138,1.77399 -0.2633367,0.38661 -0.2953881,0.8006 -0.2975019,1.25767 0.015467,0.37617 0.010311,0.19792 0.017186,0.53471 0,0 3.2452131,1.69608 3.2452131,1.69608 v 0 c -0.013749,-0.33471 -0.010311,-0.15803 -0.01203,-0.53009 -0.023373,-0.38725 -0.038324,-0.7292 0.1781471,-1.06766 0.3937935,-0.6101 0.6545867,-1.21119 0.5423468,-1.96779 -0.019935,-1.09913 -0.00859,-2.20379 0.207655,-3.28544 0.3471858,-1.31875 0.6182905,-2.67066 0.5388581,-4.04434 -0.013749,-0.6008 -0.027153,-1.20295 -0.096068,-1.79959 -0.00687,-0.88316 0.3414974,-1.74811 0.291951,-2.64564 0.1811546,-1.75315 0.520177,-3.49051 0.5896761,-5.25182 0.058603,-1.23199 0.1414384,-2.46798 0.4683794,-3.66113 0.242628,-1.03877 0.2776525,-2.05619 0.2266968,-3.12693 -0.00859,-1.46492 -0.00859,-2.9299 -0.013749,-4.39485 -0.00344,-2.01028 -0.00859,-4.02063 0.00344,-6.03087 0.00127,-1.49195 0.010311,-2.98384 0.010311,-4.47578 8.249e-4,-1.54528 -0.00687,-3.09056 -0.015467,-4.63581 -0.022857,-2.09954 -0.042793,-4.20058 -0.1985638,-6.2953 -0.1493438,-1.95585 -0.4810797,-3.89669 -0.5288904,-5.85525 -1.203e-4,-1.93709 -0.00516,-3.87415 -0.00859,-5.81124 -0.00516,-2.5032 -0.00859,-5.00641 -0.00516,-7.5096 2.406e-4,-2.29412 0.00687,-4.58821 0.00344,-6.88232 -0.013749,-2.38263 -0.01203,-4.76544 -0.00344,-7.14809 0.047948,-3.1529 0.105864,-6.30802 0.3810588,-9.45051 0.3253944,-3.76622 0.7529578,-7.52131 1.0845905,-11.28516 0.1711697,-3.29882 0.6330015,-6.55527 1.2090323,-9.80431 0.3083117,-2.39304 0.737164,-4.7672 0.866246,-7.18257 0.060494,-2.21182 0.2014337,-4.42094 0.1063795,-6.63817 -0.00859,-3.66454 -0.023888,-7.32907 -0.035746,-10.99361 -0.00344,-4.83452 -0.00172,-9.66902 0.015467,-14.50351 0.00687,-3.02124 0.010311,-6.04272 0.0574,-9.06363 0,0 -3.2244355,-1.69884 -3.2244355,-1.69884 z"
       inkscape:connector-curvature="0" />
  </g>
</svg>
