<?xml version="1.0" encoding="UTF-8" standalone="no"?>
<!-- Created with Inkscape (http://www.inkscape.org/) -->

<svg
   xmlns:dc="http://purl.org/dc/elements/1.1/"
   xmlns:cc="http://creativecommons.org/ns#"
   xmlns:rdf="http://www.w3.org/1999/02/22-rdf-syntax-ns#"
   xmlns:svg="http://www.w3.org/2000/svg"
   xmlns="http://www.w3.org/2000/svg"
   xmlns:sodipodi="http://sodipodi.sourceforge.net/DTD/sodipodi-0.dtd"
   xmlns:inkscape="http://www.inkscape.org/namespaces/inkscape"
   width="54.663605mm"
   height="53.277599mm"
   viewBox="0 0 54.663605 53.277599"
   version="1.1"
   id="svg45860"
   inkscape:version="0.92.2 5c3e80d, 2017-08-06"
   sodipodi:docname="circle.svg">
  <defs
     id="defs45854" />
  <sodipodi:namedview
     id="base"
     pagecolor="#ffffff"
     bordercolor="#666666"
     borderopacity="1.0"
     inkscape:pageopacity="0.0"
     inkscape:pageshadow="2"
     inkscape:zoom="1.4"
     inkscape:cx="116.56391"
     inkscape:cy="39.556381"
     inkscape:document-units="mm"
     inkscape:current-layer="layer1"
     showgrid="false"
     inkscape:window-width="1440"
     inkscape:window-height="818"
     inkscape:window-x="0"
     inkscape:window-y="0"
     inkscape:window-maximized="1" />
  <metadata
     id="metadata45857">
    <rdf:RDF>
      <cc:Work
         rdf:about="">
        <dc:format>image/svg+xml</dc:format>
        <dc:type
           rdf:resource="http://purl.org/dc/dcmitype/StillImage" />
        <dc:title></dc:title>
      </cc:Work>
    </rdf:RDF>
  </metadata>
  <g
     inkscape:label="Layer 1"
     inkscape:groupmode="layer"
     id="layer1"
     transform="translate(-0.1531805,-0.18835912)">
    <ellipse
       style="opacity:0.97000002;fill:#e9afdd;fill-opacity:1;stroke:#000000;stroke-width:0.065;stroke-linejoin:round;stroke-miterlimit:4;stroke-dasharray:none;stroke-dashoffset:0;stroke-opacity:1;paint-order:normal"
       id="path46409"
       cx="92.793152"
       cy="21.077377"
       rx="26.080357"
       ry="25.702381" />
    <path
       style="opacity:0.97000002;fill:#000000;fill-opacity:1;stroke:#000000;stroke-width:0.065;stroke-linejoin:round;stroke-miterlimit:4;stroke-dasharray:none;stroke-dashoffset:0;stroke-opacity:1;paint-order:normal"
       id="path46417"
       d="M 9.930464,7.545358 C 9.571607,7.948996 9.230509,8.365394 8.906921,8.79793 8.59477,9.170664 8.294534,9.549341 7.973822,9.914331 7.704307,10.265116 7.43684,10.61802 7.223477,11.006658 6.974235,11.376768 6.74038,11.751304 6.516058,12.13653 6.308966,12.505877 6.107049,12.878006 5.903783,13.249531 5.726063,13.628584 5.534023,14.000257 5.309251,14.353738 5.069179,14.677554 4.84522,15.014262 4.630492,15.355464 4.38466,15.75295 4.148966,16.155058 3.914654,16.559252 3.694409,17.053303 3.51449,17.567158 3.344318,18.081125 c -0.186854,0.481226 -0.371629,0.956926 -0.499356,1.457359 -0.140332,0.472048 -0.258604,0.95395 -0.34785,1.438711 -0.122682,0.425064 -0.193451,0.856967 -0.270103,1.291551 -0.06716,0.293637 -0.128236,0.587285 -0.155601,0.88747 -0.03195,0.220107 -0.05475,0.433531 -0.04747,0.656164 0.01185,0.255987 0.02082,0.512369 0.02109,0.768668 0.0038,0.313232 -5.29e-4,0.626441 0.0033,0.939686 -0.0036,0.326366 -0.0033,0.652886 7.94e-4,0.979287 -0.0013,0.318939 -0.0026,0.637862 -0.0026,0.956812 0.0052,0.390263 -0.02005,0.780897 0.01376,1.170062 0.08225,0.450945 0.223099,0.887415 0.305117,1.337884 0.133411,0.490246 0.250616,0.98548 0.404159,1.469901 0.136239,0.458893 0.266719,0.91545 0.421899,1.367565 0.178404,0.347392 0.280752,0.721831 0.41778,1.085048 0.139623,0.305906 0.307769,0.601922 0.414758,0.921327 0.139121,0.272163 0.276022,0.551338 0.380677,0.839501 0.074,0.301491 0.211522,0.568318 0.261454,0.87689 0.06298,0.259451 0.113879,0.539266 0.217157,0.787501 0.12437,0.285308 0.280154,0.553781 0.406418,0.836708 0.08461,0.268692 0.252979,0.494607 0.387882,0.737605 0.09512,0.222994 0.157779,0.482719 0.310189,0.674574 0.112761,0.234685 0.224814,0.472038 0.316066,0.717055 0.135157,0.241792 0.25486,0.490821 0.398857,0.727832 0.147672,0.160835 0.192728,0.379928 0.292179,0.565211 0.04595,0.0856 0.112147,0.159191 0.158727,0.244453 0.185277,0.214728 0.329533,0.460436 0.511921,0.677313 0.145626,0.21287 0.26848,0.439491 0.446712,0.629002 0.162279,0.228393 0.33955,0.440922 0.506695,0.663389 0.22106,0.205246 0.448845,0.400619 0.683951,0.58982 0.216617,0.161827 0.4396,0.312838 0.675859,0.445741 0.263597,0.135914 0.526421,0.288914 0.799833,0.407228 0.290833,0.12641 0.575154,0.267819 0.859105,0.4094 0.189137,0.09028 0.295973,0.270688 0.509233,0.311563 0.154366,0.121719 0.311518,0.216683 0.473654,0.328853 0.194726,0.148202 0.416886,0.246825 0.609262,0.399659 0.288626,0.08914 0.523163,0.301929 0.783457,0.453236 0.315434,0.223901 0.676339,0.374923 1.016379,0.562243 0.472458,0.244668 0.952198,0.472299 1.425183,0.714314 0.423482,0.227872 0.861423,0.418999 1.303084,0.607719 0.285342,0.129558 0.595063,0.190743 0.869084,0.345024 0.264666,0.104484 0.523481,0.208243 0.774632,0.34421 0.239103,0.08088 0.48869,0.202673 0.680722,0.369483 0.187574,0.05836 0.33477,0.212645 0.510146,0.287165 0.14056,0.08248 0.279172,0.130397 0.439989,0.151633 0.180416,0.110675 0.378804,0.153905 0.586208,0.178594 0.211264,0.112963 0.43828,0.156122 0.672438,0.189089 0.25848,0.113668 0.527574,0.171543 0.793549,0.255016 0.23975,0.03073 0.445662,0.166558 0.666549,0.249748 0.109398,0.0412 0.225383,0.0626 0.336143,0.09998 0.326157,0.116025 0.635786,0.281299 0.977207,0.348871 0.331493,0.06011 0.65828,0.134694 0.994322,0.171707 0.454591,0.0093 0.898049,0.110762 1.349074,0.159805 0.524727,0.0494 1.051999,0.05818 1.578652,0.06332 0.420661,0.0013 0.841359,0.0019 1.262004,-0.0024 0.287655,-0.0024 0.575326,-0.0016 0.862981,-0.0035 0.216318,-0.0011 0.432644,-5.29e-4 0.64896,-0.0016 0.207446,2.51e-4 0.414887,2.64e-4 0.622334,0.0011 0.180872,-0.09086 0.377822,-0.132765 0.574037,-0.175083 0.177779,-0.01939 0.356667,-0.01738 0.535213,-0.01587 0.307864,0.01185 0.605951,-0.07899 0.910579,-0.120732 0.439637,-0.120994 0.897573,-0.143941 1.321499,-0.315748 0.362876,-0.109604 0.732932,-0.199004 1.095483,-0.309705 0.177046,-0.166685 0.42818,-0.123688 0.63962,-0.211956 0.368882,-0.153992 -0.07619,-0.02328 0.306472,-0.123576 0.190883,-0.110881 0.422674,-0.112284 0.624453,-0.180427 0.10658,-0.036 0.201137,-0.101039 0.304105,-0.146352 0.27614,-0.0801 0.491199,-0.233944 0.779613,-0.285329 0.02508,-0.01797 0.05015,-0.03595 0.07522,-0.05393 -0.559081,0.31849 -2.200024,1.330569 -1.677236,0.955469 0.57622,-0.413441 1.219848,-0.724032 1.83834,-1.071063 0.02911,-0.01632 0.127606,-0.03287 0.09887,-0.01587 -2.093654,1.237671 -2.230247,1.340086 -1.627852,0.9089 0.614013,-0.35927 1.228024,-0.71854 1.842037,-1.07781 0.0366,-0.0054 0.141653,-0.03499 0.109805,-0.01617 -0.552291,0.326509 -2.201392,1.314011 -1.677837,0.943169 0.10894,-0.07717 4.680381,-2.65271 0.272045,-0.146241 0.172243,-0.135742 0.354779,-0.267687 0.514106,-0.419367 0.155504,-0.144994 0.278604,-0.32158 0.437134,-0.464283 0.110313,-0.17036 0.218223,-0.341371 0.314653,-0.520047 0.0425,-0.150979 0.125624,-0.282662 0.203894,-0.417546 0.0159,-0.03253 0.03557,-0.05801 0.05853,-0.08607 0,0 1.913004,-0.79243 1.913004,-0.79243 v 0 c -0.02397,0.01876 -0.04921,0.03535 -0.07101,0.05662 -0.103439,0.113146 -0.16917,0.244877 -0.239117,0.369898 -0.05266,0.220903 -0.196202,0.371163 -0.291021,0.573 -0.09837,0.198004 -0.327779,0.301667 -0.417227,0.510564 -0.279426,0.202041 0.117023,-0.09673 -0.17246,0.168092 -0.104214,0.09534 -0.260541,0.133578 -0.32924,0.27391 -0.616191,0.354142 -1.231585,0.709668 -1.84857,1.062427 -0.02869,0.0164 -0.116824,0.06176 -0.08834,0.045 0.551622,-0.324684 2.226852,-1.262142 1.657919,-0.968844 -0.0078,0.004 -4.743972,2.750458 -0.276905,0.139264 -0.604237,0.538451 -0.04332,0.04807 -1.909948,1.125254 -0.02553,0.01474 -0.101489,0.06008 -0.07602,0.04522 0.560271,-0.326921 2.243206,-1.304012 1.68044,-0.981403 -0.620548,0.355733 -1.231204,0.728634 -1.853798,1.080781 -0.02871,0.01624 -0.06428,0.01487 -0.09642,0.02228 -0.260019,0.07922 -0.48741,0.238601 -0.752504,0.307633 -0.305813,0.123929 -0.630843,0.190662 -0.938098,0.311942 -0.312053,0.123187 -0.640618,0.188401 -0.946838,0.327115 -0.362638,0.09787 -0.723117,0.202617 -1.082136,0.313137 -0.442555,0.128312 -0.901237,0.188878 -1.350377,0.290726 -0.31182,0.05134 -0.621004,0.124664 -0.939435,0.106545 -0.171934,0.005 -0.345916,0.0088 -0.512998,0.0542 -0.198239,0.0477 -0.390589,0.133765 -0.596667,0.13439 -0.208399,5.29e-4 -0.416796,7.94e-4 -0.625197,0.0011 -0.214779,-0.0013 -0.42957,-7.94e-4 -0.644351,-0.0016 -0.285186,-0.0016 -0.570389,-1.8e-4 -0.855578,-0.0016 -0.417695,-0.0031 -0.835435,-5.29e-4 -1.253101,-0.008 -0.529643,-0.0099 -1.059688,-0.0266 -1.586899,-0.08157 -0.45534,-0.05182 -0.90664,-0.135763 -1.365755,-0.151823 -0.338961,-0.04865 -0.673275,-0.120886 -1.007804,-0.19353 -0.33443,-0.104058 -0.656031,-0.239011 -0.98389,-0.360757 -0.336862,-0.107852 -0.656069,-0.265086 -1.003146,-0.340127 -0.264983,-0.06901 -0.520351,-0.167825 -0.786435,-0.231952 -0.229899,-0.04568 -0.447934,-0.120063 -0.671113,-0.187973 -0.206081,-0.04138 -0.397658,-0.115988 -0.595823,-0.180637 -0.171709,-0.04426 -0.324945,-0.125431 -0.480541,-0.208933 -0.163272,-0.120034 -0.349689,-0.201771 -0.517194,-0.315913 -0.200862,-0.140671 -0.427609,-0.245041 -0.653368,-0.339143 -0.255524,-0.124187 -0.520861,-0.220874 -0.777729,-0.341677 -0.27881,-0.12646 -0.57471,-0.211132 -0.85317,-0.339357 -0.44073,-0.191109 -0.867744,-0.409094 -1.295863,-0.625925 C 14.27938,49.2904 13.80575,49.04388 13.326073,48.807626 12.977659,48.626929 12.614791,48.468181 12.292042,48.243584 12.031221,48.07891 11.776329,47.903918 11.493664,47.776846 c -0.199136,-0.137025 -0.41525,-0.247475 -0.61137,-0.388951 -0.144758,-0.09855 -0.288118,-0.203369 -0.442192,-0.28531 -0.190313,-0.09069 -0.33173,-0.237697 -0.517274,-0.33378 C 9.638933,46.634198 9.365959,46.476581 9.074127,46.358939 8.798666,46.228158 8.521819,46.094366 8.258879,45.940757 8.015074,45.803404 7.788416,45.637076 7.567658,45.465756 7.31837,45.268639 7.07992,45.057898 6.854452,44.833883 6.689175,44.617626 6.515294,44.409854 6.356835,44.187361 6.181654,43.991318 6.046481,43.770248 5.904826,43.549866 5.717046,43.321094 5.564762,43.065017 5.375074,42.836795 5.324284,42.742985 5.254811,42.660082 5.204458,42.566036 5.111758,42.39289 5.065089,42.190693 4.933577,42.036047 4.774952,41.78873 4.649002,41.528285 4.504442,41.273348 4.428602,41.042991 4.311034,40.832881 4.219144,40.610001 4.070271,40.401353 3.977738,40.151507 3.896146,39.909659 3.762383,39.659483 3.58176,39.432401 3.504383,39.154464 3.380701,38.870577 3.218323,38.605107 3.09671,38.319484 3.02625,38.169355 3.01407,38.051242 2.970073,37.895328 c -0.0271,-0.09605 -0.0825,-0.182795 -0.107691,-0.279365 -0.01127,-0.04318 -0.0067,-0.08899 -0.01,-0.133485 C 2.814022,37.182184 2.679424,36.931369 2.607965,36.640349 2.512075,36.346971 2.366377,36.069603 2.227775,35.79523 2.130435,35.475603 1.957585,35.18242 1.818496,34.879838 1.778236,34.764421 1.720166,34.655683 1.680899,34.539925 1.595149,34.287113 1.562858,34.012742 1.40672,33.784817 1.261209,33.329363 1.109093,32.877741 0.992713,32.4124 0.825843,31.922571 0.716959,31.41487 0.564763,30.920269 c -0.06973,-0.456962 -0.217271,-0.8962 -0.31191,-1.348208 -0.04866,-0.392946 -0.02389,-0.789832 -0.03144,-1.185281 1.38e-4,-0.318127 -0.0011,-0.636228 -0.0024,-0.954344 0.0041,-0.326657 0.0046,-0.653439 0.0011,-0.980059 0.0035,-0.312526 -1.48e-4,-0.624959 -0.0024,-0.937477 -0.0058,-0.253468 -0.0069,-0.507106 -0.02336,-0.760222 -0.01265,-0.233817 -0.01889,-0.458057 0.03607,-0.682784 0.03174,-0.307533 0.06855,-0.613275 0.158554,-0.910568 0.05912,-0.277247 0.06752,-0.570617 0.145373,-0.843294 0.01987,-0.06963 0.06098,-0.131963 0.08125,-0.201483 0.02355,-0.08074 0.0331,-0.164914 0.04966,-0.247369 0.01685,-0.09244 0.0708,-0.397285 0.09298,-0.479997 0.02072,-0.07732 0.05967,-0.149299 0.07723,-0.227401 0.05611,-0.249452 0.05305,-0.513477 0.175181,-0.748101 0.09198,-0.33014 0.05126,-0.160137 0.120557,-0.510387 0.08868,-0.329705 0.277916,-0.629441 0.379098,-0.95549 0.151882,-0.53363 0.376841,-1.037905 0.54646,-1.566899 0.251725,-0.390184 0.448895,-0.812112 0.708001,-1.19852 0.201295,-0.35151 0.433679,-0.689605 0.672653,-1.013114 0.108799,-0.145412 0.257225,-0.344188 0.337211,-0.505134 0.03442,-0.06926 0.03941,-0.15076 0.07417,-0.219851 0.352409,-0.700391 -0.13036,0.457954 0.19675,-0.360828 0.20044,-0.377989 0.412083,-0.745649 0.605991,-1.125371 0.129929,-0.190259 0.201866,-0.403587 0.327628,-0.594103 0.117337,-0.177752 0.278852,-0.332922 0.38477,-0.520848 0.03118,-0.06147 0.177813,-0.354761 0.2134,-0.407096 0.03835,-0.0564 0.09732,-0.09707 0.134239,-0.154411 0.04306,-0.06688 0.05788,-0.14987 0.103579,-0.214984 0.04115,-0.05863 0.102068,-0.100521 0.153104,-0.150784 0.04334,-0.06491 0.08668,-0.12981 0.130016,-0.194714 0.217821,-0.328327 0.0019,-0.03905 0.284557,-0.317262 C 6.630215,10.160489 6.765848,9.82137 7.046531,9.604234 7.216661,9.357722 7.401541,9.117615 7.584636,8.880872 7.691805,8.742301 7.833728,8.633087 7.940823,8.494458 c 0.03792,-0.04908 0.06045,-0.108323 0.09068,-0.162486 0,0 1.89892,-0.786558 1.89892,-0.786558 z"
       inkscape:connector-curvature="0" />
    <path
       style="opacity:0.97000002;fill:#000000;fill-opacity:1;stroke:#000000;stroke-width:0.065;stroke-linejoin:round;stroke-miterlimit:4;stroke-dasharray:none;stroke-dashoffset:0;stroke-opacity:1;paint-order:normal"
       id="path46421"
       d="m 33.073528,51.277577 c 0.405736,0.03904 0.799497,-0.03564 1.198851,-0.0913 0.369382,-0.091 0.760727,-0.03113 1.126829,-0.125436 0.282649,-0.07433 0.568735,-0.131033 0.861099,-0.148262 0.231132,0.01169 0.392044,-0.03943 0.583774,-0.160965 0.189503,-0.07033 0.403593,-0.0505 0.604039,-0.0502 0.145055,0.0019 0.245975,-0.129064 0.39688,-0.16269 0.780719,-0.202715 -2.293019,1.328796 -1.603798,0.916128 0.608031,-0.364056 1.272987,-0.645192 1.827392,-1.086636 0.489103,-0.38945 -2.008079,1.413569 -1.641859,0.906836 6.017178,-3.473672 -1.295503,0.692716 0.39401,-0.279302 0.627441,-0.360982 1.254088,-0.723382 1.884349,-1.079413 0.557477,-0.314917 -1.110657,0.637373 -1.665986,0.956061 0.242837,-0.18611 0.503391,-0.350885 0.747059,-0.536627 5.150967,-2.956254 0.118851,-0.06481 0.232111,-0.142145 0.596466,-0.407295 1.245068,-0.73251 1.872372,-1.090496 0.03557,-0.02029 0.15028,-0.06419 0.114884,-0.04358 -0.546041,0.317966 -2.183426,1.272246 -1.648176,0.936427 0.612476,-0.38427 1.253368,-0.72127 1.880052,-1.081905 -3.1838,1.697423 -1.636736,1.041453 -1.050557,0.514321 0.719849,-0.517713 1.524505,-0.909992 2.2865,-1.35595 0.544454,-0.318641 -1.091983,0.632028 -1.64065,0.943361 -0.04708,0.02672 0.09042,-0.05957 0.135623,-0.08936 0.630463,-0.367937 1.260925,-0.735872 1.891387,-1.10381 -0.539784,0.310317 -2.154875,1.248559 -1.619353,0.930947 0.625068,-0.370715 1.257305,-0.72922 1.888001,-1.090276 0.07796,-0.04463 0.327244,-0.146714 0.249703,-0.101362 -0.547108,0.319995 -1.103882,0.623171 -1.655824,0.934757 0.09496,-0.06865 0.08864,-0.06889 0.177422,-0.118713 0.621668,-0.348872 1.226918,-0.728985 1.865979,-1.044871 0.581705,-0.287534 -1.124423,0.648205 -1.693661,0.959694 -0.03428,0.01876 0.05202,-0.06027 0.08582,-0.07988 0.616921,-0.357794 1.24246,-0.700519 1.863691,-1.050777 -0.558586,0.317392 -2.194989,1.330539 -1.675757,0.95218 0.583015,-0.424836 1.238134,-0.741114 1.868199,-1.092412 0.0439,-0.02447 0.190617,-0.05721 0.147466,-0.03144 -0.536496,0.320434 -2.15714,1.260861 -1.633882,0.919234 0.04351,-0.02841 4.539186,-2.602082 0.255773,-0.14918 0.678683,-0.482158 1.379847,-0.842462 2.132348,-1.270278 0.04396,-0.02498 0.185706,-0.07873 0.142039,-0.05324 -1.910305,1.115174 -2.133592,1.28429 -1.508119,0.83189 0.714039,-0.53017 1.48881,-0.898216 2.2875,-1.335686 0.547224,-0.299736 -1.080638,0.624467 -1.630773,0.918824 -0.05443,0.02912 0.09336,-0.0808 0.140044,-0.121198 0.262295,-0.221953 0.536292,-0.429865 0.780336,-0.672129 0.263467,-0.233518 0.531058,-0.462298 0.797195,-0.692951 0.183459,-0.166619 0.386892,-0.312071 0.566076,-0.481277 0.577614,-0.513012 0.204946,-0.189513 1.884317,-1.09451 0.01955,-0.01053 0.214022,0.243038 0.109845,0.266528 -0.05152,0.183314 -0.247658,0.238773 -0.354505,0.379042 -0.09813,0.03054 -0.1583,0.148931 -0.238842,0.196784 -0.618355,0.367363 -4.186965,2.337713 -0.215887,0.09892 -0.598048,0.536837 -0.143441,0.138306 -1.94183,1.105503 -0.03008,0.01617 -0.06716,0.01251 -0.100745,0.01876 -0.03252,0.01587 -0.06698,0.0283 -0.09757,0.04764 -0.530408,0.335192 1.09175,-0.6188 1.633881,-0.934683 -0.827167,0.550375 -3.99112,2.274326 -0.172659,0.118872 0.01992,-0.01125 -0.03063,0.03505 -0.05038,0.0466 -0.61119,0.35751 -1.223031,0.71406 -1.84099,1.059741 -0.573915,0.32104 1.139233,-0.657217 1.708849,-0.985825 -4.908672,2.859691 -0.0657,0.06495 -0.106656,0.08438 -0.644483,0.305877 -1.23851,0.708372 -1.859952,1.058693 -0.564835,0.31841 2.245992,-1.29677 1.690121,-0.962956 -1.784318,1.071531 -1.143738,1.02603 -1.957284,1.062582 0.07271,-0.02405 -0.169461,0.03259 -0.131255,0.01095 0.567444,-0.321199 1.142709,-0.628388 1.714527,-0.941734 0.03539,-0.01939 -0.06879,0.04225 -0.10382,0.06229 -0.608801,0.348244 -1.218216,0.695409 -1.827327,1.043117 -0.02835,-1.06e-4 -0.109516,0.01402 -0.08505,-2.65e-4 3.554616,-2.083559 0.896813,-0.424384 -0.264681,0.216583 3.04257,-1.780477 1.965237,-1.273355 1.415838,-0.730219 -0.104651,0.0886 -0.123444,0.209897 -0.241917,0.297059 -0.106333,0.160414 -0.222533,0.32195 -0.338396,0.478986 -0.143285,0.215545 -0.328518,0.397478 -0.484037,0.603781 -0.228595,0.266438 -0.440005,0.545391 -0.691997,0.791208 -0.270491,0.26118 -0.510209,0.54457 -0.787061,0.800288 -0.343889,0.310718 -0.696698,0.609107 -1.075573,0.8768 -0.826138,0.570857 -1.641333,1.046879 -2.568165,1.507325 -0.552508,0.274485 1.073854,-0.607671 1.61078,-0.911508 -0.625575,0.361064 -1.244375,0.734132 -1.876726,1.083194 -0.04555,0.02513 -0.103725,0.01651 -0.151749,0.03654 -0.03867,0.01611 -0.140703,0.09083 -0.104262,0.07017 0.545192,-0.309115 2.168168,-1.258242 1.630812,-0.935696 -1.757156,1.054727 -1.171342,0.89181 -1.959507,1.097867 -0.133225,0.03149 -0.270142,0.02932 -0.405958,0.02307 -0.131439,-0.02328 -0.164306,-0.264964 -0.18978,-0.378434 0.523393,-0.609324 1.017159,-0.466727 1.949627,-1.217856 0.676339,-0.544808 -2.338509,1.388486 -1.64864,0.946386 0.135184,-0.152204 0.266142,-0.265512 0.389041,-0.44119 5.867585,-3.671353 -0.940094,0.845857 0.464132,-0.330118 3.208181,-1.868575 1.773433,-1.027237 0.179779,-0.120044 -0.02148,0.01222 0.04143,-0.02702 0.06129,-0.04172 0.06018,-0.04455 0.105936,-0.104891 0.16067,-0.15575 0.605349,-0.34549 1.203648,-0.703638 1.816047,-1.03647 0.02029,-0.01103 0.04546,0.01677 0.06813,0.01244 0.02365,-0.0045 0.08286,-0.04914 0.06187,-0.03733 -0.575845,0.324037 -1.152345,0.646924 -1.726457,0.974018 -0.02482,0.01413 0.05488,-0.0163 0.083,-0.02127 0.603244,-0.366837 1.358752,-0.557284 1.809729,-1.100506 0.422489,-0.508905 -1.145784,0.661144 -1.718977,0.99119 -0.0279,0.01606 0.05411,-0.03491 0.08149,-0.05184 1.81937,-1.125236 1.114763,-0.965904 1.866894,-1.128451 -3.268337,1.815005 -1.957639,1.309621 -1.472544,0.758613 1.165509,-0.696457 3.72663,-2.124588 0.225452,-0.142369 -0.05408,0.03062 0.09552,-0.08044 0.149082,-0.111951 0.605536,-0.356216 1.216993,-0.70227 1.825493,-1.053404 -4.458745,2.556574 0.301125,-0.168876 0.372843,-0.246999 -0.571379,0.331843 -1.140426,0.667734 -1.714138,0.995529 -0.02983,0.01704 0.05214,-0.04534 0.08172,-0.06284 0.606279,-0.358568 1.214234,-0.714354 1.825165,-1.06494 0.02984,-0.01712 0.125827,-0.05494 0.09611,-0.0376 -1.788403,1.043623 -2.165355,1.388833 -1.580102,0.872292 0.205589,-0.173477 0.431996,-0.319572 0.657595,-0.465281 0.629119,-0.355798 1.256282,-0.715068 1.88735,-1.067395 0.04268,-0.02384 0.08897,-0.04055 0.133448,-0.06083 -0.5461,0.310719 -2.175375,1.258223 -1.638303,0.932151 0.624393,-0.379084 1.269529,-0.722955 1.900349,-1.091245 0.534784,-0.312221 -1.073661,0.617387 -1.612228,0.923034 -0.04869,0.02763 0.095,-0.05929 0.142494,-0.08893 0.733729,-0.479401 0.211124,-0.141824 2.036355,-1.167884 0.09376,-0.05271 0.375793,-0.209478 0.282382,-0.156151 -1.471346,0.839975 -2.177243,1.270844 -1.471756,0.841904 0.284628,-0.172509 0.563322,-0.355632 0.836552,-0.54568 0.661075,-0.507386 1.438476,-0.823079 2.136711,-1.282477 0.531908,-0.349967 -1.10287,0.636656 -1.657093,0.950089 -0.08227,0.04653 0.156565,-0.105936 0.234334,-0.159652 0.26363,-0.201845 0.503626,-0.432467 0.74527,-0.659826 0.315471,-0.305302 0.646708,-0.597844 0.953074,-0.912553 0.208182,-0.179604 0.41212,-0.359828 0.596125,-0.564586 0.08909,-0.143389 0.229359,-0.218813 0.34363,-0.34126 0.124566,-0.167132 0.257495,-0.329782 0.384157,-0.49629 0.165261,-0.206978 0.365836,-0.3802 0.531386,-0.586927 0.176165,-0.23123 0.335521,-0.474406 0.504725,-0.710563 0.169079,-0.183621 0.305617,-0.401862 0.495948,-0.564628 0.106127,-0.102405 0.135033,-0.237504 0.225023,-0.348171 0.10065,-0.09172 0.103563,-0.235424 0.156051,-0.35306 0.01834,-0.03325 0.07528,-0.123584 0.07798,-0.121319 0.01577,0.0132 0.05191,0.110064 0.06244,0.136847 0.596718,-0.307496 1.193438,-0.614994 1.790158,-0.922491 -0.1138,0.149712 -0.269219,0.251855 -0.401873,0.38121 -3.282865,1.923393 -1.675024,0.975251 -0.175577,0.119427 0.0263,-0.01503 -0.05048,0.03355 -0.0749,0.0515 -0.08088,0.05945 -0.163116,0.112308 -0.24125,0.175525 -0.151199,0.07504 -0.251515,0.214092 -0.382439,0.311843 -0.07091,0.107939 -0.158761,0.189807 -0.24044,0.289033 -0.03939,0.06265 -0.08993,0.08088 -0.101799,0.151728 -0.07011,0.805029 -2.118251,1.82081 -1.953574,0.699408 0.103944,-0.367046 0.277423,-0.70049 0.466227,-1.029438 0.19912,-0.318728 0.408324,-0.630291 0.599041,-0.954371 0.264308,-0.360931 0.511312,-0.7346 0.778869,-1.093385 0.269188,-0.375373 0.542505,-0.747636 0.786977,-1.139796 0.19526,-0.323165 0.398881,-0.639242 0.5754,-0.97308 0.10355,-0.245745 0.290497,-0.4422 0.408101,-0.678531 0.04107,-0.180174 0.130154,-0.337794 0.203899,-0.504706 0.04618,-0.09275 0.05928,-0.198694 0.0647,-0.301178 0.0072,-0.166119 0.0051,-0.332775 0.0036,-0.499086 -0.01003,-0.217067 0.07092,-0.421122 0.124534,-0.627835 0.04226,-0.144397 0.0546,-0.29441 0.05911,-0.444053 -6.9e-5,-0.157472 0.0897,-0.276606 0.148105,-0.413711 0.04365,-0.197204 0.04575,-0.397631 0.09276,-0.594762 0.04949,-0.26634 0.148918,-0.516377 0.234995,-0.771554 0.03821,-0.21205 0.14333,-0.400643 0.216919,-0.600197 0.07278,-0.200276 0.169918,-0.389347 0.213873,-0.598961 0.0376,-0.156054 0.03957,-0.316619 0.0456,-0.476004 -0.01633,-0.189195 0.05985,-0.360651 0.122905,-0.533564 0.05868,-0.22471 0.06365,-0.459986 0.06849,-0.690956 0.0028,-0.312248 0.0019,-0.624507 0.0021,-0.936779 -1.03e-4,-0.341032 0.0016,-0.682072 -7.94e-4,-1.023088 -0.0026,-0.293574 5.3e-4,-0.587132 -0.0028,-0.880708 0.004,-0.323649 0.0029,-0.647301 0.0026,-0.970965 -0.0016,-0.276326 -0.0027,-0.552596 -0.0024,-0.828945 0.0011,-0.261975 -5.29e-4,-0.523978 -5.29e-4,-0.785971 -0.0047,-0.198925 0.0011,-0.398018 -0.0033,-0.596877 0.02659,-0.204766 -0.04649,-0.386794 -0.0994,-0.57995 -0.107865,-0.235601 -0.191003,-0.468445 -0.229709,-0.725223 -0.08604,-0.266436 -0.135781,-0.542087 -0.209296,-0.812059 -0.08607,-0.289269 -0.215328,-0.559076 -0.337349,-0.834062 -0.171786,-0.323623 -0.319336,-0.662366 -0.504613,-0.978313 -0.175567,-0.391978 -0.291841,-0.800759 -0.393663,-1.216509 -0.0564,-0.33682 -0.16133,-0.662162 -0.240067,-0.994114 -0.0295,-0.188907 -0.06025,-0.366535 -0.132538,-0.543512 -0.08419,-0.181872 -0.10151,-0.382302 -0.111082,-0.579766 -0.0098,-0.165203 0.0056,-0.327229 -0.04783,-0.485116 -0.07288,-0.12306 -0.116724,-0.06086 -0.22139,-0.197792 -0.01233,-0.01381 -0.02466,-0.02761 -0.03701,-0.04141 -0.0084,-0.0095 -0.01683,-0.01908 -0.02524,-0.02861 -0.0084,0.0104 -0.01445,0.03901 -0.02535,0.0312 -0.04412,-0.03163 -0.108299,-0.140893 -0.148532,-0.191783 -0.102473,-0.131337 -0.17895,-0.287097 -0.218985,-0.448278 -0.07378,-0.178578 -0.143766,-0.355447 -0.187864,-0.544264 -0.118899,-0.348819 -0.181751,-0.710409 -0.255093,-1.07193 -0.106564,-0.511781 -0.290714,-1.00202 -0.401511,-1.512457 -0.114802,-0.355795 -0.255068,-0.691337 -0.4094,-1.030269 C 48.5789,10.154191 48.511037,10.003852 48.351824,9.932441 48.285174,9.845301 48.17445,9.796313 48.065399,9.779425 c -0.08285,-0.0122 -0.167002,-0.0046 -0.25056,-0.0021 -0.112847,0.0013 -0.225761,-2.65e-4 -0.338566,0.0016 -0.102341,7.94e-4 -0.204758,0.0019 -0.307099,-7.93e-4 -0.08007,0.04568 -0.122354,-0.11988 -0.166976,-0.03107 0,0 1.681509,-1.215277 1.681509,-1.215277 v 0 c 0.06777,0.03934 0.07949,0.04389 0.156162,0.03244 0.103148,-0.0026 0.206346,-0.0019 0.309502,-0.0019 0.114435,0.0011 0.228947,-0.0026 0.343434,-5.3e-4 0.09579,0.0055 0.191294,0.01355 0.281075,0.05069 0.115777,0.04824 0.218094,0.123733 0.31705,0.199832 0.162145,0.126648 0.279842,0.287303 0.408356,0.446196 0.05816,0.15149 0.141568,0.293915 0.199437,0.443418 0.07913,0.204428 0.09714,0.436853 0.207053,0.631648 0.108529,0.511574 0.282765,1.004128 0.408151,1.51145 0.07315,0.359641 0.134829,0.71954 0.276238,1.059085 0.03527,0.191588 0.104881,0.36807 0.187762,0.544087 0.02029,0.135165 0.0919,0.262911 0.181647,0.365056 0.06453,0.08984 0.161549,0.13136 0.224824,0.222917 0.103344,0.08052 0.216236,0.11658 0.255905,0.262776 0.07122,0.181417 0.0863,0.34489 0.07304,0.542224 0.0086,0.174482 0.0113,0.353449 0.0826,0.516226 0.07692,0.190164 0.133643,0.372591 0.143637,0.579315 0.06214,0.336503 0.175249,0.6598 0.225999,0.998223 0.08301,0.399939 0.206197,0.785228 0.37093,1.159333 0.182909,0.325157 0.332716,0.669411 0.512225,0.996997 0.128712,0.281345 0.269311,0.556491 0.356034,0.854581 0.08938,0.275301 0.117933,0.567568 0.222512,0.839589 0.03382,0.249049 0.112469,0.475242 0.225052,0.700442 0.05366,0.208677 0.151934,0.404807 0.128272,0.625239 -0.0042,0.199967 0.0013,0.400159 -0.0033,0.600189 3.2e-5,0.262192 -0.0016,0.524391 -5.29e-4,0.786564 2.65e-4,0.277154 -7.94e-4,0.554231 -0.0024,0.831358 -2.65e-4,0.322792 -0.0016,0.645573 0.0026,0.968346 -0.0033,0.294486 -2.65e-4,0.588954 -0.0027,0.883438 -0.0021,0.340961 -1.9e-4,0.681943 5.29e-4,1.022914 0.0013,0.313015 0.0026,0.626067 1.9e-5,0.939054 -0.0016,0.244509 0.0048,0.489336 -0.03367,0.731893 -0.03391,0.170722 -0.140094,0.314359 -0.148904,0.486891 0.0037,0.171918 0.0028,0.343792 -0.02437,0.514146 -0.05062,0.214395 -0.09504,0.423564 -0.203848,0.617795 -0.06276,0.206263 -0.179062,0.386643 -0.228301,0.596624 -0.06544,0.261554 -0.200242,0.495999 -0.238053,0.764802 -0.0529,0.197337 -0.07647,0.384411 -0.08347,0.589206 -0.01857,0.150244 -0.08172,0.251799 -0.163645,0.37455 -0.0079,0.163393 -0.01349,0.327318 -0.04419,0.488426 -0.05362,0.190524 -0.132765,0.383146 -0.147839,0.577752 -2.64e-4,0.167613 -1.05e-4,0.335362 0.0039,0.502872 -0.0011,0.124997 -0.0083,0.248203 -0.03233,0.371512 -0.07167,0.173234 -0.191651,0.322128 -0.210611,0.508971 -0.100841,0.265872 -0.287687,0.449813 -0.408335,0.705112 -0.203705,0.319249 -0.35824,0.671076 -0.583789,0.97949 -0.232662,0.406411 -0.517589,0.776346 -0.781371,1.162519 -0.272203,0.348763 -0.496138,0.729855 -0.780743,1.068395 -0.193386,0.323054 -0.378219,0.65019 -0.600413,0.954985 -0.191397,0.311721 -0.373539,0.62449 -0.473808,0.977577 -0.02519,0.04512 -0.0274,0.112186 -0.0728,0.13689 -0.599905,0.326459 -1.209553,0.634685 -1.81433,0.952026 0.04824,-0.0071 0.08425,-0.01381 0.12827,0.01537 0.0031,-0.09891 -0.01762,-0.179356 0.05701,-0.257088 0.03159,-0.04607 0.07317,-0.139467 0.115975,-0.172268 0.05177,-0.03967 0.08508,-0.0176 0.122439,-0.128645 0.0804,-0.14328 0.242125,-0.257686 0.36776,-0.362903 0.113583,-0.0691 0.201641,-0.161261 0.315404,-0.229193 0.0598,-0.03571 4.57499,-2.685113 0.18206,-0.102549 0.253868,-0.17666 -0.09667,0.08036 0.157803,-0.156197 0.07894,-0.07338 0.205676,-0.07746 0.242911,-0.20261 0.625978,-0.334775 1.854047,-1.503709 1.972136,-0.803728 0.0031,0.01852 -0.105786,0.06274 -0.09915,0.08708 -0.113226,0.117891 -0.0989,0.215906 -0.146063,0.372179 -0.02564,0.03203 -0.04218,0.07397 -0.07652,0.09643 -0.01572,0.01027 -0.04441,-0.0038 -0.05508,0.01161 -0.04124,0.05968 -0.01884,0.20333 -0.09932,0.249497 -0.187116,0.286599 0.06774,-0.06781 -0.163732,0.148693 -0.02815,0.02633 -0.03602,0.06866 -0.05995,0.09887 -0.08875,0.112065 -0.22276,0.186979 -0.276021,0.327531 -0.221398,0.177622 -0.309785,0.479856 -0.515416,0.679929 -0.131998,0.232978 -0.324059,0.417792 -0.523873,0.591415 -0.12169,0.176622 -0.277849,0.323802 -0.371242,0.513633 -0.05053,0.05926 -0.137118,0.215662 -0.209391,0.246292 -0.02977,0.01262 -0.07049,-0.0163 -0.09698,0.0024 -0.02761,0.01931 -0.02622,0.06209 -0.03932,0.09314 -0.185155,0.210804 -0.364535,0.43866 -0.615609,0.573198 -0.281741,0.344001 -0.652549,0.599464 -0.941009,0.939244 -0.262736,0.196369 -0.478681,0.457986 -0.727175,0.672987 -1.108234,0.773274 -3.9745,2.250553 -0.467789,0.286009 0.09307,-0.05214 -0.316756,0.305808 -0.254817,0.193667 -0.246021,0.226983 -0.556903,0.379455 -0.829705,0.572434 -0.739566,0.446315 -0.476787,0.288867 -2.03051,1.182791 -0.09443,0.05433 -0.387805,0.197932 -0.294563,0.141591 1.741836,-1.052501 2.069737,-1.344165 1.48,-0.841703 -0.745776,0.426543 -0.530845,0.303091 -2.037948,1.186196 -0.53543,0.313738 2.151181,-1.238475 1.608865,-0.936799 -0.633061,0.352152 -1.251839,0.729429 -1.88114,1.088257 -0.04289,0.02445 -0.177281,0.0865 -0.134853,0.06126 0.541343,-0.322067 1.088205,-0.634765 1.632307,-0.952148 -0.07693,0.04838 -0.146582,0.108413 -0.2263,0.152048 -0.03747,0.0205 -0.08376,0.02331 -0.119076,0.04733 -0.107479,0.07313 -0.185113,0.197115 -0.322294,0.232545 -0.61825,0.576985 -0.06436,0.07287 -1.931379,1.188861 -0.03009,0.01799 -0.121217,0.07045 -0.09095,0.05277 0.565582,-0.330411 1.130528,-0.661913 1.696898,-0.99097 0.02714,-0.01577 -0.05275,0.03403 -0.07912,0.05105 -0.603737,0.35719 -1.207471,0.71438 -1.811208,1.07157 -0.715346,0.167011 -0.103566,0.03224 1.61843,-0.979135 0.01688,-0.0099 -0.0375,0.01572 -0.05006,0.03074 -0.09694,0.115885 0.01214,0.05795 -0.110016,0.129072 -0.611097,0.355775 -1.224465,0.707628 -1.836698,1.061445 0.569206,-0.330499 1.139918,-0.658426 1.707624,-0.9915 0.02439,-0.01431 -0.05496,0.0176 -0.07726,0.03497 -0.02817,0.02193 -0.04014,0.06207 -0.07081,0.08033 -0.608697,0.3624 -1.178607,0.812125 -1.842651,1.058886 -0.580461,0.215705 2.116384,-1.61518 1.619851,-0.909547 -0.17081,0.0273 -0.01805,-0.0209 -0.116104,0.08082 -0.03314,0.03437 -0.09484,0.02922 -0.128688,0.0629 -0.01397,0.01389 -0.01455,0.03665 -0.02183,0.05498 -0.603226,0.355081 -1.206452,0.710163 -1.809676,1.065244 -0.590989,0.427003 0.482032,-0.349792 1.637324,-1.011722 0.04225,-0.02421 -0.0021,0.114115 -0.04377,0.139383 -0.600136,0.364268 -1.127649,0.925544 -1.814997,1.068398 -0.6481,0.134697 1.126813,-0.694976 1.690222,-1.042464 -0.0024,0.03796 0.0086,0.107548 -0.03734,0.134168 -0.07353,0.04262 -4.792901,2.670564 -0.222753,0.08173 -0.157684,0.05951 -0.132443,0.125503 -0.232836,0.186105 -0.06139,0.03706 -4.551098,2.670993 -0.19,0.100862 -0.591645,0.566412 -1.344922,0.720987 -2.045615,1.279621 -0.480119,0.382775 2.347296,-1.286188 1.590328,-0.929585 -0.03437,0.0079 -0.0763,7.94e-4 -0.103116,0.02379 -0.02875,0.02458 -0.02685,0.07112 -0.04604,0.103717 -0.05996,0.101838 -0.142099,0.24258 -0.266371,0.23735 -0.216535,0.76731 -0.06513,0.318889 -1.850147,1.176535 -0.588309,0.282665 1.11565,-0.677859 1.678842,-1.007744 0.04927,-0.02886 -0.162237,0.132886 -0.105185,0.135202 -0.02077,-0.02352 -0.03713,-0.05181 -0.06228,-0.07057 -0.0136,-0.01016 -0.01347,0.120523 0.01535,0.03345 0.120761,-0.0051 0.239853,-0.02711 0.349906,-0.07922 0.530048,-0.295328 -2.102196,1.212982 -1.574382,0.913683 0.631701,-0.358207 1.254517,-0.731938 1.886421,-1.089785 0.07909,-0.04479 0.327935,-0.155945 0.249563,-0.109905 -0.541361,0.318032 -1.086405,0.629753 -1.629608,0.944631 3.74632,-2.144604 1.441511,-0.833628 0.310269,-0.156323 -0.04992,0.02989 0.110805,-0.04009 0.158096,-0.07399 0.48799,-0.349771 -0.246835,0.07201 0.308724,-0.230323 0.06584,-0.04182 0.126635,-0.09108 0.189952,-0.136625 0.213053,-0.115925 0.369851,-0.267653 0.565812,-0.407599 0.05829,-0.04163 0.127121,-0.06847 0.181345,-0.115263 0.05915,-0.05105 0.103643,-0.116954 0.155461,-0.175429 0.06007,-0.04717 0.120148,-0.09434 0.180221,-0.141505 0.125852,-0.112945 0.34552,-0.269356 0.450348,-0.387215 0.116948,-0.131484 0.151892,-0.325109 0.33969,-0.393276 0.220983,-0.272265 -0.02135,0.0044 0.250751,-0.238699 0.17539,-0.156737 0.233455,-0.403278 0.451284,-0.520682 0.126524,-0.225097 0.3018,-0.413157 0.479261,-0.595045 0.146518,-0.288698 -0.05948,0.09484 0.126907,-0.179861 0.06646,-0.09794 0.09175,-0.235067 0.214509,-0.284486 0.0399,-0.191248 0.146026,-0.119776 0.176299,-0.205597 0.01236,-0.03506 -0.0076,-0.07552 0.0016,-0.111522 0.0044,-0.01722 0.02463,-0.02566 0.03693,-0.03849 0.06547,-0.06566 0.138814,-0.186597 0.223941,-0.226827 0.02437,-0.01151 0.05543,-0.0053 0.07851,-0.01926 0.604554,-0.364807 1.20074,-0.743304 1.801109,-1.114954 0.593727,-0.338312 1.292148,-0.67279 -1.589239,0.950658 -0.02781,0.01566 0.02043,-0.06667 0.04791,-0.08291 1.133139,-0.669782 1.238591,-0.723135 1.902447,-1.06508 -4.172453,2.418688 -0.174123,0.0209 0.365344,-0.139563 0.564909,-0.253497 -2.133544,1.257811 -1.598329,0.946476 0.614743,-0.357598 1.228841,-0.716312 1.841918,-1.076762 0.558382,-0.328292 -2.230279,1.318464 -1.677829,0.980289 0.03751,-0.02296 4.63065,-2.719292 0.119034,-0.05692 2.329055,-1.398114 2.465392,-1.470115 0.120157,-0.0995 -0.0182,0.01064 0.03665,-0.02085 0.05481,-0.03154 0.604213,-0.355637 1.208096,-0.71183 1.812324,-1.067443 0.0176,-0.01035 0.0706,-0.04098 0.05312,-0.03045 -0.558435,0.336614 -1.117333,0.67246 -1.676,1.00869 0.600932,-0.371287 1.198697,-0.74775 1.802797,-1.113864 0.02289,-0.01389 0.183927,-0.05797 0.195236,-0.06164 0.03002,-0.0097 0.116075,-0.04857 0.0889,-0.03252 -1.616578,0.954733 -2.288921,1.186632 -1.591604,0.940069 0.612947,-0.359574 1.225942,-0.719068 1.838846,-1.078716 0.02085,-0.01222 0.08332,-0.04899 0.06239,-0.03691 -0.565727,0.326451 -1.137036,0.643446 -1.696794,0.980033 -0.02987,0.01797 0.07518,5.29e-4 0.10237,-0.0213 0.395626,-0.317289 -0.264935,0.07538 0.141325,-0.153011 0.11662,-0.04004 0.08856,-0.125513 0.189457,-0.184473 0.02479,-0.0145 0.05734,-0.01045 0.08281,-0.02371 0.174707,-0.09101 -0.01537,-0.03205 0.117308,-0.06824 0.0013,-0.195506 0.121438,0.151726 0.140994,0.140756 1.564119,-0.877385 2.254353,-1.417312 1.656691,-0.953751 -0.0535,0.04287 -0.08809,0.106669 -0.142647,0.14819 -0.168273,0.128048 -0.06144,-0.04265 -0.21194,0.127408 -0.03575,0.04039 -0.04934,0.09868 -0.0892,0.135019 -0.03709,0.03381 -0.08937,0.04569 -0.134059,0.06853 -0.250687,0.247615 -0.534963,0.459168 -0.79802,0.69256 -0.133951,0.117716 -0.240252,0.262808 -0.386337,0.366567 -0.04283,0.03042 -0.09796,0.04279 -0.136929,0.07803 -0.321112,0.29038 0.12139,0.01431 -0.262181,0.229933 -0.687975,0.688737 0.428085,-0.407173 -2.005381,1.250445 -0.510767,0.347921 1.069444,-0.619723 1.601764,-0.933683 0.255749,-0.150839 -0.664393,0.334026 -0.37742,0.249872 -0.731981,0.454229 -0.359511,0.224499 -2.008132,1.189067 -0.04142,0.02424 -0.16936,0.09019 -0.128127,0.06564 0.533201,-0.317428 1.06403,-0.639106 1.604258,-0.944422 0.08608,-0.04865 -0.278511,0.230778 -0.234627,0.181531 -0.630438,0.370065 -1.276233,0.715129 -1.89131,1.110199 -0.532035,0.341731 2.210877,-1.226021 1.641954,-0.950034 -0.654971,0.317728 -1.265434,0.720045 -1.900693,1.075547 -1.510673,0.845402 5.823342,-3.441141 -0.333999,0.19144 0.557543,-0.32231 1.119499,-0.637109 1.672632,-0.966933 0.03082,-0.01839 -0.07209,0.01296 -0.103092,0.03105 -0.615297,0.35887 -1.276056,0.654309 -1.833102,1.098243 -0.505852,0.403132 1.117174,-0.652344 1.678,-0.974638 0.06324,-0.03635 -0.281913,0.195337 -0.190304,0.108035 -0.622702,0.365302 -1.24392,0.733142 -1.868104,1.095901 -0.07457,0.04334 -0.304165,0.162608 -0.229669,0.119153 0.538851,-0.314312 2.154928,-1.25802 1.618446,-0.939684 -0.09178,0.05446 -4.500853,2.623815 -0.280249,0.154792 -0.64879,0.582951 -0.190233,0.186082 -1.991958,1.190895 -0.539655,0.300964 1.066768,-0.623898 1.602354,-0.932045 0.347834,-0.200126 -0.758664,0.424124 -0.385726,0.252275 -0.298958,0.151413 0.0276,-0.04015 -0.219623,0.19545 -0.626588,0.59713 -2.247484,-0.134662 -2.241314,1.324777 0.544198,-0.318593 2.177312,-1.273466 1.63259,-0.955776 -0.624938,0.364472 -1.248127,0.731933 -1.873231,1.096119 -0.0333,0.01939 -0.135118,0.07419 -0.10192,0.05461 0.543697,-0.320683 2.17039,-1.289912 1.6335,-0.957961 -0.199229,0.12318 -4.436803,2.613422 -0.229984,0.139899 -0.248311,0.188425 -0.517813,0.335155 -0.734957,0.559678 -6.056198,3.478321 1.22912,-0.744561 -0.442047,0.242369 -0.621125,0.366816 -1.241719,0.734565 -1.859373,1.107194 -0.556016,0.335441 1.116301,-0.663755 1.67445,-0.99563 -0.620024,0.39828 -1.352042,0.652994 -1.873456,1.173747 -0.463441,0.462857 1.117793,-0.68336 1.685311,-1.01038 0.02125,-0.01225 -0.01857,0.0493 -0.03951,0.06203 -1.632339,0.992177 -1.192868,0.798565 -1.887915,1.101106 -0.137661,0.08145 -0.276845,0.117483 -0.437113,0.100309 -0.190236,0.0046 -0.376397,0.01908 -0.54205,0.12283 -0.202736,0.08335 -0.412641,0.08319 -0.629261,0.09836 -0.28512,0.03947 -0.565086,0.09832 -0.846833,0.156909 -0.374256,0.03645 -0.751189,0.04642 -1.122106,0.114096 -0.409432,0.06046 -0.818277,0.09163 -1.232532,0.07986 0,0 1.665041,-1.209722 1.665041,-1.209722 z"
       inkscape:connector-curvature="0" />
    <path
       style="opacity:0.97000002;fill:#000000;fill-opacity:1;stroke:#000000;stroke-width:0.065;stroke-linejoin:round;stroke-miterlimit:4;stroke-dasharray:none;stroke-dashoffset:0;stroke-opacity:1;paint-order:normal"
       id="path46423"
       d="M 7.64543,8.529045 C 7.970288,8.250354 8.225936,7.911571 8.500579,7.587226 8.79356,7.273515 9.043789,6.923627 9.323541,6.598615 c 0.267613,-0.249353 0.446141,-0.571978 0.7082,-0.825013 0.208767,-0.186105 0.420852,-0.368959 0.643715,-0.538223 0.605404,-0.485537 1.191713,-0.72204 1.969932,-1.176171 0.07511,-0.04383 0.148299,-0.06412 0.219054,-0.112829 0.815157,-0.289959 -2.098585,1.350108 -1.618679,0.949008 0.540634,-0.451858 1.257647,-0.650076 1.821249,-1.072936 0.526087,-0.394713 -1.138314,0.659164 -1.707944,0.987925 -0.02,0.01154 0.03924,-0.02434 0.05902,-0.03625 0.610229,-0.367551 1.220663,-0.734756 1.830996,-1.102135 -0.02585,0.05023 0.185938,-0.09831 0.140271,-0.07223 -5.674296,3.241294 4.207796,-2.403292 -1.473562,0.833636 0.200929,-0.134922 0.403018,-0.268126 0.594095,-0.417007 0.634294,-0.535707 0.03797,-0.04054 1.962523,-1.14455 0.04533,-0.02601 0.170251,-0.107339 0.213746,-0.124574 0.292331,-0.11584 -0.01905,0.05537 0.22406,-0.08806 0.227857,-0.138842 0.488662,-0.199098 0.727866,-0.314584 0.222163,-0.0069 0.397359,-0.13308 0.614516,-0.162192 0.08387,0.02574 0.142595,-0.07273 0.200028,-0.08933 0.04722,-0.01365 0.16179,0.0083 0.214775,0.01797 -0.582207,0.316126 -1.164418,0.632253 -1.746625,0.94838 0.02077,-0.03948 0.07042,-0.03281 0.09962,-0.0577 0.01225,-0.01045 0.0087,-0.04647 0.02413,-0.04182 0.06013,0.01812 0.04288,0.118666 0.05417,0.180441 0,0 1.687203,-1.195329 1.687203,-1.195329 v 0 c 0.04479,0.04272 0.180375,0.130132 0.173808,0.226954 -0.0011,0.01408 -0.0303,0.0063 -0.03842,0.01781 -0.01585,0.02252 -0.0127,0.055 -0.0286,0.07748 -0.01148,0.01624 -0.03307,0.02207 -0.0496,0.03312 -0.618019,0.341641 -1.236035,0.683281 -1.854055,1.024922 -0.126359,0.02811 -0.239249,0.09493 -0.372533,0.106524 -0.195011,0.07126 -0.393319,0.117917 -0.587682,0.188113 -0.24588,0.10056 -0.496885,0.188656 -0.728009,0.322263 -0.119107,0.04521 -0.221993,0.103833 -0.334171,0.163867 -0.03232,0.0173 -0.129834,0.06796 -0.09822,0.04941 1.60065,-0.939241 2.219568,-1.227529 1.54645,-0.910317 -0.183206,0.169926 -0.383545,0.289488 -0.576435,0.440722 -0.614341,0.353266 -1.177131,0.817308 -1.843024,1.059793 -0.609131,0.221816 1.104898,-0.678984 1.669931,-0.996762 0.02815,-0.01582 -0.02005,0.06756 -0.04763,0.08438 -0.603113,0.367858 -1.220693,0.711478 -1.833481,1.062979 -0.02529,0.01453 -0.05352,0.02318 -0.08028,0.03478 -0.01992,0.01177 -0.03982,0.02352 -0.05973,0.03529 0.556085,-0.337468 1.101452,-0.693261 1.668253,-1.012401 0.02854,-0.01609 -0.0062,0.07478 -0.03397,0.09221 -0.596276,0.374648 -1.203039,0.733232 -1.820032,1.072687 -0.576259,0.317045 2.254748,-1.355264 1.697781,-1.005427 -1.051504,0.660461 -1.237043,0.761474 -1.901007,1.126998 -0.07595,0.03053 -0.288605,0.154488 -0.218086,0.112916 2.835966,-1.67169 2.107817,-1.332685 1.549641,-0.881189 -0.13521,0.10614 -0.267684,0.233402 -0.405259,0.332317 -0.04276,0.03074 -0.100063,0.03876 -0.14015,0.07291 -0.0449,0.03825 -0.0727,0.09292 -0.109048,0.139375 -0.327824,0.18841 -0.450715,0.548949 -0.727869,0.794276 -0.302903,0.303602 -0.534297,0.668179 -0.819306,0.987822 -0.303101,0.295402 -0.508873,0.672195 -0.840804,0.943634 0,0 -1.898919,0.786559 -1.898919,0.786559 z"
       inkscape:connector-curvature="0" />
    <path
       style="opacity:0.97000002;fill:#000000;fill-opacity:1;stroke:#000000;stroke-width:0.065;stroke-linejoin:round;stroke-miterlimit:4;stroke-dasharray:none;stroke-dashoffset:0;stroke-opacity:1;paint-order:normal"
       id="path46427"
       d="m 9.717546,6.648762 c 0.392451,-0.258482 0.783658,-0.517636 1.160036,-0.79933 0.367364,-0.26253 0.702083,-0.566182 1.063755,-0.835882 0.242046,-0.186767 0.492638,-0.362456 0.734753,-0.548876 0.225036,-0.171971 0.400357,-0.389982 0.636228,-0.548907 0.64525,-0.543396 0.125555,-0.115943 1.959313,-1.159034 0.05478,-0.03116 0.222811,-0.117811 0.168185,-0.08638 -1.696492,0.976249 -2.218317,1.397791 -1.641168,0.937162 0.487786,-0.719619 1.315001,-1.128006 2.126171,-1.103286 0.167677,0.04618 0.168875,-0.06431 0.30467,-0.110823 -4.606382,2.638343 0.08181,-0.04691 0.09114,-0.05204 0.04779,-0.02627 0.180885,-0.0164 0.237834,-0.01863 0.05545,-0.014 0.139493,0.02513 0.192638,0.0016 0.02072,-0.0092 0.06866,-0.05828 0.04885,-0.04729 -1.613315,0.895366 -2.286119,1.365885 -1.658041,0.929828 0.641821,-0.651655 1.337146,-1.092589 2.169269,-1.077354 0.01765,-0.015 0.07316,-0.05627 0.05291,-0.04504 -0.560422,0.311023 -2.225979,1.271847 -1.673709,0.946566 0.609512,-0.358998 1.21661,-0.722091 1.826752,-1.080019 0.05291,-0.03104 0.05472,-0.02143 0.117218,-0.01855 0.113028,0.0033 0.225772,0.01119 0.338908,0.01331 0.108892,-0.0039 0.227729,0.03619 0.307215,-0.04523 -0.577321,0.325982 -1.153657,0.653711 -1.73196,0.977947 -0.03791,0.02125 0.07654,-0.04124 0.114118,-0.06308 0.610423,-0.3547 1.212564,-0.723736 1.827326,-1.070867 0.0075,-0.0042 0.127908,-0.0051 0.141751,-0.0053 0.158366,0.01212 0.317283,0.01601 0.476054,0.01876 0.193307,0.0047 0.38668,0.0021 0.579988,0.0044 0.182224,-0.01222 0.371461,0.03323 0.541739,-0.03995 0.226103,-0.131067 0.472991,-0.151918 0.73246,-0.154958 0.259135,0.0078 0.498162,0.01971 0.740875,-0.0738 0.206092,-0.10576 0.325999,-0.123177 0.555525,-0.126916 -0.01281,0.10885 0.426185,-0.133051 0.314526,-0.06904 -0.56002,0.321059 -2.266836,1.234879 -1.687809,0.949526 0.640017,-0.31541 1.247352,-0.693211 1.871027,-1.039818 0.138729,-0.07185 0.353039,0.04799 0.455457,-0.07152 0.147799,-0.103878 0.364141,-0.05257 0.493765,-0.167454 0.847985,-0.305674 -2.118426,1.210146 -1.581263,0.921099 1.286258,-0.692137 1.286306,-1.074857 2.206712,-1.07931 0.139329,-0.03092 0.296397,0.03187 0.43438,0.0021 0.05698,-0.0123 0.102343,-0.05602 0.155225,-0.08055 0.201809,-0.07203 0.414798,-0.08201 0.626245,-0.09976 0.76654,-0.40373 -2.147432,1.188471 -1.604293,0.902896 1.47769,-0.776952 1.305542,-1.006753 2.293027,-1.093975 0.203613,-0.111194 0.486175,-0.0797 0.66729,-0.216289 0.19966,-0.01135 0.398608,0.0053 0.597985,0.0146 0.165465,0.0075 0.331086,0.0083 0.496676,0.0094 0.137655,0.0013 0.275315,-7.94e-4 0.412964,-5.29e-4 0.120518,-5.3e-4 0.241017,-5.3e-4 0.361524,4.7e-5 0.157795,-1.61e-4 0.315545,0.0013 0.473361,0.0016 0.245483,0.01265 0.49499,-0.03005 0.732303,0.03979 0.16823,0.07531 0.361212,0.06318 0.534421,0.113641 0.261533,0.07619 -0.0118,0.04673 0.244933,0.06107 0.291835,0.02408 0.573738,0.105206 0.867772,0.135403 0.215914,0.08763 0.447506,0.03076 0.66864,0.0902 0.632539,0.170045 -0.197435,-0.01659 0.323344,0.09628 0.32099,0.01146 0.609145,0.181676 0.921137,0.223705 0.299997,0.01826 0.579403,0.14768 0.852876,0.264459 0.245068,0.09792 0.504851,0.15217 0.758738,0.235487 0.09438,0.05703 0.232949,0.02061 0.329271,0.058 0.163997,0.06367 0.02286,0.05826 0.113392,0.0576 0.121161,-0.07921 0.214482,0.0186 0.318392,0.08297 0.123243,0.09892 0.27283,0.06907 0.417499,0.118653 0.260562,0.120224 0.544582,0.14102 0.825106,0.206573 0.423011,0.05284 0.820767,0.194009 1.241433,0.257892 0.338553,0.08736 0.669502,0.196813 1.001093,0.307242 0.215194,0.02721 0.380172,0.193064 0.583039,0.242216 0.116205,0.172357 0.209113,0.0059 0.344625,0.135112 0.0442,0.116247 0.04943,0.02749 0.11248,0.07285 0.08127,0.05846 0.04211,0.06733 0.106566,0.0927 0.09061,-0.123976 0.16851,0.100264 0.243414,0.145542 0.09045,0.03462 0.136752,0.12333 0.217831,0.172408 0.01929,0.01167 0.04605,-0.0028 0.06747,0.0042 0.03467,0.01132 0.06497,0.03316 0.09746,0.04973 0.03766,0.0254 0.07056,0.06 0.11299,0.07624 0.04753,0.0182 0.102846,0.0073 0.150686,0.02468 0.06013,0.02183 0.110852,0.06425 0.168801,0.09136 0.216527,0.101309 0.432602,0.188963 0.644647,0.301591 0.527399,0.247449 1.065564,0.466672 1.596427,0.706395 0.263051,0.102073 0.493207,0.264038 0.737156,0.399386 0.198101,0.10991 0.408239,0.185139 0.604255,0.301741 0.223573,0.16256 0.443325,0.336471 0.68398,0.473768 0.180062,0.102706 0.325186,0.255789 0.472551,0.399333 0.124537,0.06157 0.185634,0.180234 0.277114,0.27812 0.08766,0.105346 0.172347,0.148984 0.232656,0.283482 0.147222,-0.01426 0.103918,0.220927 0.191217,0.255733 0.05414,0.150053 0.184655,0.203997 0.264774,0.332454 0.07891,0.03185 0.10687,0.160679 0.182224,0.189953 0.15159,0.05889 -0.126339,-0.221639 0.131199,0.09426 0.169502,0.07357 0.34499,0.201626 0.467838,0.33954 0.217369,0.156101 0.422125,0.331441 0.628201,0.504933 0.254942,0.176149 0.498165,0.403207 0.698957,0.642779 0.188971,0.164809 0.364054,0.345202 0.570556,0.491112 0.0282,0.03556 0.06033,0.06833 0.08459,0.106682 0.04346,0.06872 0.05401,0.140415 0.115917,0.194614 0.08713,0.07627 0.127368,0.109403 0.18216,0.221719 0.04013,0.109788 0.0746,0.201504 0.133665,0.300013 0.06539,0.124513 0.09201,0.257279 0.12396,0.392571 0.124653,0.114718 0.158343,0.290562 0.180964,0.450426 -7.93e-4,0.215046 0.114322,0.401204 0.165341,0.606301 0.03614,0.161057 0.02865,0.326115 0.04585,0.489093 0.0601,0.106307 0.128852,0.207266 0.171773,0.322921 0.02432,0.145209 0.0058,0.292476 0.01656,0.438708 0.06834,0.09508 0.09822,0.206849 0.140062,0.315085 0.0016,0.152857 0.05404,0.197331 0.124987,0.314751 0.083,0.105677 0.172789,0.180231 0.226158,0.30499 0.0817,0.115538 0.165833,0.220723 0.227814,0.359743 0.122671,0.08098 0.157565,0.225407 0.236204,0.34166 0.06131,0.07746 0.07678,0.186682 0.123397,0.269142 0.0136,0.02405 0.05128,0.02201 0.07335,0.03865 0.597464,0.39364 0.04885,0.01714 -1.756304,0.948635 0,0 1.88958,-0.841804 1.88958,-0.841804 v 0 c -1.863003,1.030018 -1.315874,1.482474 -1.886921,0.987983 -0.110575,-0.103026 -0.16396,-0.216918 -0.223623,-0.353562 -0.09233,-0.126172 -0.125114,-0.269248 -0.248182,-0.374719 -0.07016,-0.138806 -0.172112,-0.236995 -0.240297,-0.372597 -0.02135,-0.110088 -0.175168,-0.158932 -0.206444,-0.271335 -0.07489,-0.119214 -0.1772,-0.194443 -0.153109,-0.349645 -0.03707,-0.117535 -0.07055,-0.228499 -0.140679,-0.332274 -0.05081,-0.140017 -0.03159,-0.284094 -0.02326,-0.432991 -0.01495,-0.127534 -0.12401,-0.210169 -0.164592,-0.328705 -0.05774,-0.1617 -0.02088,-0.330149 -0.04649,-0.500295 -0.03862,-0.217771 -0.173612,-0.400545 -0.181766,-0.62329 -0.0098,-0.161586 -0.04177,-0.289618 -0.157449,-0.413051 -0.0454,-0.115599 -0.04947,-0.233871 -0.104536,-0.346988 -0.0691,-0.106407 -0.116944,-0.200742 -0.14123,-0.324141 -0.05766,-0.137451 -0.257265,-0.280638 -0.325736,-0.436946 C 48.034842,10.640112 47.852446,10.445444 47.655794,10.26715 47.458177,10.037928 47.225981,9.831325 46.980377,9.655496 46.760796,9.48688 46.5525,9.304262 46.331459,9.137347 46.179941,9.013239 46.019092,8.902495 45.856503,8.793346 45.733485,8.702506 45.613782,8.601897 45.521811,8.47882 45.449071,8.372299 45.317076,8.313019 45.276865,8.179124 45.184805,8.064419 45.187155,7.960036 45.054464,7.873361 45.012194,7.798081 44.931364,7.738267 44.849171,7.637617 44.761561,7.538887 44.688339,7.436359 44.575909,7.361821 44.451722,7.218853 44.296197,7.098899 44.13306,7.004329 43.910247,6.848138 43.688166,6.690774 43.471861,6.525756 43.04135,6.282292 42.599189,6.060301 42.159552,5.833905 41.616063,5.60785 41.084526,5.361616 40.546951,5.122726 40.188903,4.946636 39.814582,4.808621 39.450404,4.649487 39.29712,4.583327 39.162878,4.486205 39.033838,4.38089 38.903452,4.255459 38.963478,4.34127 38.797954,4.264947 38.732334,4.202527 38.652217,4.157111 38.585428,4.10293 38.558658,4.18928 38.312637,4.02055 38.264922,3.98818 38.082862,3.89323 37.895604,3.807194 37.69741,3.750544 37.376346,3.642348 37.054551,3.530006 36.721978,3.462749 36.303542,3.379609 35.893465,3.256252 35.469292,3.200364 c -0.280958,-0.06197 -0.565441,-0.101719 -0.83622,-0.2027 -0.161685,-0.02151 -0.315826,-0.06718 -0.45357,-0.157289 -0.04008,-0.01701 -0.07553,-0.05246 -0.119047,-0.05372 -0.01106,-2.64e-4 0.01373,0.0266 0.0046,0.03284 -0.03997,0.02731 -0.149633,-0.01802 -0.187635,-0.03185 C 33.751854,2.713655 33.575126,2.737865 33.443683,2.664588 33.191221,2.573508 32.922597,2.535222 32.680959,2.413554 32.416574,2.299521 32.14323,2.215645 31.856337,2.180765 31.547716,2.099345 31.245814,1.991866 30.92747,1.950469 30.607358,1.857749 30.280788,1.844533 29.95384,1.784017 29.659158,1.745347 29.372452,1.668029 29.075799,1.644812 c -0.2604,-0.06533 -0.522811,-0.11951 -0.784884,-0.17794 -0.237336,-0.01564 -0.475734,-0.0037 -0.713465,-0.0054 -0.159369,2.57e-4 -0.318669,0.0019 -0.478017,0.0019 -0.120682,5.29e-4 -0.241361,5.29e-4 -0.362053,2.65e-4 -0.137557,2.64e-4 -0.275098,-0.0019 -0.412652,-0.0028 -0.165579,-0.0029 -0.331005,-0.0099 -0.496462,-0.0168 -0.182499,-0.0062 -0.372298,-0.02336 -0.541292,0.05972 -0.236519,0.04709 -0.462426,0.136475 -0.702808,0.164531 -0.172879,0.02275 -0.483351,0.147103 -0.376282,0.08207 3.923638,-2.383184 0.321424,-0.0084 -0.317704,0.109207 -0.20474,0.02172 -0.404736,0.06268 -0.5969,0.138901 -0.201366,0.04844 -0.412131,0.0058 -0.617477,0.03063 -0.129614,0.01656 -0.108005,0.0068 -0.222403,0.04553 -0.02582,0.0088 -0.09981,0.04334 -0.07638,0.02937 3.449055,-2.056345 0.894321,-0.462328 -0.288385,0.14623 -0.177861,0.02609 -0.338426,0.09703 -0.50659,0.15694 -0.155191,-0.01193 -0.305819,0.0049 -0.449474,0.0678 0.558167,-0.323022 2.261822,-1.235441 1.674505,-0.969069 -1.400976,0.635397 -1.277723,1.066134 -2.213842,1.084599 -0.185471,0.01828 -0.340098,0.121862 -0.52182,0.158747 -0.252603,0.04831 -0.50964,0.01423 -0.765048,0.03697 -0.251015,0.02907 -0.477324,0.105913 -0.716735,0.181631 -0.189251,0.01027 -0.378909,0.0054 -0.568399,0.0047 -0.195093,0.0013 -0.390226,-0.0026 -0.585316,-0.0052 -0.151898,-0.0038 -0.307827,-0.01691 -0.457303,0.01484 -0.03607,0.01304 -0.136441,0.06988 -0.103468,0.05029 0.565356,-0.335735 1.122984,-0.684821 1.695894,-1.007496 0.04056,-0.02283 -0.0801,0.146343 -0.09555,0.101838 -0.609031,0.346662 -1.218062,0.693324 -1.827093,1.039987 -0.117647,-0.0041 -0.235302,-0.0059 -0.352996,-0.0084 -0.101857,-0.0033 -0.207841,-0.0069 -0.304184,0.03099 -0.511172,0.375089 -2.306553,1.25892 1.604894,-0.954704 0.02455,-0.01389 -0.01524,0.06041 -0.03946,0.07487 -1.765427,1.053941 -1.129358,1.041693 -1.916107,1.038299 -0.06529,0.0038 -0.127146,0.0071 -0.189103,0.03069 -0.01712,0.0065 -0.06524,0.03323 -0.04941,0.02402 1.543611,-0.897059 2.297112,-1.315677 1.655789,-0.959016 -0.636696,0.530598 -1.33178,1.099793 -2.15931,1.115348 -0.04417,0.0092 -0.09863,0.01998 -0.139911,0.03774 -0.02019,0.0087 -0.07566,0.04474 -0.05663,0.03375 3.438623,-1.986147 1.136301,-0.658108 -0.08932,0.04827 -0.117671,0.07021 -0.23109,0.04117 -0.362503,0.04429 -0.09894,0.0053 -0.262504,0.0924 -0.199785,0.05549 1.688709,-0.993579 2.29938,-1.292863 1.649458,-0.972516 -0.0164,0.02572 -0.02334,0.06103 -0.04925,0.07714 -0.598085,0.371649 -1.208106,0.723762 -1.814803,1.081182 -0.05371,0.03164 -0.221245,0.114777 -0.167413,0.08334 0.5529,-0.322857 1.107967,-0.642011 1.659946,-0.966443 0.03707,-0.02177 -0.07668,0.03893 -0.115015,0.0584 -0.169642,0.199302 -0.0085,0.04356 -0.213926,0.162099 -0.169868,0.09801 -0.267298,0.282364 -0.411723,0.409776 -0.260633,0.166302 -0.494755,0.37047 -0.748707,0.549183 -0.367147,0.268488 -0.712894,0.561229 -1.072986,0.839467 -0.37246,0.271775 -0.734587,0.558329 -1.135986,0.788223 0,0 -1.912424,0.760542 -1.912424,0.760542 z"
       inkscape:connector-curvature="0" />
    <path
       style="opacity:0.97000002;fill:#000000;fill-opacity:1;stroke:#000000;stroke-width:0.065;stroke-linejoin:round;stroke-miterlimit:4;stroke-dasharray:none;stroke-dashoffset:0;stroke-opacity:1;paint-order:normal"
       id="path46429"
       d="m 16.929775,3.000047 c -0.634849,0.363331 -1.269698,0.726659 -1.904545,1.08999 -0.05395,0.01953 -0.211264,0.08772 -0.161853,0.05856 0.524875,-0.309761 2.113282,-1.21512 1.590563,-0.901731 -0.62688,0.37584 -1.264401,0.733803 -1.903134,1.089128 -0.04805,0.02673 -0.202639,0.08373 -0.1552,0.05592 0.537822,-0.315286 1.085705,-0.613087 1.628556,-0.919631 -6.064808,3.509841 1.124212,-0.668351 -0.606417,0.380667 -0.138105,0.089 -0.266713,0.189798 -0.386702,0.301728 -0.121132,0.111283 -0.237003,0.228211 -0.352594,0.345204 -0.156104,0.110612 -0.311719,0.231066 -0.436576,0.378021 -0.129315,0.07291 -0.228846,0.180155 -0.345104,0.271291 -0.09475,0.06523 -0.1891,0.147169 -0.259712,0.234968 -0.0071,0.09331 -0.0638,0.09566 -0.115173,0.149519 -0.04698,0.04926 -0.06069,0.127849 -0.107416,0.181832 -0.0962,0.07342 -0.194209,0.151675 -0.283837,0.234749 C 13.008772,6.120453 12.841415,6.240346 12.708782,6.403628 12.504349,6.664674 12.289505,6.920772 12.065043,7.165067 11.821941,7.379075 11.586456,7.601302 11.353478,7.8262 11.175283,8.004744 10.983783,8.171018 10.778604,8.317867 10.1268,8.79806 9.493666,9.065789 8.714357,9.531291 8.161311,9.86164 9.832592,8.891365 10.392955,8.573595 c 0.04772,-0.02706 -0.08925,0.06422 -0.12982,0.101148 C 9.599483,9.185439 8.914167,9.496613 8.12826,9.943129 7.558813,10.266661 9.264576,9.291542 9.832735,8.965747 9.198629,9.44431 8.537221,9.95444 7.76591,10.165146 c -0.09877,-0.0019 -0.203247,-5.29e-4 -0.304678,-0.0065 -0.0097,0.01852 -0.04742,0.06562 -0.02911,0.05554 0.583089,-0.32086 1.155632,-0.660535 1.732312,-0.992775 0.02783,-0.01603 -0.04212,0.05009 -0.06974,0.06647 -1.725052,1.022916 -1.148252,0.849365 -1.860516,1.059027 -0.812344,0.230833 2.179556,-1.607503 1.627995,-0.904463 -0.02611,0.03329 -0.07055,0.04794 -0.09953,0.07877 -0.05776,0.116682 -0.08602,0.174816 -0.200803,0.240946 -0.0097,0.0082 -0.01759,0.0191 -0.02905,0.02461 -0.621842,0.298265 -1.23586,0.614196 -1.869667,0.886114 -0.07412,0.0318 -0.01498,-0.289158 -0.0067,-0.312495 0.06768,-0.102962 0.151734,-0.232846 0.256437,-0.303122 0.09369,-0.03525 0.182166,-0.210688 0.259927,-0.242634 0.0619,-0.09385 0.184703,-0.112646 0.225875,-0.22742 0.03937,-0.04355 0.05446,-0.130558 0.100036,-0.168007 0.06967,-0.05725 0.05825,0.02635 0.09142,-0.09918 C 7.678928,9.207511 7.795287,9.102537 7.908478,8.99732 8.081918,8.853294 8.193905,8.656429 8.33991,8.487034 8.58579,8.187539 8.865259,7.924279 9.113914,7.625133 9.469877,7.249343 9.791589,6.845144 10.164562,6.48557 c 0.261646,-0.24284 0.473699,-0.532498 0.727866,-0.781992 0.17141,-0.130619 0.325633,-0.28221 0.513651,-0.390117 0.104667,-0.04927 0.176512,-0.154057 0.273786,-0.211543 0.432043,-0.255331 4.235402,-2.451801 0.134395,-0.08199 0.09651,-0.106812 0.201364,-0.202094 0.306861,-0.300511 0.612201,-0.34997 1.224587,-0.699614 1.836597,-1.049909 0.182748,-0.104601 -0.125105,0.05893 0.100515,-0.02553 0.02222,-0.0083 0.07737,-0.05468 0.05678,-0.0429 -1.707706,0.977249 -2.130447,1.496529 -1.678467,0.950915 0.457036,-0.623186 1.959592,-1.21167 2.137148,-1.312264 0.524317,-0.297045 -1.045421,0.599726 -1.569715,0.89681 -0.07821,0.04432 0.154274,-0.09231 0.23141,-0.138467 0.749729,-0.53875 1.567384,-0.935209 2.367645,-1.413502 0.512125,-0.306083 -1.033507,0.596421 -1.552789,0.890194 -0.09271,0.05245 0.178745,-0.115941 0.266859,-0.175798 0.620829,-0.361534 1.239628,-0.72658 1.862492,-1.084606 0.02474,-0.01424 0.138139,-0.05837 0.172326,-0.06966 0.0087,-0.0029 0.03426,-0.01138 0.027,-0.0057 -1.771877,1.379635 -1.168632,0.797787 -1.714201,1.326459 5.644425,-3.219849 -4.301336,2.482017 1.261208,-0.704146 -0.62897,0.352266 -1.24247,0.733708 -1.886913,1.056799 -0.572161,0.28685 1.111801,-0.634445 1.669802,-0.947949 0.03272,-0.01839 -0.06124,0.04362 -0.09371,0.06244 -0.620604,0.359674 -1.238118,0.724905 -1.865329,1.072933 -0.03843,0.02132 -0.165512,0.05529 -0.127664,0.03295 0.553585,-0.326713 1.119341,-0.632349 1.679012,-0.94852 -0.0231,0.01341 -0.04621,0.02684 -0.06932,0.04026 -0.02138,0.01865 -0.03965,0.04167 -0.06417,0.05597 -0.613714,0.358158 -1.228476,0.714679 -1.849155,1.060627 -0.572315,0.318992 1.133563,-0.657503 1.704049,-0.97975 0.01434,-0.0081 -0.01945,0.0278 -0.03361,0.03618 -0.609124,0.360614 -1.222978,0.713174 -1.83447,1.069761 3.559865,-1.925627 1.853837,-1.296805 1.450565,-0.741415 -0.106376,0.101465 -0.191942,0.214304 -0.289655,0.319767 -0.0934,0.09788 -0.143219,0.193128 -0.207714,0.310851 -0.135112,0.131845 -0.151001,0.321808 -0.258419,0.47066 -0.129257,0.287681 -0.31338,0.542636 -0.470847,0.8143 -0.191138,0.290523 -0.381931,0.581636 -0.608716,0.845976 -0.203086,0.208002 -0.382593,0.43553 -0.568465,0.658511 -0.174554,0.232079 -0.391713,0.422097 -0.602507,0.618749 -0.141023,0.128812 -0.284348,0.255886 -0.414258,0.39338 -0.98533,0.656143 -3.83449,2.242497 -0.160988,0.125457 0.0088,-0.0051 -0.01929,0.0067 -0.02821,0.01162 C 9.122481,9.230612 9.847501,9.154825 9.093901,9.226265 8.66095,9.058 9.121561,8.860407 9.226529,8.759789 9.418235,8.551318 13.806607,6.208057 9.513401,8.588235 9.381942,8.661115 9.648621,8.466363 9.708631,8.385366 9.89761,8.17815 10.103985,8.002892 10.254353,7.763386 10.421115,7.514173 10.605741,7.274928 10.799038,7.045598 10.956909,6.85364 11.045616,6.616209 11.187893,6.416422 c 0.127942,-0.05052 0.152773,-0.218993 0.2946,-0.238091 0.02275,-0.113104 0.160303,-0.157467 0.197025,-0.197048 0.25826,-0.278374 -0.09873,0.02756 0.100026,-0.136666 0.117753,-0.111376 0.232899,-0.230745 0.355205,-0.347146 0.116166,-0.168847 0.260856,-0.307028 0.402101,-0.457184 0.687747,-0.602668 1.512419,-1.088927 2.35722,-1.427163 0.779868,-0.477697 -2.252257,1.273757 -1.558133,0.875316 0.61441,-0.352687 1.230164,-0.703191 1.851638,-1.043271 0.182166,-0.09968 -0.0689,0.142166 0.134454,-0.08033 -4.195593,2.41591 -0.153141,0.0806 0.224859,-0.07707 0.604961,-0.25233 -1.145162,0.638141 -1.715776,0.960705 -0.02035,0.01148 0.04681,-0.01209 0.06455,-0.02728 0.02712,-0.02323 0.04394,-0.05633 0.06591,-0.08449 5.598364,-3.324701 -0.691184,0.578784 0.316844,-0.222602 0.574056,-0.461158 0.36658,-0.296984 1.865476,-1.081767 0.581742,-0.304583 -2.231019,1.380289 -1.703818,0.988814 0.571981,-0.424728 1.279519,-0.648031 1.838952,-1.089157 0.503256,-0.39683 -1.108734,0.643315 -1.668757,0.954952 -0.03924,0.02183 0.06987,-0.05644 0.104807,-0.08466 0.07414,0.09674 1.917817,-1.236982 2.660462,-1.421828 0.253098,-0.02787 0.46077,-0.178679 0.702342,-0.242742 0.05095,-0.05559 0.186775,0.0403 0.228232,7.94e-4 0.01535,-0.01463 0.02667,-0.07339 0.0081,-0.06311 -0.581591,0.322326 -1.146231,0.674333 -1.719347,1.0115 0.01513,-0.02022 0.03026,-0.04041 0.04539,-0.06062 0,0 1.89597,-0.818706 1.89597,-0.818706 v 0 c -0.01437,0.01974 -0.02875,0.03949 -0.04312,0.05923 -3.571579,2.210903 -0.990703,0.828405 -2.046761,1.135753 -0.227809,0.0883 -0.451237,0.183806 -0.691822,0.234936 -0.751486,0.305306 -2.195529,1.203968 0.868455,-0.5974 -0.659281,0.489286 -0.421757,0.318413 -1.952855,1.180981 -0.566185,0.318969 2.185876,-1.400617 1.67133,-1.003697 -0.559623,0.431692 -1.347181,0.572249 -1.807395,1.108658 -0.418817,0.488158 2.329992,-1.323258 1.668301,-0.9696 -0.07771,0.04789 -0.03284,0.0277 -0.137618,0.05344 -0.608221,0.36911 -1.207008,0.753544 -1.810964,1.129589 -0.02355,0.01466 -0.09654,0.05465 -0.07252,0.04078 0.568187,-0.327951 1.136491,-0.655698 1.704737,-0.983549 -0.312968,0.03068 0.12246,-0.04098 -0.127677,0.110517 -0.604076,0.365868 -1.193499,0.770342 -1.847144,1.037759 -0.604729,0.247407 1.132536,-0.651909 1.699173,-0.977223 0.01852,-0.01064 -0.03653,0.02212 -0.05479,0.03317 -0.611706,0.353131 -1.22341,0.706265 -1.835116,1.059399 -0.05561,0.01421 -0.214751,0.07717 -0.165396,0.04787 3.535635,-2.099077 0.853072,-0.459729 -0.269944,0.184349 -0.675928,0.358756 -0.214926,0.115967 1.554181,-0.910865 0.03831,-0.02222 -0.07691,0.04411 -0.113501,0.06908 -0.09789,0.06679 -0.174175,0.161843 -0.295084,0.190341 -0.0498,0.0612 -0.09014,0.13089 -0.14722,0.185365 -0.109723,0.104716 -0.221961,0.109249 -0.241665,0.292121 -0.04338,0.03728 -0.09877,0.06202 -0.134234,0.106902 -0.0177,0.02238 -0.01783,0.05558 -0.0358,0.07775 -0.03974,0.04901 -0.09478,0.05059 -0.150815,0.0638 -0.0244,0.03 -0.01397,0.07605 -0.02096,0.114075 -0.01855,0.01257 -0.03444,0.03041 -0.05561,0.03773 -0.02654,0.0092 -0.06671,-0.01201 -0.08359,0.01042 -0.02312,0.03072 -0.0071,0.07657 -0.01066,0.114853 -0.03925,0.02394 -0.09322,0.01601 -0.131556,0.04137 -0.02167,0.01434 -0.02521,0.04541 -0.03783,0.06812 -0.034,0.181465 -0.15313,0.09342 -0.200538,0.150752 -0.200404,0.242348 0.123076,0.02739 -0.07827,0.148323 -0.224436,0.07187 -0.249785,0.385588 -0.424675,0.569193 -0.240043,0.467248 0.09471,-0.131549 -0.190764,0.23205 -0.03486,0.0444 -0.03801,0.108246 -0.07212,0.153228 -0.02848,0.03756 -0.08044,0.05182 -0.110749,0.08792 -0.307933,0.36676 0.164391,-0.08707 -0.177218,0.2266 -0.12064,0.269698 -0.287584,0.473982 -0.520883,0.652285 -0.04466,0.05282 -0.06446,0.123931 -0.110196,0.175813 -0.113588,0.128855 -4.679384,2.786758 -0.352629,0.259784 -0.244678,0.103367 -0.198048,0.370141 -0.427625,-0.02217 -0.0054,-0.0092 0.02053,-0.0055 0.0308,-0.0082 0.677849,-0.200544 0.09254,-0.031 -1.68098,0.977027 -0.01061,0.006 0.01619,-0.01892 0.02677,-0.02503 0.604144,-0.349882 1.165703,-0.789906 1.816555,-1.042498 0.588155,-0.228256 -2.314774,1.417688 -1.635057,0.953336 0.09139,-0.06669 0.05065,-0.02524 0.118401,-0.127947 0.02661,-0.01998 0.06843,-0.01074 0.09493,-0.03088 0.08392,-0.06376 0.09184,-0.209838 0.211706,-0.239154 0.06958,-0.05809 0.123709,-0.13362 0.19526,-0.18927 0.03648,-0.02837 0.08952,-0.03231 0.122798,-0.06438 0.03784,-0.03647 0.04577,-0.09698 0.08307,-0.134003 0.276104,-0.274043 -0.01656,0.166505 0.210265,-0.215858 0.214934,-0.194572 0.339238,-0.472332 0.578522,-0.64066 0.409882,-0.576947 -0.198626,0.2563 0.22616,-0.253243 0.113858,-0.136578 0.180184,-0.315473 0.285038,-0.45443 0.03063,-0.04059 0.07652,-0.06701 0.114774,-0.10051 0.176795,-0.418335 -0.03995,0.05677 0.172085,-0.30471 0.02658,-0.04532 0.0328,-0.101589 0.06336,-0.144332 0.02574,-0.03599 0.07763,-0.04842 0.101212,-0.08586 0.02909,-0.04618 0.03393,-0.103745 0.05089,-0.155617 0.02566,-0.03593 0.05133,-0.07187 0.07699,-0.107799 0.07425,-0.304446 -0.03144,0.0011 0.104699,-0.1689 0.07891,-0.09856 0.0011,-0.263279 0.129764,-0.333991 0.113949,-0.137335 0.06142,-0.23554 0.210614,-0.312238 0.06377,-0.12927 0.159994,-0.244736 0.27604,-0.340423 0.06359,-0.06311 0.03196,-0.02244 0.08158,-0.131323 0.02027,-0.02013 0.05573,-0.01524 0.08046,-0.02957 0.06779,-0.03925 0.05812,-0.06225 0.08031,-0.135868 0.606557,-0.354394 1.213114,-0.708785 1.819672,-1.063178 -4.390925,2.574052 0.03721,-0.01651 0.169849,-0.115316 0.520975,-0.388038 -1.122156,0.654767 -1.683142,0.982305 -0.04977,0.02906 0.221734,-0.118314 0.132258,-0.111352 0.620278,-0.353518 1.239297,-0.709261 1.860841,-1.060554 0.03636,-0.02056 0.148632,-0.07606 0.112649,-0.05486 -0.550318,0.324242 -1.102831,0.64475 -1.655964,0.96416 -0.03257,0.01881 0.06159,-0.04334 0.09409,-0.06225 0.618908,-0.360082 1.233961,-0.727059 1.859981,-1.074634 0.555057,-0.308176 -1.098042,0.637614 -1.647063,0.956421 5.891758,-3.38912 -0.859657,0.526126 0.441579,-0.25417 0.607426,-0.364246 1.220888,-0.718327 1.831335,-1.077494 1.243775,-0.287404 -5.278951,3.440647 -0.05113,0.377431 -1.068056,0.757028 -4.057822,2.366499 -0.682503,0.42514 0.147227,-0.08468 -0.587237,0.353775 -0.414091,0.296881 -1.160706,0.66126 -3.975704,2.342147 -0.564682,0.330703 0.08084,-0.04767 -0.330957,0.139763 -0.23083,0.129172 -0.122992,0.193831 -4.682628,2.77744 -0.292082,0.228047 -0.124476,0.06987 -0.230005,0.174482 -0.323866,0.27522 -5.57572,3.393649 0.619215,-0.444193 -0.183118,0.146338 -0.07269,0.0535 -0.144095,0.115747 -0.209074,0.179824 -0.16918,0.135591 -0.39117,0.208484 -0.523351,0.393147 -0.326083,0.146754 -0.486129,0.539681 -0.759531,0.762254 -0.380699,0.346911 -0.704766,0.737709 -1.050256,1.118095 -0.142012,0.152487 -0.246255,0.33547 -0.389313,0.484915 -0.0033,0.0035 -0.266258,0.216712 -0.278397,0.228449 -0.0378,0.03656 -0.06907,0.07933 -0.103603,0.118986 -0.144539,0.270243 0.01865,0.0048 -0.164386,0.204727 -0.09484,0.103563 -0.124685,0.261098 -0.240837,0.346159 -0.06284,0.05771 -0.185843,0.130765 -0.231418,0.201809 -0.01556,0.02423 -0.0045,0.06396 -0.02689,0.08208 -0.01828,0.01482 -0.04702,-0.0021 -0.07053,-0.0032 -0.09937,0.03704 -0.0021,0.10464 -0.06234,0.173336 -0.01161,0.01323 -0.14504,0.0094 -0.138078,0.07941 -0.06204,0.05971 -0.01244,0.129149 -0.07272,0.18556 -0.01566,0.01463 -0.04435,0.0098 -0.05907,0.0254 -0.06897,0.07301 0.02453,0.06942 -0.07137,0.05738 -0.05684,0.109238 0.02238,-0.01479 -0.08228,0.05669 -0.0746,0.05094 -0.06536,0.193929 -0.177689,0.196718 -0.09375,0.119097 0.01807,-0.0034 -0.113332,0.07984 -0.07233,0.04584 -0.06333,0.161604 -0.170828,0.162533 -0.02188,0.02737 -0.05797,0.04103 -0.07972,0.0685 -0.01286,0.01625 0.01561,0.05207 -0.0026,0.06207 -1.850228,1.020762 -2.063776,1.620544 -1.801222,0.925322 0.101327,-0.20532 0.158631,-0.02845 0.213317,-0.217136 0.112723,-0.243067 0.03949,-0.07805 0.151083,-0.144772 0.691041,-0.4132 1.193255,-0.813477 1.836184,-1.145564 0.578139,-0.357251 1.163945,-0.718769 -1.691153,0.978157 -0.01484,0.0088 0.03745,0.0053 0.05164,-0.0046 0.01458,-0.01013 0.0084,-0.03861 0.02365,-0.04775 C 9.031899,8.913366 8.364358,8.8377 9.132883,8.94346 9.225953,8.93786 9.317358,8.94106 9.401641,8.89544 10.258132,8.560481 7.170838,10.487155 7.913087,9.725888 8.523261,9.369518 9.143807,9.030344 9.743607,8.656778 10.300211,8.310113 8.610926,9.317824 8.04273,9.645145 c -0.02225,0.01283 0.04171,-0.02999 0.06276,-0.0447 0.056,-0.03913 0.12736,-0.05279 0.182766,-0.09276 0.02535,-0.01828 0.03659,-0.05068 0.05488,-0.07602 0.09858,-0.05162 0.05377,-0.01744 0.132276,-0.105344 C 9.08729,8.960405 9.69177,8.579868 10.324812,8.251923 10.892283,7.957947 9.225662,8.90438 8.672391,9.224277 8.602371,9.264767 8.96538,9.017754 8.857978,9.067945 9.076116,8.936053 9.275681,8.782904 9.459598,8.607872 9.691376,8.379259 9.925106,8.15254 10.169571,7.937407 c 0.263339,-0.1881 0.414943,-0.496287 0.657682,-0.713322 0.06185,-0.107029 0.133043,-0.231531 0.223489,-0.318519 0.246996,-0.237553 -0.07343,0.1054 0.153632,-0.08601 0.015,-0.01265 0.01812,-0.03479 0.02719,-0.05218 0.02421,-0.04377 0.03592,-0.09658 0.07107,-0.132162 0.06343,-0.06419 0.171559,-0.039 0.185798,-0.166592 0.267939,-0.07906 0.04603,-0.18215 0.265632,-0.225094 0.03906,-0.146831 0.123287,-0.212627 0.21704,-0.335071 0.132038,-0.08381 0.241723,-0.179216 0.355333,-0.277305 0.212704,-0.06713 0.01408,0.02492 0.150622,-0.144182 0.0374,-0.04632 0.118798,-0.03985 0.156662,-0.0858 0.143338,-0.173924 -0.04615,-0.06906 0.126026,-0.145466 0.14868,-0.06502 0.240758,-0.208528 0.359363,-0.316536 0.123539,-0.116026 0.237387,-0.240845 0.380632,-0.333971 1.081254,-0.817689 4.148328,-2.332519 0.61735,-0.381013 0.62898,-0.3673 1.256112,-0.737785 1.886944,-1.101897 0.04562,-0.02633 0.187437,-0.09595 0.14205,-0.06922 -0.531003,0.312687 -2.145149,1.213273 -1.599282,0.92733 0.654481,-0.342839 1.28111,-0.736449 1.925362,-1.098142 0.04932,-0.02769 0.203158,-0.09889 0.154734,-0.06966 -0.533093,0.321813 -1.073126,0.631984 -1.609691,0.947973 0,0 1.912425,-0.760542 1.912425,-0.760542 z"
       inkscape:connector-curvature="0" />
  </g>
</svg>
