<?xml version="1.0" encoding="UTF-8" standalone="no"?>
<!-- Created with Inkscape (http://www.inkscape.org/) -->

<svg
   xmlns:dc="http://purl.org/dc/elements/1.1/"
   xmlns:cc="http://creativecommons.org/ns#"
   xmlns:rdf="http://www.w3.org/1999/02/22-rdf-syntax-ns#"
   xmlns:svg="http://www.w3.org/2000/svg"
   xmlns="http://www.w3.org/2000/svg"
   xmlns:xlink="http://www.w3.org/1999/xlink"
   xmlns:sodipodi="http://sodipodi.sourceforge.net/DTD/sodipodi-0.dtd"
   xmlns:inkscape="http://www.inkscape.org/namespaces/inkscape"
   width="70.963989mm"
   height="70.715729mm"
   viewBox="0 0 70.963989 70.715729"
   version="1.1"
   id="svg13042"
   inkscape:version="0.92.2 5c3e80d, 2017-08-06"
   sodipodi:docname="linkedIn.svg">
  <defs
     id="defs13036">
    <linearGradient
       inkscape:collect="always"
       id="linearGradient14907">
      <stop
         style="stop-color:#80b3ff;stop-opacity:1;"
         offset="0"
         id="stop14903" />
      <stop
         style="stop-color:#80b3ff;stop-opacity:0;"
         offset="1"
         id="stop14905" />
    </linearGradient>
    <linearGradient
       inkscape:collect="always"
       id="linearGradient14895">
      <stop
         style="stop-color:#000000;stop-opacity:1;"
         offset="0"
         id="stop14891" />
      <stop
         style="stop-color:#000000;stop-opacity:0;"
         offset="1"
         id="stop14893" />
    </linearGradient>
    <inkscape:perspective
       sodipodi:type="inkscape:persp3d"
       inkscape:vp_x="0 : 148.5 : 1"
       inkscape:vp_y="0 : 1000 : 0"
       inkscape:vp_z="210 : 148.5 : 1"
       inkscape:persp3d-origin="105 : 99.000002 : 1"
       id="perspective14828" />
    <linearGradient
       inkscape:collect="always"
       xlink:href="#linearGradient14895"
       id="linearGradient14901"
       x1="-76.58503"
       y1="35.621929"
       x2="-5.5210371"
       y2="35.621929"
       gradientUnits="userSpaceOnUse"
       gradientTransform="translate(3.7041668)" />
    <linearGradient
       inkscape:collect="always"
       xlink:href="#linearGradient14907"
       id="linearGradient14909"
       x1="-76.585027"
       y1="35.621929"
       x2="-5.5210373"
       y2="35.621929"
       gradientUnits="userSpaceOnUse"
       gradientTransform="translate(3.7041668)" />
  </defs>
  <sodipodi:namedview
     id="base"
     pagecolor="#ffffff"
     bordercolor="#666666"
     borderopacity="1.0"
     inkscape:pageopacity="0.0"
     inkscape:pageshadow="2"
     inkscape:zoom="1.4"
     inkscape:cx="68.214602"
     inkscape:cy="211.07301"
     inkscape:document-units="mm"
     inkscape:current-layer="layer1"
     showgrid="false"
     inkscape:window-width="1440"
     inkscape:window-height="818"
     inkscape:window-x="0"
     inkscape:window-y="0"
     inkscape:window-maximized="1" />
  <metadata
     id="metadata13039">
    <rdf:RDF>
      <cc:Work
         rdf:about="">
        <dc:format>image/svg+xml</dc:format>
        <dc:type
           rdf:resource="http://purl.org/dc/dcmitype/StillImage" />
        <dc:title></dc:title>
      </cc:Work>
    </rdf:RDF>
  </metadata>
  <g
     inkscape:label="Layer 1"
     inkscape:groupmode="layer"
     id="layer1"
     transform="translate(-1.3376956,-0.26406425)">
    <rect
       style="opacity:1;fill:#2a2aff;fill-opacity:1;stroke:none;stroke-width:0.1;stroke-linejoin:round;stroke-miterlimit:4;stroke-dasharray:none;stroke-dashoffset:0;stroke-opacity:1;paint-order:normal"
       id="rect14784"
       width="70.963989"
       height="70.715721"
       x="1.3376956"
       y="0.26406425"
       rx="15.2" />
    <rect
       style="opacity:1;fill:url(#linearGradient14909);fill-opacity:1;stroke:url(#linearGradient14901);stroke-width:0.1;stroke-linejoin:round;stroke-miterlimit:4;stroke-dasharray:none;stroke-dashoffset:0;stroke-opacity:1;paint-order:normal"
       id="rect14784-0"
       width="70.963989"
       height="70.715729"
       x="-72.830856"
       y="0.26406425"
       rx="15.2"
       transform="scale(-1,1)" />
    <ellipse
       style="opacity:1;fill:#ffffff;fill-opacity:1;stroke:none;stroke-width:5.19400024;stroke-linejoin:round;stroke-miterlimit:4;stroke-dasharray:none;stroke-dashoffset:0;stroke-opacity:1;paint-order:normal"
       id="path14911"
       cx="17.930851"
       cy="19.310446"
       rx="5.1026788"
       ry="5.4806542" />
    <rect
       style="opacity:1;fill:#ffffff;fill-opacity:1;stroke:none;stroke-width:5.53833961;stroke-linejoin:round;stroke-miterlimit:4;stroke-dasharray:none;stroke-dashoffset:0;stroke-opacity:1;paint-order:normal"
       id="rect14915"
       width="11.717261"
       height="31.372023"
       x="11.798696"
       y="30.15836"
       rx="6.6000047" />
    <rect
       style="opacity:1;fill:#ffffff;fill-opacity:1;stroke:none;stroke-width:5.19400024;stroke-linejoin:round;stroke-miterlimit:4;stroke-dasharray:none;stroke-dashoffset:0;stroke-opacity:1;paint-order:normal"
       id="rect14917"
       width="10.961308"
       height="31.75"
       x="32.709717"
       y="29.402409"
       rx="8.1000004" />
    <path
       style="opacity:1;fill:#ffffff;fill-opacity:1;stroke:none;stroke-width:4.64210463;stroke-linejoin:round;stroke-miterlimit:4;stroke-dasharray:none;stroke-dashoffset:0;stroke-opacity:1;paint-order:normal"
       id="path14925"
       d="m 42.121332,31.07854 c 0.612687,0.104492 1.185551,-0.06956 1.777779,-0.217109 0.08354,-0.02262 0.171265,-0.03031 0.25062,-0.06783 0.13522,-0.06394 0.231708,-0.214296 0.368864,-0.272562 0.242925,-0.103192 0.435431,-0.08088 0.668976,-0.237018 0.355711,-0.268413 0.782132,-0.250493 1.180001,-0.329282 0.266795,-0.360617 0.678418,-0.213572 1.013798,-0.423258 0.26066,-0.283264 0.677068,-0.287675 1.020891,-0.295787 0.257293,-0.01287 0.515463,0.0033 0.772296,0.02284 0.257215,-0.01262 0.513709,0.014 0.771012,0.0011 0.202298,-0.0018 0.404498,-0.0092 0.606996,3.5e-5 0.284892,-0.01882 0.382152,0.53398 0.542976,0.681899 0.209769,0.235095 0.280864,0.577248 0.346608,0.726612 0.154565,0.09823 0.210556,0.357328 0.278175,0.526165 0.01493,0.03726 -0.06755,-0.108224 -0.03266,-0.117187 0.04003,-0.01028 0.05526,0.06952 0.08289,0.104284 0.02963,0.04655 0.115353,0.300672 0.208959,0.335861 0.01662,0.0062 0.03509,-0.03886 0.04773,-0.02499 0.08347,0.09155 0.183432,0.310399 0.243354,0.432286 0.388791,0.93886 -0.204879,-0.315766 0.183701,0.28762 0.09974,0.133007 0.136525,0.285412 0.19823,0.441857 0.01894,0.04801 -0.0782,-0.110698 -0.0465,-0.148841 2.07e-4,-2.47e-4 0.14351,0.171067 0.153797,0.18336 0.07471,0.05827 0.291411,0.484755 0.31004,0.293368 0.09311,-0.01051 0.509214,1.23959 0.255616,0.774371 0.10923,0.267846 0.217378,0.409312 0.315254,0.69587 0.03516,0.162152 0.03509,0.144157 0.05491,0.293296 0.03696,0.278014 -0.202671,-0.257491 0.03205,0.07661 0.176541,0.393365 0.142043,0.351188 0.291553,0.659461 0.152423,0.257002 0.274638,0.510651 0.305392,0.824674 -0.151688,-0.373951 0.219634,0.469498 0.229879,0.501328 0.06783,0.209641 0.214099,0.380508 0.30253,0.586922 0.07862,0.269786 0.07653,0.474102 0.09847,0.521275 0.18837,0.118157 0.272451,0.638357 0.272206,0.817206 0.1864,0.337289 0.234834,0.723166 0.305663,1.104101 0.02859,0.278614 0.200144,0.5166 0.285555,0.789718 0.07495,0.267858 0.08704,0.547425 0.07173,0.825624 -0.0106,0.305803 -0.07027,0.41993 0.03527,0.677776 0.123332,0.355267 0.195439,0.735696 0.217678,1.117169 0.09114,0.380208 0.115263,0.794365 0.06861,1.185133 -0.02085,0.390099 -0.04015,0.780893 -0.03912,1.171872 0.03484,0.384395 0.08415,0.83526 0.214618,1.196541 0.127836,0.415055 0.158797,0.846018 0.134191,1.281736 -0.02565,0.342191 -0.0045,0.687047 -0.02531,1.028268 0.008,0.311793 -0.0048,0.62417 -0.0028,0.936814 -0.01583,0.327942 -0.01897,0.494744 0.06988,0.783204 0.122531,0.290325 0.190266,0.618634 0.2237,0.938758 -0.0072,0.09093 0.117137,0.71254 -0.01243,0.486598 0.09982,0.277606 0.133714,0.556465 0.08628,0.849378 -0.03959,0.0933 0.03177,0.426215 -0.07072,0.315596 0.164701,0.147446 0.294145,0.561076 0.341674,0.801261 -0.167707,-0.651663 0.361521,0.925082 0.165579,0.186029 0.121707,0.01385 0.175563,0.384484 0.282624,0.413749 0.02795,0.0077 0.0035,-0.07457 0.02674,-0.09399 0.03363,-0.02812 0.08436,0.0049 0.124695,-0.007 0.1654,0.261633 0.263004,0.364786 0.530511,0.627258 0.0327,-0.08055 0.156382,0.245384 0.184228,0.162472 0.01588,-0.04727 -0.05382,-0.163802 -0.011,-0.151424 0.250445,0.07241 0.110818,0.308798 0.195353,0.140496 0.0119,-0.375646 0.654425,1.374128 0.247746,0.414985 0.143805,0.09911 0.224839,0.332483 0.3393,0.490918 0,0 -7.609099,5.103782 -7.609099,5.103782 v 0 c -0.143902,-0.350584 0.05041,0.04179 -0.179646,-0.206418 -0.06946,-0.122277 -0.146186,-0.23952 -0.208395,-0.366834 -0.07372,-0.150844 0.43334,0.521667 0.105136,0.186056 -0.0367,-0.03937 -0.07341,-0.07874 -0.110108,-0.118111 -0.0039,0.02185 0.0054,0.07624 -0.01166,0.06555 -0.154942,-0.09718 -0.267137,-0.275033 -0.39971,-0.405929 -0.05927,-0.0617 -0.675989,-0.765996 -0.36421,-0.288152 -0.196623,-0.166183 -0.360675,-0.381662 -0.543425,-0.553683 -0.205786,-0.304587 -0.386478,-0.584832 -0.569238,-0.944378 0.03863,-0.145616 0.03592,-0.205732 -0.125983,-0.373898 -0.157766,-0.319433 -0.252838,-0.544231 -0.207936,-0.902959 0.0013,-0.114785 -0.01426,-0.403231 0.121869,-0.402816 -0.122906,-0.280516 -0.140908,-0.482511 -0.112817,-0.791118 -0.0032,-0.240677 -0.01,-0.485971 -0.100719,-0.707333 -0.119401,-0.366266 -0.278072,-0.682894 -0.216221,-1.088944 0.002,-0.315855 -0.01153,-0.631659 10e-4,-0.946556 -0.01566,-0.350472 0.01804,-0.704289 0.01707,-1.055842 0.0028,-0.30412 0.04534,-0.603399 0.04881,-0.907693 -0.176634,-0.495936 -0.205546,-1.04488 -0.374619,-1.548656 0.0058,-0.402005 -0.009,-0.804183 0.0061,-1.206077 -0.0061,-0.299295 0.05326,-0.597295 0.07557,-0.896729 -0.107536,-0.327146 -0.09115,-0.660112 -0.180374,-0.993393 -0.123967,-0.349534 -0.275362,-0.672837 -0.228731,-1.059843 6.62e-4,-0.198662 0.02016,-0.392127 0.04811,-0.588036 0.0187,-0.309785 -0.331066,-0.583012 -0.348892,-0.91666 0.0087,-0.340828 -10e-4,-0.617786 -0.205682,-0.890406 -0.181498,-0.451164 0.06078,-0.296539 -0.164812,-0.569156 -0.100313,-0.2019 -0.342763,-0.526137 -0.209442,-0.74252 0.137356,0.130564 -0.454084,-0.75072 -0.355453,-0.68863 0.04059,-0.243274 -0.293651,-0.440074 -0.314862,-0.714809 0.05803,-0.255489 0.151859,0.166667 -0.08993,-0.384415 -0.08381,-0.173244 -0.239232,-0.362278 -0.221634,-0.507522 -0.143558,-0.205302 -0.425538,-0.489616 -0.2871,-0.770135 0.123529,0.07623 -0.210268,-0.421201 -0.233534,-0.505742 -0.109779,-0.236322 -0.208062,-0.613875 0.03842,-0.233366 -0.158258,-0.1838 -0.309191,-0.376582 -0.462585,-0.565064 -0.0888,-0.118546 -0.422028,-0.507963 -0.303311,-0.46154 0.0043,0.01813 0.02556,0.0661 0.01272,0.05444 -0.142019,-0.129122 -0.411899,-0.391863 -0.314316,-0.600446 -0.04618,-0.0504 -0.321286,-0.350738 -0.383227,-0.520116 -0.204457,-0.275409 -0.22613,-0.436236 -0.420857,-0.704408 -0.10916,-0.199836 -0.142561,-0.349239 -0.202944,-0.464432 -0.05488,-0.07258 -0.112597,-0.142457 -0.164628,-0.217746 -0.283298,-0.409937 0.264794,0.251258 -0.01265,0.16924 -0.203149,0.0082 -0.406001,0.0023 -0.60886,-0.0015 -0.252983,-0.01644 -0.505767,0.01102 -0.758708,-0.0044 -0.233385,0.018 -0.464659,0.02835 -0.69101,0.106507 -0.311117,0.122362 -0.595762,0.307026 -0.91372,0.387224 -0.401588,0.06965 -0.704755,0.35563 -1.113933,0.342266 -0.367857,0.07623 -0.684341,0.330194 -1.041283,0.452838 -0.465246,0.123701 -0.872916,0.416097 -1.367402,0.405488 -0.637356,0.102807 -1.269326,0.09608 -1.91185,0.110562 0,0 7.073872,-5.894814 7.073872,-5.894814 z"
       inkscape:connector-curvature="0" />
    <path
       style="opacity:1;fill:#ffffff;fill-opacity:1;stroke:none;stroke-width:3.18270135;stroke-linejoin:round;stroke-miterlimit:4;stroke-dasharray:none;stroke-dashoffset:0;stroke-opacity:1;paint-order:normal"
       id="path14929"
       d="m 41.159676,32.105741 c 0.358904,0.121193 0.744359,0.191434 1.139865,0.263064 0.200417,0.05101 0.358917,0.06492 0.576805,0.05036 0.06822,0.007 0.08388,0.04983 0.136285,0.06671 0.04508,0.01451 0.190839,0.04583 0.145846,0.03125 -0.575949,-0.18669 -1.15745,-0.368103 -1.74031,-0.54808 -0.02646,-0.0081 0.04309,0.02432 0.06977,0.03225 0.669067,0.198907 1.343854,0.391842 2.015782,0.587765 0.02991,0.01232 0.122232,0.04699 0.08974,0.0369 -3.777268,-1.173434 -0.853044,-0.259503 0.419619,0.110394 0.04166,-0.0017 0.08582,-0.01305 0.124986,-0.0051 0.03192,0.0065 0.03503,0.03438 0.06435,0.04398 0.0754,0.02466 0.26715,-0.01232 0.350065,-0.01945 0.588618,-0.05405 2.860302,0.845083 -1.540165,-0.531719 -0.01999,-0.0062 0.04164,0.01073 0.06162,0.01707 0.656916,0.206229 1.312658,0.413606 1.968986,0.620408 0.158491,0.05478 0.318391,0.04414 0.495657,0.0515 0.159303,-5.02e-4 0.3186,-9.59e-4 0.477907,-0.0014 0.176374,-9.6e-4 0.352734,-2.42e-4 0.529108,-8.68e-4 0.177298,8.68e-4 0.354516,-7.29e-4 0.531806,2.42e-4 0.181523,5.93e-4 0.363056,-0.0012 0.544554,-5.02e-4 0.173799,4.7e-5 0.34762,0.0012 0.521398,-3.62e-4 0.167696,0.0011 0.335384,3.62e-4 0.503088,0.0011 0.186221,-0.0012 0.372512,-8.67e-4 0.558759,-2.4e-4 0.192882,0.01189 0.288669,-0.0072 0.42441,-0.08617 0.191658,-0.08033 0.233231,-0.07111 0.370289,-0.207101 0.110524,-0.06362 0.03786,-0.171759 0.162435,-0.222802 0.167398,-0.04054 0.199874,-0.203878 0.04491,-0.259204 -1.258156,-0.491835 -1.484355,-0.616042 -2.540306,-0.622443 -0.236149,3.63e-4 -0.472298,0.0013 -0.708448,0.0012 -0.231942,-0.01505 -0.382103,0.0094 -0.579957,0.07317 -0.138449,0.06302 -0.298689,0.08225 -0.470623,0.09919 -0.128397,0.0052 -0.258971,0.0016 -0.388249,0.0016 -0.15573,-0.0013 -0.311452,-7.29e-4 -0.467192,-0.0013 -0.153041,3.62e-4 -0.306115,-7.31e-4 -0.459159,4.5e-5 -0.158243,-5.03e-4 -0.316475,2.4e-4 -0.474718,-1.22e-4 -0.152846,5.01e-4 -0.305715,-5.93e-4 -0.458556,1.22e-4 -0.158193,-5.03e-4 -0.316373,2.4e-4 -0.474566,-1.22e-4 -0.182555,7.3e-4 -0.365114,3.62e-4 -0.54769,2.42e-4 -0.08526,-0.01722 -0.235598,0.02467 -0.312358,-1.03e-4 -0.02572,-0.0083 -0.07201,-0.05036 -0.04588,-0.04246 0.599854,0.181117 1.184973,0.376855 1.777458,0.565282 -0.407311,-0.372921 -2.057876,-0.965338 -2.097322,-0.426721 0.12791,0.119889 0.33368,0.200118 0.5241,0.286793 0.543039,0.463944 1.568347,0.607342 2.402022,0.888698 -4.232783,-1.401669 -0.16682,0.07953 0.542555,0.129267 0.143481,0.0028 0.290742,0.0049 0.430267,-0.007 -1.516979,-0.694668 -1.261453,-0.702092 -2.335033,-0.704378 -0.03642,0.04114 -0.249846,-0.08095 -0.186302,-0.06176 0.586785,0.177182 1.159427,0.3684 1.739247,0.552498 0.02717,0.0087 -0.05408,-0.01751 -0.08132,-0.02609 -1.97594,-0.621945 -1.223624,-0.517405 -2.044642,-0.625918 -0.103948,-0.03969 -0.268557,0.01783 -0.367443,-0.01276 -0.05495,-0.01703 -0.08138,-0.05496 -0.135116,-0.07314 5.905668,1.833257 -4.650767,-1.37727 1.32357,0.464966 -0.133319,-0.0179 -0.100333,-0.10106 -0.171352,-0.142675 -0.06388,-0.03744 -0.15388,-0.05801 -0.226795,-0.08997 -0.125629,-0.06245 -0.221044,-0.141617 -0.326038,-0.214904 -0.573482,-0.399698 -1.407119,-0.536726 -2.261365,-0.804314 -1.562974,-0.166451 5.343606,1.90267 -0.08148,0.200386 -0.0063,-0.002 -0.01601,-0.0052 0.248084,0.0843 0.03921,0.01363 0.07754,0.02798 0.117632,0.04073 0.668052,0.212645 1.332332,0.42905 2.006714,0.635463 0.20667,0.06326 0.466797,0.06521 0.709125,0.141196 0.302889,0.07143 0.614046,0.09889 0.939268,0.116947 0.211843,0.05385 0.409478,0.137978 0.637669,0.163568 0.184011,0.01473 0.36856,0.01232 0.554271,0.01565 0.156528,-0.0013 0.31305,-0.0016 0.469593,-0.0019 0.157958,5.02e-4 0.316027,-0.0017 0.473974,-1.2e-4 0.161857,-9.58e-4 0.323603,3.62e-4 0.485456,-8.67e-4 0.170765,3.62e-4 0.341569,8.67e-4 0.512331,5.02e-4 0.181788,5.92e-4 0.363709,-0.0016 0.545485,2.42e-4 0.166018,-8.67e-4 0.331924,5.01e-4 0.497936,-7.31e-4 0.218711,0.01655 0.366958,-0.02945 0.518778,-0.114482 0.06806,-0.05555 0.0377,-0.02298 0.08111,-0.100364 0,0 -1.911983,-0.567058 -1.911983,-0.567058 v 0 c 0.0063,0.02615 0.012,0.01478 -0.01274,0.03466 -0.134165,0.0555 -0.264545,0.04276 -0.42649,0.04172 -0.167172,-0.0011 -0.334234,1.2e-4 -0.501414,-7.31e-4 -0.181429,0.0019 -0.363017,-3.62e-4 -0.54446,2.42e-4 -0.169953,-3.62e-4 -0.339947,1.21e-4 -0.509903,5.02e-4 -0.163251,-0.0011 -0.326389,4.6e-5 -0.489644,-7.31e-4 -0.157831,0.0017 -0.315809,-3.62e-4 -0.473658,8.67e-4 -0.155448,5.94e-4 -0.310947,0.002 -0.466347,-9.58e-4 -0.173065,-0.0013 -0.34823,-0.0116 -0.511013,-0.04553 -0.206354,-0.0623 -0.431203,-0.117744 -0.663258,-0.140399 -0.310958,-0.02325 -0.607491,-0.07156 -0.891939,-0.146202 -0.181657,-0.03944 -0.369981,-0.0653 -0.552277,-0.10322 -0.0534,-0.01116 -0.205745,-0.05412 -0.156963,-0.03775 1.833731,0.615724 2.17224,0.786535 1.576637,0.497813 -1.761628,-0.538335 -3.810694,-1.331667 -0.478722,0.03006 -0.592806,-0.190268 -1.185612,-0.380538 -1.778417,-0.570807 0.09432,0.01 0.103754,-2.41e-4 0.156081,0.0497 0.02511,0.02396 0.02439,0.05663 0.05969,0.07624 0.02442,0.01363 0.06735,0.0087 0.101022,0.01305 0.0087,0.0062 0.01733,0.01261 0.026,0.01883 0.109823,0.07755 0.237199,0.145518 0.320064,0.232198 0.194915,0.120295 0.333909,0.07659 0.382238,0.250482 6.235198,1.954981 -0.947531,-0.337694 0.435383,0.106278 0.646801,0.20765 1.294216,0.414708 1.941326,0.62206 0.16344,0.04833 0.360011,0.01934 0.529795,0.06829 0.697136,0.174092 0.213247,0.05511 -1.683446,-0.548089 -0.02895,-0.0093 0.05189,0.02354 0.08076,0.03283 0.622145,0.200154 1.381397,0.617456 2.218214,0.645514 0.988924,-0.0016 1.159599,0.159366 -1.196328,-0.69716 -0.11181,-0.0075 -0.259106,-0.0043 -0.380287,-0.02121 -0.06897,-0.0096 -0.265054,-0.05447 -0.204273,-0.03402 4.437252,1.492819 -0.125431,-0.08332 -0.293307,-0.124412 -0.735805,-0.201841 0.0128,0.0017 1.645792,0.538316 0.03571,0.01174 -0.0801,-0.01479 -0.113476,-0.02847 -0.107265,-0.04399 -0.173464,-0.117135 -0.268154,-0.168029 -0.104576,-0.133282 -0.356138,-0.170317 -0.518988,-0.281329 -0.0225,0.0045 -0.04959,0.02211 -0.0675,0.01333 -0.01905,-0.0093 0.03083,-0.03482 0.0089,-0.04198 -2.737916,-0.897533 -2.310204,-0.879851 -1.816943,-0.506808 1.500801,0.5238 1.293623,0.678798 2.31862,0.662193 0.183028,-1.17e-4 0.366039,-3.62e-4 0.549045,2.41e-4 0.15792,-3.62e-4 0.315828,3.62e-4 0.473751,-1.2e-4 0.153113,7.29e-4 0.306257,-3.63e-4 0.459373,1.2e-4 0.157962,-3.62e-4 0.315909,3.62e-4 0.473871,-1.2e-4 0.153204,8.67e-4 0.306433,-2.42e-4 0.45964,5.93e-4 0.155798,-8.2e-5 0.311565,0.0014 0.467368,5.92e-4 0.140106,-3.6e-4 0.282573,-0.0011 0.41808,-0.02318 0.177684,-0.02798 0.341882,-0.06808 0.495729,-0.125296 0.166388,-0.03977 0.345213,-0.02305 0.523609,-0.0264 0.234566,-0.0013 0.469265,-0.002 0.703775,0.0013 0.901609,0.01957 1.760479,0.353702 -1.220244,-0.535647 0.08738,0.04995 0.309583,3.61e-4 0.117467,0.08274 -0.122523,0.08106 -0.122758,0.160262 -0.191429,0.251655 -0.07912,0.08371 -0.220229,0.102596 -0.335187,0.172469 -0.08819,0.03441 -0.227311,0.0017 -0.334356,0.01203 -0.186735,5.93e-4 -0.373509,8.67e-4 -0.56022,-2.4e-4 -0.165835,8.67e-4 -0.331659,-3e-6 -0.49749,0.0011 -0.174477,-0.0016 -0.348995,-5.01e-4 -0.523492,-5.01e-4 -0.182221,7.29e-4 -0.36448,-0.0011 -0.546723,-5.02e-4 -0.1768,0.0011 -0.353532,-5.03e-4 -0.530341,5.02e-4 -0.176761,-3.63e-4 -0.353517,7.29e-4 -0.530276,7.29e-4 -0.155814,9.1e-5 -0.312437,0.0012 -0.46749,-0.0083 -0.161585,-0.0096 -0.304221,-0.04159 -0.454223,-0.07588 4.015263,1.318132 0.469466,0.138413 -0.250232,-0.07359 -0.08038,-0.02367 -0.21846,0.01879 -0.305072,0.01087 -0.171037,0.0033 -0.313756,-0.03992 -0.471183,-0.07165 -0.07359,-0.01679 -0.290578,-0.0709 -0.222272,-0.04825 4.026474,1.333931 0.460119,0.06387 -0.31712,-0.06836 0.551803,0.179536 2.201558,0.72345 1.649441,0.54421 -0.559021,-0.181483 -1.467622,-0.634134 -2.302426,-0.697039 -0.187589,-0.0059 -0.349499,-0.05554 -0.529925,-0.0834 -0.390469,-0.07077 -0.754165,-0.169904 -1.125499,-0.266662 0,0 1.693091,0.738217 1.693091,0.738217 z"
       inkscape:connector-curvature="0" />
    <path
       style="opacity:1;fill:#ffffff;fill-opacity:1;stroke:none;stroke-width:3.17940497;stroke-linejoin:round;stroke-miterlimit:4;stroke-dasharray:none;stroke-dashoffset:0;stroke-opacity:1;paint-order:normal"
       id="path14931"
       d="m 49.999903,32.617713 c 0.181393,0.309796 0.34203,0.686457 0.51255,1.036098 0.057,0.238025 0.178423,0.253331 0.241398,0.437317 0.04616,0.179414 0.131372,0.295238 0.204788,0.38268 0.01426,0.02553 0.03084,0.04366 0.04278,0.07657 0.02143,0.05904 0.02455,0.185044 0.05495,0.198268 0.01,0.0043 0.0177,-0.04275 0.02739,-0.03498 0.01783,0.01431 0.06279,0.141824 0.07695,0.179731 0.01275,0.03976 0.02199,0.09002 0.03824,0.119269 0.01243,0.02236 0.03083,0.0078 0.04372,0.02818 0.05801,0.09198 0.08405,0.276143 0.136186,0.38508 0.07257,0.137948 0.134041,0.318262 0.217032,0.427077 0.03932,0.198745 0.08491,0.295937 0.153421,0.418817 0.03754,0.135631 0.04883,0.248364 0.07749,0.358865 0.06022,0.0037 0.04281,0.288608 0.07969,0.33542 0.0078,0.0099 0.01565,-0.01934 0.02346,-0.02899 0.01433,0.03516 0.02866,0.07033 0.04298,0.105497 0.07277,0.16278 0.07208,0.444267 0.131542,0.626668 0.06413,0.184425 0.08733,0.42609 0.14953,0.625356 0.07473,0.190418 0.09835,0.457285 0.110548,0.721196 0.03446,0.203552 0.06793,0.416843 0.107459,0.618543 0.04326,0.301961 0.119651,0.536435 0.152004,0.856721 0.0028,0.397174 0.0508,0.661067 0.103598,1.012722 0.06402,0.40082 0.04556,0.845219 0.07417,1.264994 0.06709,0.260826 0.114781,0.516376 0.128584,0.846608 0.0073,0.231399 0.0077,0.46546 0.0042,0.697579 -0.0022,0.220848 -0.0042,0.441823 -0.0025,0.662763 -2.98e-4,0.224351 -0.0027,0.449101 -9.96e-4,0.673468 -0.0012,0.228494 7.75e-4,0.456697 -6.08e-4,0.68517 -4.12e-4,0.206981 0.0018,0.414107 8.85e-4,0.621064 -2.98e-4,0.221491 -0.0017,0.443021 4.12e-4,0.664496 -0.008,0.208772 -0.003,0.368493 0.02858,0.555054 0.05822,0.151013 0.07446,0.35153 0.09764,0.552026 0.01614,0.231506 0.01357,0.466008 0.0157,0.699956 -9.8e-5,0.21727 -7.4e-5,0.434596 -0.0015,0.651928 7.74e-4,0.202697 0.0014,0.405463 6.08e-4,0.608187 -0.0055,0.219617 0.04886,0.405476 0.09063,0.592841 0.03005,0.250568 0.06893,0.471101 0.07236,0.737997 -0.0059,0.216191 -0.01086,0.433067 -0.01785,0.649243 -0.0016,0.204292 -0.0044,0.408236 -0.0029,0.612576 -4.12e-4,0.210238 -0.0018,0.420531 -7.19e-4,0.630727 -7.75e-4,0.213969 0.0014,0.428048 -6.09e-4,0.641951 0.0023,0.186851 -1.3e-5,0.37347 0.0011,0.560329 2.98e-4,0.214966 -0.0018,0.430033 -7.75e-4,0.64503 0.0011,0.181393 -1.98e-4,0.362535 0.0012,0.543965 -0.0012,0.22697 -0.002,0.454012 -6.08e-4,0.681024 -4.8e-5,0.168085 -8.86e-4,0.335931 8.85e-4,0.504013 -0.01524,0.254767 0.02054,0.192492 0.06801,0.364384 0.0013,0.01543 0.05392,0.345144 0.05471,0.343464 0.04268,-0.09077 -0.04303,-0.03872 0.02225,-0.06482 0.05717,0.08162 0.124561,0.218987 0.189029,0.318359 0.03633,0.19434 0.0979,0.08291 0.166175,0.06827 0.07125,-0.02768 0.142511,-0.02135 0.214072,-0.02647 0.06679,-0.0047 0.133547,-0.0013 0.200366,-0.0034 0.07704,0.0028 0.154121,0.0024 0.231179,0.0013 0.07349,7.94e-4 0.146975,-0.0013 0.220453,0.0021 0.04585,-0.046 0.123044,0.05964 0.165559,-0.0013 0.01209,-0.01733 0.03467,-0.109307 0.02264,-0.09173 -0.274852,0.401574 -0.543416,0.833062 -0.815126,1.249593 0.299834,-0.654791 0.01658,-0.04505 0.919541,-1.437243 0.268087,-0.413335 -1.068356,1.671074 -0.804922,1.236953 0.290748,-0.479131 0.58764,-0.931804 0.886897,-1.372042 0.13811,-0.203173 -0.02435,0.19354 0.08238,-0.09166 -0.270203,0.415663 -1.073167,1.696173 -0.810607,1.24699 0.286929,-0.490869 0.588041,-0.920068 0.883777,-1.372169 0.738067,-1.128303 -2.742883,4.232971 0.15059,-0.191937 0.05905,0.0071 0.03609,0.03696 0.07116,-0.07577 -0.271694,0.417677 -0.543099,0.836697 -0.815081,1.253035 -0.0081,0.01233 0.03861,-0.03231 0.06566,-0.206409 0.317187,-0.61848 0.643352,-1.044739 1.005945,-1.588998 0.260786,-0.391443 -0.981542,1.767327 -0.78356,1.168625 0.07743,-0.139239 0.141731,-0.310965 0.21632,-0.461801 0.0624,-0.116411 0.101223,-0.274323 0.1595,-0.40328 0.04886,-0.09908 0.09194,-0.210236 0.112952,-0.366017 0.01471,-0.151514 0.01611,-0.311407 0.01453,-0.46741 7.75e-4,-0.164621 -0.0012,-0.329216 -8.85e-4,-0.493776 4.9e-5,-0.170252 1.98e-4,-0.340421 -4.12e-4,-0.510691 0.0089,-0.231209 -0.0144,-0.08368 -0.07301,-0.379659 -0.03371,-0.195823 -0.04053,-0.386376 -0.08947,-0.541848 -0.07538,-0.0889 -0.107413,-0.267094 -0.123477,-0.47054 -0.05166,-0.115065 -0.07769,-0.299202 -0.105368,-0.460132 -0.01577,-0.240056 -0.08811,-0.323704 -0.131099,-0.540506 -0.02859,-0.221208 -0.0421,-0.435531 -0.09613,-0.627134 -0.0461,-0.268087 -0.0889,-0.534639 -0.137371,-0.801484 -0.03516,-0.394764 -0.09158,-0.764289 -0.143335,-1.143312 -0.0639,-0.399381 -0.07522,-0.842439 -0.08445,-1.27136 0.01146,-0.362577 -0.04084,-0.672754 -0.08451,-1.005568 -0.03907,-0.275145 -0.0523,-0.569772 -0.06082,-0.86133 -0.04685,-0.187245 -0.101631,-0.34703 -0.133832,-0.563451 0,0 0.864343,-1.275614 0.864343,-1.275614 v 0 c 0.02755,0.250946 0.111856,0.385254 0.145458,0.629668 0.0045,0.270637 0.01172,0.545079 0.04622,0.802151 0.0446,0.35524 0.111292,0.686398 0.09548,1.072642 0.007,0.404786 0.01275,0.822957 0.07078,1.202663 0.05051,0.371481 0.112671,0.725908 0.140368,1.117727 0.04574,0.255392 0.09292,0.501293 0.131875,0.762384 0.05103,0.209127 0.08761,0.412147 0.10192,0.657765 0.0384,0.207441 0.132884,0.299376 0.1359,0.551979 0.03069,0.196712 0.07189,0.363188 0.120551,0.53082 -0.0082,0.167383 0.04909,0.2394 0.09274,0.334126 0.05932,0.181372 0.07187,0.3693 0.100058,0.593114 0.03445,0.174321 0.116337,0.259167 0.09761,0.489598 -4.88e-4,0.170085 -4.12e-4,0.340077 3.2e-5,0.510141 7.75e-4,0.164534 -4.12e-4,0.329155 0.0012,0.493718 -0.0014,0.176413 0.002,0.352332 -0.0032,0.528092 -0.01357,0.196906 -0.03168,0.386527 -0.08964,0.517909 -0.06129,0.136279 -0.117206,0.233656 -0.159316,0.412337 -0.07495,0.159493 -0.153085,0.282268 -0.211629,0.479129 -0.04913,0.0407 -2.202988,3.49124 -0.100767,0.193947 0.145905,-0.228849 -0.263466,0.401598 -0.124114,0.21173 -0.07925,-0.0093 -0.01174,0.117465 -0.06598,0.204957 -1.157782,1.86754 -0.541231,1.067599 -0.950218,1.419916 0.268434,-0.424664 1.065385,-1.734172 0.805299,-1.273995 -0.282518,0.499869 -0.581176,0.931529 -0.872676,1.393208 -0.728554,1.15389 2.723005,-4.306805 -0.147851,0.225155 -0.02964,0.01767 -0.112683,0.116943 -0.08667,0.07507 0.264682,-0.426141 1.044748,-1.758858 0.796719,-1.266513 -0.273656,0.543211 -0.627028,0.792022 -0.873961,1.419844 -0.213869,0.543756 1.138333,-1.658892 0.764239,-1.197134 -0.67641,1.065541 -0.611107,1.414876 -1.085612,1.37182 -0.07417,0.0033 -0.148343,0.0013 -0.222517,0.0019 -0.07739,-0.0011 -0.1548,-0.0019 -0.232177,0.0011 -0.06582,-0.0019 -0.131533,7.94e-4 -0.197328,0.0048 -0.07077,0.0037 -0.141143,0.02761 -0.211858,0.03652 -0.07653,0.01124 -0.149861,-0.029 -0.200819,-0.199501 -0.05639,-0.09437 -0.1093,-0.227846 -0.171154,-0.244062 -0.0719,-0.08358 -0.09253,-0.23957 -0.112571,-0.429488 -0.06463,-0.148839 -0.115382,-0.271854 -0.102615,-0.52043 0.0017,-0.168913 9.96e-4,-0.33759 8.85e-4,-0.506505 0.0014,-0.226457 6.09e-4,-0.452943 -6.08e-4,-0.679355 0.0013,-0.182496 9.9e-5,-0.364707 0.0012,-0.547166 9.96e-4,-0.214286 -0.0011,-0.428636 -7.75e-4,-0.642887 0.0011,-0.187878 -0.0011,-0.375516 0.0011,-0.563391 -0.002,-0.213278 2.97e-4,-0.426746 -7.2e-4,-0.640093 9.96e-4,-0.209966 -6.08e-4,-0.420008 -7.74e-4,-0.630018 0.002,-0.207936 -8.85e-4,-0.415851 0.004,-0.623557 -8.86e-4,-0.214881 0.0075,-0.432173 0.0172,-0.645123 0.0083,-0.23401 -0.02389,-0.387773 -0.04748,-0.611497 -0.04611,-0.224996 -0.112517,-0.45561 -0.114639,-0.713256 -7.74e-4,-0.203631 -9.2e-5,-0.407315 0.0011,-0.610904 -0.0012,-0.21636 -2.97e-4,-0.432641 6.6e-5,-0.64892 0.0017,-0.211465 -0.0011,-0.422875 -0.0046,-0.634124 -0.01889,-0.196466 -0.03337,-0.363238 -0.08664,-0.518353 -0.0423,-0.228992 -0.06422,-0.3907 -0.05207,-0.653113 0.002,-0.221824 7.2e-4,-0.443693 4.12e-4,-0.665531 -8.85e-4,-0.207756 0.0013,-0.415681 8.86e-4,-0.623464 -0.0014,-0.227915 7.19e-4,-0.45557 -6.09e-4,-0.683509 0.0017,-0.224197 -7.19e-4,-0.448736 -6.08e-4,-0.672928 0.0025,-0.222821 0.0013,-0.445709 0.0025,-0.668554 8.85e-4,-0.224951 0.0083,-0.449863 0.0038,-0.675113 -0.0075,-0.333111 -0.05876,-0.541084 -0.120393,-0.82059 -0.03763,-0.404892 -0.01398,-0.831368 -0.0671,-1.228934 -0.0489,-0.351919 -0.123533,-0.642162 -0.111697,-1.041339 -0.02289,-0.310814 -0.105501,-0.51271 -0.145176,-0.799682 -0.04154,-0.236929 -0.07871,-0.475004 -0.124205,-0.706199 -0.003,-0.219292 -0.01605,-0.424437 -0.07733,-0.585309 -0.06529,-0.204557 -0.09349,-0.429702 -0.154607,-0.631071 -0.04922,-0.184652 -0.06538,-0.403643 -0.119154,-0.573706 -0.07875,-0.134454 -0.102928,-0.293497 -0.16003,-0.468464 -0.03598,-0.119303 -0.05255,-0.247237 -0.06663,-0.304562 -0.04892,-0.129569 -0.118509,-0.204226 -0.144271,-0.382764 -0.07856,-0.145196 -0.150503,-0.311439 -0.224055,-0.473165 -0.07295,-0.185156 -0.13478,-0.387647 -0.221411,-0.533257 -0.06015,-0.127969 -0.131889,-0.211408 -0.185048,-0.36185 -0.0798,-0.116967 -0.165706,-0.236873 -0.221657,-0.435806 -0.08826,-0.100353 -0.163301,-0.253267 -0.23266,-0.430072 -0.169568,-0.350443 -0.325021,-0.745416 -0.511556,-1.033603 0,0 0.829505,-1.400188 0.829505,-1.400188 z"
       inkscape:connector-curvature="0" />
    <path
       style="opacity:1;fill:#ffffff;fill-opacity:1;stroke:none;stroke-width:5.19400024;stroke-linejoin:round;stroke-miterlimit:4;stroke-dasharray:none;stroke-dashoffset:0;stroke-opacity:1;paint-order:normal"
       id="path14933"
       d="m 17.621341,35.883862 c -0.03139,1.534361 -0.03333,3.06908 -0.03827,4.603692 -0.0035,2.020504 -0.0067,4.040973 0.0069,6.061445 0.02126,1.252321 -0.0542,2.507737 0.121286,3.750784 0.04348,0.735356 0.294776,1.423953 0.474568,2.130846 0.06102,0.183186 0.108629,0.363754 0.142839,0.553325 0,0 -2.318274,1.228971 -2.318274,1.228971 v 0 c -0.02652,-0.184512 -0.07073,-0.361428 -0.120257,-0.541475 -0.173299,-0.719447 -0.432094,-1.41641 -0.472593,-2.162823 -0.172486,-1.263414 -0.08478,-2.532758 -0.09396,-3.804843 0.01354,-2.022808 0.01046,-4.045612 0.0069,-6.068449 -0.0049,-1.521611 -0.0067,-3.043335 -0.03827,-4.564687 0,0 2.329197,-1.186786 2.329197,-1.186786 z"
       inkscape:connector-curvature="0" />
    <path
       style="opacity:1;fill:#ffffff;fill-opacity:1;stroke:none;stroke-width:5.19400024;stroke-linejoin:round;stroke-miterlimit:4;stroke-dasharray:none;stroke-dashoffset:0;stroke-opacity:1;paint-order:normal"
       id="path14944"
       d="m 42.582657,31.055219 c 0.220443,-0.145687 0.477811,-0.214265 0.712864,-0.319212 0.17625,-0.119327 0.08768,-0.07595 0.260988,-0.139337 1.207521,-0.542978 -4.823759,2.692103 0.476954,-0.216379 0.0578,-0.06215 0.208568,-0.0067 0.26997,-0.04094 0.02254,-0.01257 0.06473,-0.0774 0.04212,-0.06496 -0.516339,0.284202 -1.020691,0.589655 -1.531037,0.884481 0.588118,-0.516716 1.321416,-0.811594 2.02189,-1.129284 0.143729,-0.03511 0.276802,-0.134933 0.420499,-0.205825 0.767549,-0.01484 0.831501,-0.332901 -1.292936,0.845981 -0.01463,0.0081 0.03156,-0.01164 0.04593,-0.02021 0.556199,-0.331464 1.110295,-0.666451 1.665443,-0.999675 -3.447351,2.08843 -0.422515,0.01884 0.434396,-0.11593 0.232529,0.01405 -0.0104,0.02556 0.156242,-0.05676 0.112019,-0.05534 0.187317,0.09258 0.274021,-0.03071 -0.111046,0.06057 0.307266,-0.153024 0.232886,-0.110119 -0.502888,0.290084 -2.001949,1.175591 -1.513552,0.861721 0.855822,-0.549992 1.107692,-1.004993 1.837375,-0.963541 -0.0082,0.07799 0.285483,-0.129016 0.217208,-0.09043 -3.874254,2.189443 -0.06645,-0.0096 0.224562,-0.09931 0.150244,-0.03582 0.31161,-0.04328 0.466728,-0.04111 0.178294,0.03337 0.287004,-0.06934 0.456882,-0.04496 0.201597,0.05189 0.300556,-0.06284 0.471144,-0.158091 0.146089,-0.05513 0.330848,-0.05802 0.4919,-0.06315 0.153389,-0.0028 0.306882,-0.0016 0.460324,1.3e-4 0.151707,-5.29e-4 0.303351,0.0019 0.455055,5.29e-4 0.141382,2.65e-4 0.28276,2.62e-4 0.424143,2.65e-4 0.181311,-0.01675 0.285355,0.0011 0.419758,0.129135 0.0673,0.108244 0.142431,0.117904 0.260607,0.141023 0.214874,-0.04564 0.304226,0.105008 0.462071,0.215101 0.155713,0.05531 0.18968,0.175474 0.226277,0.327255 0,0 -1.644854,0.879269 -1.644854,0.879269 v 0 c -0.01945,-0.12898 -0.03023,-0.138571 -0.154186,-0.213781 -0.138459,-0.114374 -0.253296,-0.12922 -0.428254,-0.153593 -0.119991,-0.0437 -0.222107,-0.103603 -0.30049,-0.206733 -0.09735,-0.06047 -0.236022,-0.0061 -0.347565,-0.02304 -0.141674,3.7e-5 -0.283339,-8.2e-5 -0.425016,6e-6 -0.15131,-0.0019 -0.302572,1.21e-4 -0.453885,-0.0019 -0.151111,5.3e-4 -0.302347,-0.0024 -0.453138,0.01016 -0.155742,0.0154 -0.309481,0.04129 -0.44455,0.1249 -0.178898,0.08759 -0.325967,0.114207 -0.526212,0.0891 -0.149682,0.03183 -0.295756,0.05749 -0.452353,0.04785 -0.146801,0.01275 -0.294454,0.02471 -0.429643,0.08925 -0.507921,0.231399 1.937872,-1.107988 1.44522,-0.845643 -1.140407,0.607285 -1.126522,0.910508 -1.920108,0.994944 -0.04266,0.01106 -0.161739,0.06867 -0.123909,0.04607 0.500967,-0.299257 1.993289,-1.213509 1.506603,-0.891546 -0.683836,0.45239 -1.216347,0.819312 -1.907095,1.099389 -0.163274,-0.01474 -0.292931,0.04085 -0.453631,0.06137 -0.07127,0.0146 -0.368324,0.152196 -0.18411,0.04142 3.391318,-2.039294 0.480293,-0.212952 -0.20882,0.117875 0.49789,-0.302038 0.986798,-0.619411 1.493673,-0.906116 0.02281,-0.01291 -0.0016,0.0614 -0.02408,0.07486 -1.090816,0.65246 -1.167082,0.765326 -1.895768,1.003276 -0.139801,0.07131 -0.269873,0.153051 -0.423744,0.187976 -1.206156,0.421241 1.781212,-1.327912 1.165572,-0.710411 -1.130155,0.670097 -1.17257,0.865568 -1.982989,1.0469 3.203832,-1.87662 0.561888,-0.273939 -0.459502,0.235667 -0.31746,0.163216 -0.653335,0.29078 -0.972716,0.450633 0,0 1.454827,-1.144021 1.454827,-1.144021 z"
       inkscape:connector-curvature="0" />
    <path
       style="opacity:1;fill:#ffffff;fill-opacity:1;stroke:none;stroke-width:5.19400024;stroke-linejoin:round;stroke-miterlimit:4;stroke-dasharray:none;stroke-dashoffset:0;stroke-opacity:1;paint-order:normal"
       id="path14946"
       d="m 42.57242,32.451761 c 0.274352,-0.285228 0.560308,-0.556368 0.864656,-0.809177 1.040289,-0.637567 3.472259,-1.912959 0.275833,-0.14782 -0.05288,0.0292 0.08857,-0.08367 0.140653,-0.114285 0.556985,-0.327361 1.1182,-0.647469 1.677302,-0.971206 0.163417,-0.05825 0.333568,-0.07139 0.50528,-0.06893 0.01397,-0.02238 0.02019,-0.05215 0.04189,-0.06715 0.09378,-0.06479 0.41974,-0.17386 0.321916,-0.115353 -0.491887,0.294201 -1.984084,1.147517 -1.499611,0.841261 0.560075,-0.354047 1.151125,-0.656537 1.726687,-0.984805 0.341254,-0.107164 0.692764,-0.175649 1.049898,-0.193784 0.26819,0.0066 0.51059,-0.08842 0.750893,-0.204165 0.865698,-0.199906 0.910608,-0.458121 -1.246738,1.011986 -0.175434,-7.94e-4 -0.351171,-0.0011 -0.526544,0.0045 -0.132927,2.65e-4 -0.26601,0.0043 -0.398979,0.0013 -0.131744,0.0027 -0.263408,-1.3e-4 -0.395152,0.0013 -0.152115,2.65e-4 -0.304258,-0.0021 -0.456383,-0.0011 -0.07827,0.02641 -0.218067,-0.04276 -0.285303,2.64e-4 -0.0213,0.01363 -0.05318,0.08127 -0.03096,0.06922 0.515699,-0.279723 1.016394,-0.586264 1.524593,-0.879395 -0.558279,0.335634 -1.115571,0.672917 -1.674837,1.006901 -0.128211,0.07657 -0.294658,0.02974 -0.379661,0.137228 5.125643,-2.946124 -3.847237,2.244543 1.297649,-0.70032 -0.495041,0.546121 -1.214133,0.863597 -1.884511,1.175377 0.02273,-0.168172 -0.210301,0.08155 -0.160821,0.05414 0.515427,-0.285501 2.047602,-1.166839 1.530487,-0.884409 -0.620167,0.338717 -1.2242,0.71378 -1.845259,1.054145 -0.589463,0.185462 -1.454576,0.771401 1.312531,-0.785992 0.03992,-0.02246 -0.07058,0.06116 -0.09323,0.10098 -0.01164,0.02461 -0.01125,0.06037 -0.03493,0.07381 -0.567066,0.322067 -1.145212,0.624401 -1.723885,0.925118 -0.03737,0.01942 -0.16229,0.03438 -0.125627,0.01365 0.51735,-0.29264 2.020451,-1.238105 1.562465,-0.859242 -0.497226,0.411324 -1.121421,0.638823 -1.682131,0.958233 0.510897,-0.293312 1.021803,-0.58661 1.532692,-0.879938 0.01437,-0.0083 -0.02886,0.0163 -0.04313,0.02471 -0.548138,0.322969 -1.088419,0.659633 -1.644105,0.969436 -0.03233,0.01802 -0.162674,0.02106 -0.212011,0.03527 -0.156403,0.04943 -0.14964,-0.252108 -0.145582,-0.345686 1.769738,3.259699 1.076349,-0.851984 1.723787,-1.002437 0.06282,-0.0146 0.133996,0.01635 0.193278,-0.009 0.02706,-0.01159 0.08158,-0.08268 0.05584,-0.06842 -0.516691,0.286406 -1.022614,0.591823 -1.533924,0.887733 1.219062,-2.11808 1.418362,-0.605232 2.107835,-1.145606 0.17308,-0.114515 0.370784,-0.143402 0.562144,-0.214498 0.176768,-0.01611 0.366448,0.03315 0.521851,-0.05846 0.212138,-0.121938 0.438256,-0.153688 0.676185,-0.194823 0.258728,-0.01693 0.517734,-0.01812 0.776968,-0.01738 0.209976,0.006 0.399565,-0.0968 0.591912,-0.189907 0.156372,-0.0813 0.3576,-0.07598 0.532458,-0.07653 0.135107,-0.0084 0.270402,-0.0024 0.40567,-0.003 0.158581,0.0011 0.31722,0.0039 0.475803,0.0019 0.191283,-0.01344 0.294351,-0.01762 0.403831,0.15232 0.05665,0.08302 0.03319,0.18796 0.0701,0.275876 0,0 -1.619768,0.917993 -1.619768,0.917993 v 0 c -0.04564,-0.09197 -0.05486,-0.153426 -0.05946,-0.251637 -0.07027,-5.29e-4 -0.206062,7.94e-4 -0.301376,-1.98e-4 -0.159673,-0.0024 -0.319413,7.4e-5 -0.479102,-5.3e-4 -0.131345,-0.0021 -0.262483,0.0013 -0.393716,0.007 -0.173188,0.01659 -0.338923,0.04489 -0.494088,0.127807 -0.212228,0.07398 -0.399608,0.166645 -0.631928,0.12967 -0.254286,0.003 -0.510247,0.0033 -0.761786,0.04515 -0.231561,0.04107 -0.439423,0.140451 -0.661794,0.212482 -0.174316,0.01651 -0.357942,0.0045 -0.52396,0.06583 -0.191029,0.05565 -0.364318,0.143171 -0.542306,0.231745 -0.08768,0.02466 -0.178096,0.04591 -0.263652,0.07759 -0.03254,0.01204 -0.125992,0.0575 -0.09621,0.03969 1.280406,-0.765418 2.020787,-1.150638 1.426959,-0.840507 -0.546158,0.328972 -1.086102,0.668499 -1.638477,0.986922 -0.522148,0.300996 -2.486483,-0.40705 1.192178,-0.81853 -0.02,-0.0068 -0.03976,-0.02633 -0.06002,-0.02035 -0.02053,0.0061 0.01035,0.07832 -0.0055,0.06395 -0.111207,-0.100793 -0.08809,-0.08489 -0.024,-0.101616 0.11815,-0.02913 0.285435,-0.128992 0.183359,-0.06816 -3.844428,2.291065 -0.113438,0.02217 0.155755,-0.106632 -0.503106,0.290912 -2.063028,1.049203 -1.509313,0.872733 0.607089,-0.193481 1.113329,-0.620093 1.672889,-0.924864 0.03249,-0.0177 0.140565,-0.04045 0.108947,-0.02125 -1.466704,0.891321 -2.068216,0.84269 -1.423231,0.881295 0.03079,-0.05335 0.01431,-0.139271 0.06615,-0.172566 0.775766,-0.498306 1.205519,-0.755436 1.870083,-1.065422 0.05007,-0.02365 0.198424,-0.09786 0.150966,-0.06933 -0.492998,0.296336 -1.967976,1.191371 -1.484717,0.879409 1.782619,-1.150742 1.063064,-0.746951 1.81348,-1.034468 0.859568,-0.454168 -1.698389,1.519687 -1.292669,0.705831 0.546679,-0.327779 1.091996,-0.657839 1.640036,-0.983337 0.488471,-0.290118 -0.955469,0.61554 -1.445197,0.903531 -0.03566,0.02098 0.006,-0.09509 0.04096,-0.117163 0.538644,-0.339648 1.091255,-0.656624 1.636882,-0.984938 0.606295,-0.06925 1.901251,-1.242459 -1.105284,0.756378 1.324568,-0.829379 1.111576,-1.047665 2.006306,-1.018389 0.153009,0.0013 0.306036,-0.0013 0.459034,-0.0011 0.130619,0.0013 0.26116,-0.0013 0.391782,7.94e-4 0.133202,-0.0033 0.266451,-0.0011 0.399637,-0.0044 0.177467,0.0011 0.354936,-0.0044 0.532117,0.01111 -1.26805,1.015384 -0.914921,0.93985 -1.724647,1.218753 -0.257133,0.08571 -0.50174,0.170151 -0.778902,0.155358 -0.344741,0.04144 -0.692017,0.100568 -1.008562,0.250267 0.483515,-0.282364 1.951921,-1.096354 1.450544,-0.847085 -0.586968,0.291825 -1.358046,0.927666 -2.09405,1.115785 -0.159579,0.01709 -0.316469,0.04968 -0.457462,0.130754 0.500562,-0.294346 0.999101,-0.592161 1.501687,-0.883039 0.0522,-0.03021 -0.09037,0.08104 -0.142192,0.111887 -0.552821,0.329055 -1.12019,0.633971 -1.664777,0.97648 -0.45421,0.28567 2.13179,-1.203794 1.388295,-0.814782 -0.337018,0.203385 -0.601239,0.508399 -0.880692,0.782365 0,0 -1.708941,0.707866 -1.708941,0.707866 z"
       inkscape:connector-curvature="0" />
    <path
       style="opacity:1;fill:#ffffff;fill-opacity:1;stroke:none;stroke-width:4.51860189;stroke-linejoin:round;stroke-miterlimit:4;stroke-dasharray:none;stroke-dashoffset:0;stroke-opacity:1;paint-order:normal"
       id="path14948"
       d="m 50.959417,53.630066 c 0.01544,0.363085 -0.03582,0.739378 0.0175,1.097968 0.04814,0.183922 0.108819,0.358783 0.155929,0.543872 0.02386,0.133482 0.03157,0.271912 0.0338,0.408845 -0.0014,0.130998 0.0753,0.257209 0.128056,0.367927 0.09564,7.93e-4 0.100032,0.271626 0.09444,0.376711 -0.01103,0.15921 0.103548,0.236836 0.148559,0.383569 0.03679,0.08373 0.0247,0.188854 0.07353,0.260942 0.09403,0.07105 0.142664,0.195768 0.175222,0.331338 0.0045,0.251524 -0.01023,0.192985 0.09354,0.356404 0.06242,0.138949 0.0876,0.269862 0.09659,0.429022 0.0028,0.09634 -0.0051,0.194279 0.08039,0.228076 0.09186,0.132975 0.118599,0.301144 0.12636,0.474938 -0.01784,0.16288 0.03991,0.162669 0.122137,0.268933 0.04175,0.127434 0.09369,0.209235 0.167531,0.308274 0.08579,0.0828 0.09308,0.08567 0.19413,0.153459 0.127189,0.18035 0.05693,0.101832 0.203912,0.140131 0.09162,0.0024 0.184962,-0.0013 0.277367,-1.62e-4 0.101445,-0.0038 0.202827,-0.0011 0.304285,-0.0029 0.101069,0.0019 0.20215,-0.0016 0.30322,0.0011 0.08969,-0.0034 0.179364,4e-5 0.269039,-7.94e-4 0.08965,-7.94e-4 0.179229,5.29e-4 0.268886,-7.94e-4 -2.876211,2.12742 0.08585,-0.201977 0.322755,-0.2638 0.09278,-0.01849 0.187475,-0.007 0.281497,-0.0063 -0.01207,0.125523 0.14529,-0.08415 0.110486,-0.05888 -0.391377,0.28421 -0.774482,0.587912 -1.163955,0.876659 -0.01969,0.01458 0.03457,-0.03881 0.05407,-0.05381 0.419027,-0.322397 0.83907,-0.642527 1.261081,-0.958054 0.385106,-0.287935 -0.766909,0.583513 -1.150362,0.875271 0.385834,-0.649208 0.970064,-1.022379 1.551155,-0.958593 0.0187,-0.01749 0.07613,-0.06711 0.05609,-0.05245 -0.388916,0.284366 -0.775931,0.573252 -1.163059,0.861846 -0.02941,0.02193 0.05294,-0.05592 0.0821,-0.07843 1.199342,-0.925819 0.80279,-0.738272 1.299686,-0.968303 -2.583813,1.96505 -0.482696,0.358978 0.114157,-0.06026 0.04528,-0.03181 0.180032,0.0199 0.230466,0.02379 0.02013,0.0021 0.0424,0.01886 0.06037,0.0067 0.0161,-0.01087 0.0119,-0.04671 0.02434,-0.06403 0.02902,-0.04039 0.144441,-0.114933 0.1079,-0.08716 -1.161458,0.882677 -1.435248,1.318427 -1.113533,0.820664 3.997826,-3.010215 -0.473684,0.495257 0.33227,-0.222716 0.392726,-0.653746 0.957431,-1.068168 1.545952,-0.982253 0.0088,0.0024 0.02119,0.01712 0.02652,0.0075 0.290277,-0.526164 -1.634843,1.409853 -1.031051,0.68226 0.416977,-0.325099 0.833954,-0.650201 1.250931,-0.9753 0.0186,-0.0016 0.07187,-0.01691 0.05582,-0.0044 -0.387184,0.301512 -1.555179,1.190541 -1.174275,0.875377 0.417682,-0.345596 0.856412,-0.64466 1.284717,-0.966758 0.021,-0.0158 0.08416,-0.06279 0.0632,-0.04691 -0.382988,0.290066 -0.766186,0.579652 -1.149279,0.869479 0.362109,-0.545018 0.426,-0.365545 1.371832,-0.981046 0.02018,-0.01315 0.04804,0.01392 0.06751,-0.0011 0.016,-0.01225 0.03807,-0.07897 0.0218,-0.06737 -0.391167,0.278847 -0.771144,0.584269 -1.156717,0.8764 0.214463,-0.652623 0.884096,-0.717116 1.326537,-1.086842 0.371545,-0.310483 -0.762321,0.579729 -1.153412,0.845011 -0.0425,0.02883 0.05249,-0.106056 0.08432,-0.153112 0.07602,-0.05959 0.125677,-0.151334 0.145373,-0.263522 0.02726,-0.102201 0.08571,-0.197951 0.140217,-0.283763 0.08644,-0.01971 0.07147,-0.190556 0.1535,-0.273191 0.05348,-0.0857 0.09976,-0.194185 0.119826,-0.302085 0.01103,-0.115403 0.0142,-0.232849 0.01219,-0.349202 8.33e-4,-0.154821 -0.0012,-0.309523 2.01e-4,-0.464328 -0.0027,-0.135565 -0.0018,-0.271211 -9.84e-4,-0.406805 -0.0016,-0.15172 0.0021,-0.303628 -4e-4,-0.455324 0.0029,-0.132683 -0.002,-0.265422 -6.01e-4,-0.398039 0.0059,-0.194347 0.01454,-0.137552 -0.06684,-0.265274 -0.06661,-0.152898 -0.188945,-0.239305 -0.257278,-0.403188 -0.07702,-0.109572 -0.153452,-0.218112 -0.209823,-0.348316 -0.08015,-0.102002 -0.144799,-0.22053 -0.232996,-0.308184 -0.113898,-0.06374 -0.132787,-0.333253 -0.22099,-0.404649 -0.113533,-0.007 -0.168409,-0.102423 -0.237085,-0.219516 -0.09221,-0.07957 -0.122941,-0.229601 -0.182382,-0.345044 -0.10274,-0.04157 -0.123997,-0.215569 -0.189568,-0.314264 -0.114287,-0.09291 -0.119479,-0.312676 -0.203072,-0.424045 -0.08461,-0.179252 -0.185428,-0.340966 -0.271442,-0.518591 -0.08523,-0.119033 -0.106711,-0.268748 -0.181695,-0.391975 -0.05789,-0.06798 -0.08192,-0.161491 -0.122213,-0.244732 0,0 1.222286,-0.932674 1.222286,-0.932674 v 0 c 0.03203,0.07863 0.05757,0.157437 0.10811,0.22062 0.08301,0.130955 0.106814,0.278722 0.187027,0.41149 0.08641,0.171368 0.182361,0.331994 0.268203,0.503577 0.07165,0.13571 0.09885,0.305691 0.201023,0.418547 0.06788,0.112294 0.09894,0.246644 0.195789,0.328268 0.05878,0.111424 0.08928,0.245234 0.174293,0.331266 0.07501,0.105135 0.145748,0.11896 0.234827,0.209542 0.0752,0.12672 0.10897,0.28702 0.213507,0.38948 0.09011,0.115509 0.18099,0.227788 0.25748,0.360426 0.05695,0.132303 0.146295,0.227174 0.209992,0.351949 0.06042,0.147238 0.190134,0.216755 0.243887,0.369316 0.07975,0.121833 0.138675,0.207486 0.116369,0.379444 0.0016,0.132869 -0.0035,0.265862 -6e-4,0.398793 -0.0024,0.151848 0.0012,0.303901 -4.01e-4,0.455769 8.33e-4,0.135895 0.0016,0.271825 -6.01e-4,0.407702 0.0018,0.154003 6.01e-4,0.307946 0.0026,0.461954 -0.0014,0.1249 0.0035,0.249415 -0.0022,0.374195 -0.0078,0.14002 -0.04036,0.266772 -0.09013,0.39347 -0.03665,0.09124 -0.11049,0.08872 -0.119471,0.113834 -0.01359,0.03805 0.01125,0.154086 0.004,0.194268 -0.0018,0.0096 -0.01452,0.0042 -0.02178,0.0062 -0.08671,0.04717 -0.101864,0.142282 -0.169295,0.190005 -0.04478,0.116676 -0.04449,0.257821 -0.118643,0.361244 -0.492973,0.273624 -1.06185,0.544888 -1.353912,1.136681 -0.301104,0.610114 1.654523,-1.255424 1.062775,-0.836774 -0.405549,0.358453 -0.804506,0.730277 -1.216645,1.075352 -0.03454,0.02891 -0.157387,0.0281 -0.122654,-5.29e-4 0.371253,-0.304626 0.753812,-0.584534 1.128879,-0.880891 0.02251,-0.01778 -0.124166,0.06137 -0.0708,0.04531 -0.41658,0.335274 -0.831537,0.674097 -1.249742,1.005824 -0.02071,0.01643 -0.0872,0.05459 -0.06646,0.03821 0.374308,-0.295706 1.521856,-1.123072 1.127667,-0.876559 -0.181847,0.11372 -3.047295,2.363946 -0.141086,0.08422 -0.376299,0.531969 -0.884999,1.249072 -1.443515,1.108531 -0.106514,2.4e-4 -0.276656,0.09644 -0.209038,0.04389 1.135289,-0.882285 1.576386,-1.11107 1.109066,-0.864682 -0.07559,0.153064 -0.0034,0.04351 -0.09688,0.116882 -0.413646,0.324692 -0.819924,0.665801 -1.236537,0.983806 -0.03657,0.02791 -0.160914,0.05724 -0.124892,0.02811 0.374861,-0.303091 0.756379,-0.591569 1.134567,-0.887352 -0.486867,0.359603 -0.951429,1.119526 -1.530414,1.1044 -0.123734,-0.01066 -0.217244,0.03178 -0.204598,0.02146 0.03465,-0.02833 3.164704,-2.513418 -0.102745,0.08751 -0.442248,0.307308 0.176586,-0.121832 1.121655,-0.858795 0.01546,-0.01206 -0.03704,0.0069 -0.05148,0.02096 -0.01458,0.01421 -0.0151,0.04716 -0.03073,0.05924 -1.242427,0.959752 -0.78489,0.924759 -1.353974,0.945835 -0.09126,-0.0049 -0.226146,0.04863 -0.188423,0.01789 1.006821,-0.820862 1.540326,-1.095518 1.084067,-0.85757 -3.98191,3.204909 0.629183,-0.438126 -0.155717,0.160465 -0.41834,0.319039 -0.828981,0.655912 -1.251992,0.964014 -0.04278,0.03116 -0.103626,-0.0271 -0.146525,0.0037 -0.08706,0.0013 -0.174559,0.0024 -0.256819,0.04565 -0.0317,0.01601 -0.122075,0.07792 -0.09286,0.05513 2.902577,-2.263958 -0.04095,0.0944 -0.254885,0.169029 -0.08902,-0.0016 -0.177973,-1.17e-4 -0.266985,-7.94e-4 -0.08908,-7.94e-4 -0.178159,0.0026 -0.267252,-7.94e-4 -0.101834,0.0026 -0.203664,-5.29e-4 -0.305496,0.0019 -0.10073,-0.0011 -0.201376,0.0028 -0.302107,-5e-6 -0.100156,0.0011 -0.203259,0.0016 -0.300455,-0.0339 -0.08947,-0.03548 -0.155758,-0.100287 -0.221514,-0.183478 -0.07653,-0.06028 -0.157394,-0.09382 -0.213186,-0.197326 -0.07145,-0.09085 -0.136303,-0.18356 -0.168536,-0.302067 -0.09492,-0.111448 -0.199631,-0.210275 -0.177434,-0.396901 0.0012,-0.11376 0.0071,-0.239578 -0.05853,-0.325626 -0.08285,-0.100255 -0.163626,-0.217312 -0.147486,-0.374917 -2.01e-4,-0.119631 -0.0026,-0.212963 -0.04868,-0.320323 -0.09972,-0.1447 -0.166592,-0.225637 -0.128835,-0.432059 -0.0132,-0.124481 -0.08176,-0.180385 -0.145592,-0.26601 -0.05373,-0.102475 -0.07602,-0.192248 -0.0927,-0.310097 -0.03681,-0.167203 -0.206698,-0.250055 -0.179364,-0.452141 0.0081,-0.122965 0.04116,-0.198432 -0.05342,-0.277627 -0.05971,-0.143505 -0.155012,-0.289706 -0.163312,-0.452242 -3.6e-5,-0.120475 -9.84e-4,-0.241755 -0.0144,-0.361108 -0.0423,-0.19272 -0.103172,-0.371864 -0.154723,-0.560639 -0.0714,-0.367578 -0.0066,-0.759738 -0.03089,-1.136155 0,0 1.249031,-0.840881 1.249031,-0.840881 z"
       inkscape:connector-curvature="0" />
    <path
       style="opacity:1;fill:#ffffff;fill-opacity:1;stroke:none;stroke-width:5.19400024;stroke-linejoin:round;stroke-miterlimit:4;stroke-dasharray:none;stroke-dashoffset:0;stroke-opacity:1;paint-order:normal"
       id="path14950"
       d="m 57.438684,57.401538 c -0.2218,0.358145 -0.484495,0.679516 -0.771589,0.985843 -0.894868,0.689404 -3.50833,2.026528 -0.272894,0.208537 0.245036,-0.137687 -0.167417,0.155842 -0.206472,0.185674 -5.213898,3.211681 0.914164,-0.793105 -0.425522,0.29166 -0.553733,0.317307 -1.117417,0.61785 -1.661202,0.951921 -0.49983,0.307065 1.017921,-0.583385 1.529265,-0.870866 0.04225,-0.02376 -0.0706,0.06768 -0.112342,0.09231 -1.627238,0.96003 -1.087938,0.741016 -1.773693,1.013365 2.495272,-1.839894 1.777937,-0.981843 1.171686,-0.599967 -0.07484,0.03671 -0.120716,0.121941 -0.191566,0.162841 -0.56333,0.32518 -1.128297,0.647612 -1.69723,0.962882 -0.02668,0.01479 -0.114068,0.04152 -0.08768,0.02622 0.507577,-0.29441 1.022213,-0.576482 1.533319,-0.864722 -0.634114,0.462299 -1.297734,0.994855 -2.073206,1.144503 0.513807,-0.286012 1.026228,-0.574532 1.541422,-0.858036 0.02828,-0.01556 -0.05346,0.03621 -0.08037,0.05404 -0.06392,0.04236 -0.12876,0.0902 -0.196229,0.126937 -0.569822,0.310239 -1.141071,0.617849 -1.711608,0.926774 -0.09306,0.01789 -0.18643,0.03795 -0.28135,0.04034 -1.085524,-3.546099 1.508467,-0.575487 1.923029,-1.169543 -0.506939,0.289672 -1.01382,0.579443 -1.520814,0.869014 -0.101153,0.05777 0.0688,-0.0327 0.168497,-0.105492 0.03785,-0.02763 0.164007,-0.135398 0.199932,-0.156469 0.562825,-0.330116 1.131263,-0.650563 1.696898,-0.975845 0.616854,-0.271954 0.165488,-0.07699 -1.386803,0.805424 -0.249772,0.141988 0.185449,-0.154369 0.212166,-0.16986 0.55838,-0.323728 1.12141,-0.639363 1.682115,-0.959046 1.206394,-0.327623 -1.916165,1.179777 -1.206703,0.769102 0.561226,-0.324866 1.124119,-0.646841 1.686179,-0.970262 -3.392282,1.944772 -0.610759,0.346596 0.144621,-0.07129 0.04839,-0.02677 0.125082,-0.01974 0.174815,-0.02617 0.02061,-0.0027 0.07876,-0.02453 0.0607,-0.01426 -0.511458,0.290777 -1.028671,0.571315 -1.543005,0.856975 0.583081,-0.327414 1.254247,-0.703819 1.744036,-1.014257 0.498657,-0.316058 -2.042377,1.185513 -1.533673,0.885897 0.267631,-0.157631 1.148783,-0.949987 1.819981,-0.982689 0.787061,-0.228754 -2.11037,1.196935 -1.247455,0.698936 0.554318,-0.319905 1.112652,-0.632804 1.668981,-0.949203 0.818314,-0.15689 -1.87724,1.356307 -1.393311,0.825738 0.01855,-0.02032 0.02042,-0.05552 0.04387,-0.0699 2.454056,-1.50558 1.106586,-0.603761 1.728772,-1.02094 -5.035346,2.879717 3.947422,-2.326164 -1.157362,0.615786 0.07813,-0.06188 0.135594,-0.143034 0.191487,-0.224272 0.561621,-0.23445 1.109171,-0.505962 1.684864,-0.703352 0.09166,-0.03143 -0.133752,0.411078 -0.15045,0.42998 -0.02979,0.03372 -0.07078,0.05557 -0.106166,0.08335 -0.169982,0.118549 -0.299612,0.27777 -0.456936,0.414342 -0.05983,0.129638 -0.187261,0.192143 -0.287361,0.285232 -0.548571,0.54882 -1.271225,0.963538 -2.001607,1.209151 -0.111832,0.05248 -0.225656,0.02447 -0.344416,0.02577 -0.995728,0.130064 1.340212,-0.885528 1.299546,-0.840581 -0.05333,0.05894 -4.157875,2.412997 -0.173337,0.121478 -0.641982,0.470707 -1.239729,0.911826 -1.995559,0.992518 -0.698913,-0.06864 -1.562515,0.721249 1.171464,-0.814871 -0.607129,0.424656 -1.299408,0.740561 -1.960298,1.08527 0.03484,-0.0633 -0.279323,0.02548 -0.216516,-0.01024 0.513159,-0.291873 1.030123,-0.577374 1.553538,-0.850437 0.02699,-0.01408 -0.03217,0.05465 -0.05826,0.07035 -0.555167,0.334386 -1.120593,0.651436 -1.680888,0.977154 -0.189129,0.115406 -0.363061,0.106476 -0.483121,-0.07659 -0.06823,-0.136403 -0.05781,-0.290467 -0.03935,-0.437356 1.180888,-0.859277 1.16681,-0.973265 2.04552,-1.055587 0.165664,0.0038 0.331454,0.0065 0.497179,0.0056 0.05896,-0.02172 0.171394,0.03576 0.222454,0.0011 0.02082,-0.01416 0.0036,-0.0623 0.02745,-0.07039 0.06824,-0.02318 0.142833,0.02005 0.214707,0.02532 0.219186,-0.11008 0.453631,-0.152075 0.693351,-0.194639 -0.02114,0.07459 0.22855,-0.104743 0.173601,-0.07409 -0.491093,0.27392 -0.977098,0.556887 -1.467932,0.83127 -0.05232,0.02925 0.09593,-0.07258 0.148384,-0.101592 0.568013,-0.314246 1.138367,-0.624242 1.707552,-0.936363 -0.507397,0.283898 -1.014791,0.567796 -1.522185,0.851694 0.09109,-0.0475 0.164169,-0.10809 0.190167,-0.208436 0.0026,-0.01902 0.0052,-0.03806 0.0079,-0.05709 0,0 1.668012,-0.831003 1.668012,-0.831003 v 0 c -0.0011,0.02262 -0.0024,0.04523 -0.0035,0.06784 -0.05996,0.809249 -1.242192,0.983186 -1.813605,1.309478 0.499412,-0.292769 0.997681,-0.587504 1.498238,-0.878313 0.05446,-0.03164 -0.100814,0.07601 -0.155136,0.107886 -0.570473,0.334799 -1.138282,0.674375 -1.715476,0.997445 -0.01736,0.0097 -0.167889,0.03583 -0.19826,0.04137 -0.24198,0.04924 -0.469247,0.150329 -0.715921,0.169752 -0.1555,0.01619 -0.299881,0.07622 -0.466986,0.04238 -0.162116,-0.003 -0.325795,-0.0055 -0.487006,0.0127 -0.646313,0.07641 -1.719006,1.058294 1.156944,-0.807209 -0.101992,0.01513 -0.05705,0.155704 -0.05809,0.243644 0.08502,-0.03075 0.229068,-0.08071 0.327345,-0.138928 -0.498186,0.295148 -0.995987,0.59095 -1.49456,0.885442 -0.02349,0.01389 0.04583,-0.02968 0.06931,-0.04359 0.553275,-0.327824 1.102738,-0.662226 1.660935,-0.981599 0.0485,-0.02775 0.14098,0.01971 0.179779,-0.04365 0.893567,-0.290711 -1.967603,1.290841 -1.241761,0.740399 1.447006,-0.817012 1.160899,-0.902242 2.061255,-0.970997 0.08084,-0.01262 0.309618,-0.09664 0.239223,-0.05494 -1.834888,1.08689 -2.010474,1.207376 -1.476415,0.84673 4.717233,-2.716212 -0.05811,0.02291 0.189659,-0.08092 0.595463,-0.249536 1.113999,-0.653312 1.67985,-0.964208 0.06206,-0.03409 0.178305,0.02479 0.246846,-0.0029 0.108309,-0.0041 0.206105,-0.02841 0.305773,-0.07171 0.710036,-0.273659 -2.260846,1.442945 -1.185383,0.662088 0.08602,-0.117766 0.18625,-0.196768 0.304937,-0.260909 0.05642,-0.153 0.09753,-0.140342 0.222502,-0.230258 0.129405,-0.09311 0.03361,-0.06052 0.12523,-0.189725 0.02101,-0.02962 0.05426,-0.04826 0.08139,-0.07239 0.06541,-0.03187 0.150538,-0.03075 0.202354,-0.08183 0.02649,-0.02611 0.025,-0.07036 0.04256,-0.103163 0.324125,-0.605692 1.371171,-0.85621 1.760492,-1.063353 -0.04644,0.101891 -0.106225,0.196459 -0.173304,0.286266 -5.295892,3.194296 1.216676,-0.691306 -0.353478,0.270627 -0.549148,0.336425 -1.105935,0.660225 -1.658901,0.99034 -0.585306,0.285742 -0.06565,0.03416 1.439302,-0.864684 0.01929,-0.01154 -0.0454,0.01513 -0.05858,0.03334 -0.01672,0.0231 -5.29e-4,0.06682 -0.02487,0.08186 -1.226622,0.761285 -1.10367,0.700212 -1.74266,1.002985 3.910319,-2.256388 -0.231465,0.165058 -0.448453,0.214524 -0.04548,0.01884 -0.176085,0.08781 -0.133612,0.06293 0.508685,-0.298096 2.022901,-1.21158 1.527027,-0.892627 -5.214271,3.353905 0.752975,-0.747689 -0.204012,0.147793 -0.559959,0.312314 -1.116854,0.63019 -1.679877,0.936943 -0.03694,0.02013 -0.38204,0.170722 -0.209571,0.06992 0.444365,-0.259723 3.806624,-2.200204 -0.136718,0.07663 3.671295,-2.148478 0.119988,-0.08379 -0.241835,0.113181 -0.0719,0.03914 -0.178019,0.02432 -0.2443,0.08151 0.501912,-0.293926 1.003057,-0.589158 1.505733,-0.881774 0.05117,-0.02979 -0.105431,0.05746 -0.147211,0.09941 -0.02548,0.02558 -0.03252,0.06915 -0.06342,0.08785 -1.091576,0.660795 -1.15469,0.692545 -1.79092,1.027518 0.493096,-0.286396 0.987719,-0.570177 1.479288,-0.859182 0.03719,-0.02185 -0.08004,0.03363 -0.115901,0.05762 -0.08985,0.06009 -0.150566,0.153511 -0.245496,0.20832 -0.556487,0.321294 -1.115407,0.638362 -1.673109,0.957545 -0.833868,-0.0083 -0.777988,0.183605 1.035799,-1.10282 0.08535,-0.01884 0.172006,-0.03209 0.256469,-0.05516 -0.500764,0.291907 -1.001221,0.584345 -1.502291,0.875726 -0.01857,0.0108 0.03654,-0.02262 0.05477,-0.03398 0.07519,-0.04685 0.148791,-0.09826 0.225759,-0.142058 0.557014,-0.316986 1.115449,-0.63147 1.673174,-0.947205 0.756277,-0.185092 -2.303301,1.377071 -1.136023,0.673097 0.554726,-0.322612 1.106935,-0.649592 1.664179,-0.967832 0.706308,-0.403368 -2.083009,1.403733 -1.219364,0.680788 0.05779,-0.05687 0.131308,-0.127148 0.209262,-0.157255 0.03459,-0.01336 0.07818,-0.0021 0.108831,-0.02297 0.0245,-0.01667 0.02726,-0.0526 0.04089,-0.0789 0.552191,-0.328162 1.104384,-0.656325 1.656575,-0.984488 0.0271,-0.01161 0.106487,-0.05021 0.08131,-0.03485 -0.493461,0.301021 -0.986761,0.602504 -1.4869,0.892294 -0.04596,0.02663 0.05599,-0.09541 0.101457,-0.122868 0.549341,-0.3317 1.103423,-0.655671 1.662001,-0.971565 0.514633,-0.291045 -1.020101,0.598 -1.530149,0.897001 0.967351,-0.785035 3.709093,-2.12684 0.419947,-0.314315 0.105622,-0.05224 0.144529,-0.111887 0.219075,-0.158726 0.547719,-0.344144 1.14572,-0.612256 1.661507,-1.002636 0.458768,-0.347228 -0.993273,0.581004 -1.489398,0.872374 -0.03708,0.02178 0.07483,-0.04239 0.112244,-0.06359 0.288853,-0.302922 0.570468,-0.590407 0.791721,-0.950778 0,0 1.690494,-0.74925 1.690494,-0.74925 z"
       inkscape:connector-curvature="0" />
    <path
       style="opacity:1;fill:#ffffff;fill-opacity:1;stroke:none;stroke-width:5.19400024;stroke-linejoin:round;stroke-miterlimit:4;stroke-dasharray:none;stroke-dashoffset:0;stroke-opacity:1;paint-order:normal"
       id="path14952"
       d="m 48.621049,56.540555 c 0.0057,-0.346535 -7.94e-4,-0.693026 -0.0013,-1.039543 -0.0021,-0.190727 -2.6e-5,-0.381439 -0.0038,-0.572129 1.27e-4,-0.158377 0.003,-0.316786 7.94e-4,-0.475121 -0.0021,-0.142676 -0.0061,-0.284787 0.01535,-0.425857 0.05047,-0.163634 0.17127,-0.286308 0.210926,-0.451318 0.04073,-0.138105 0.03978,-0.282724 0.0439,-0.425485 -0.0038,-0.133625 2.64e-4,-0.267155 -0.0036,-0.400769 -5.29e-4,-0.157957 0.0039,-0.316143 7.94e-4,-0.474091 1.13e-4,-0.153459 -7.94e-4,-0.306922 0.0016,-0.460423 -0.0046,-0.134181 5.29e-4,-0.268266 -0.003,-0.40246 0.0029,-0.130578 7.94e-4,-0.261075 7.94e-4,-0.39166 -0.0038,-0.671592 -0.446797,-0.0093 1.659032,-0.821823 0.0057,-0.0021 -0.0016,0.117774 0.0019,0.249174 2.65e-4,0.160616 -0.0043,0.321477 -0.0011,0.482087 -1.51e-4,0.152903 7.94e-4,0.305811 -0.0016,0.458758 0.02315,0.172604 -0.04478,0.317656 -0.130911,0.462503 -0.09196,0.09372 -0.115038,0.242223 -0.12994,0.368892 -0.0046,0.124291 -0.0086,0.248375 -0.0051,0.372735 5.29e-4,0.157578 -0.0034,0.315396 -1.1e-5,0.472971 5.1e-5,0.153583 0.0011,0.307174 -0.0013,0.460801 0.0035,0.158203 5.3e-4,0.316384 0.0011,0.474647 -7.94e-4,0.210571 -0.0036,0.421063 2e-6,0.631648 5.3e-4,0.177115 -0.0024,0.354269 2.65e-4,0.531333 0.01947,0.08982 -0.05353,0.244097 0.03923,0.293045 0.12799,0.02921 0.15484,0.195583 0.197996,0.307909 0.04592,-0.07514 0.01455,-0.05618 0.105494,0.03098 0,0 -1.576313,0.9905 -1.576313,0.9905 v 0 c -0.08959,-0.04606 -0.03167,-0.01243 -0.162457,-0.11824 -0.03437,-0.107635 -0.04637,-0.17408 -0.149765,-0.230491 -0.118551,-0.132128 -0.12732,-0.257117 -0.112963,-0.428517 0.0026,-0.177173 -2.09e-4,-0.354433 2.64e-4,-0.531659 0.0035,-0.21059 0.0011,-0.421084 8e-6,-0.631656 5.29e-4,-0.158596 -0.0026,-0.317105 0.0011,-0.475641 -0.0024,-0.153038 -0.0013,-0.30603 -0.0016,-0.459026 0.0029,-0.156789 -0.0016,-0.313814 -0.0026,-0.470588 0.0019,-0.128656 -0.0053,-0.257323 0.0049,-0.38572 5.3e-4,-0.164113 0.03018,-0.31937 0.07553,-0.477581 0.113697,-0.08902 0.196794,-0.206055 0.191077,-0.344982 -0.0024,-0.152426 -0.0013,-0.304811 -0.0016,-0.457195 0.0032,-0.160263 -0.0013,-0.320773 -0.0011,-0.481039 7.93e-4,-0.03308 -0.0092,-0.244102 0.0019,-0.2511 2.146488,-1.35918 1.662485,-1.554885 1.659033,-0.868815 6.3e-5,0.130316 -0.0021,0.260549 7.93e-4,0.390856 -0.0033,0.13521 0.0016,0.270304 -0.003,0.405498 0.0024,0.152963 0.0013,0.305882 0.0016,0.458803 -0.0031,0.157189 0.0013,0.314619 0.0019,0.4718 -0.0024,0.135287 0.0028,0.270433 -0.0013,0.405701 0.0024,0.154065 0.0066,0.315744 -0.01979,0.466088 -0.05266,0.181356 -0.08539,0.323966 -0.199535,0.477824 -0.09928,0.07803 -0.03217,0.239175 -0.04859,0.356256 -0.0021,0.15806 5.29e-4,0.316188 7.94e-4,0.474284 -0.0037,0.19199 -0.0019,0.383995 -0.0038,0.576019 -7.94e-4,0.346983 -0.007,0.693936 -0.0013,1.040935 0,0 -1.650323,0.84088 -1.650323,0.84088 z"
       inkscape:connector-curvature="0" />
    <path
       style="opacity:1;fill:#ffffff;fill-opacity:1;stroke:none;stroke-width:5.19400024;stroke-linejoin:round;stroke-miterlimit:4;stroke-dasharray:none;stroke-dashoffset:0;stroke-opacity:1;paint-order:normal"
       id="path14954"
       d="m 42.871743,32.215899 c 0.571887,0.0065 1.143913,0.0078 1.715821,0.003 0.314912,-0.0016 0.629867,-0.0013 0.944753,-0.0056 1.164478,-0.154647 -1.514457,1.333058 -1.23026,0.769088 0.02302,0.08838 -0.269965,0.04682 -0.357346,0.04745 -0.212212,-7.94e-4 -0.424331,0.0094 -0.63649,0.0078 -0.179702,0.0024 -0.359434,0.0019 -0.539162,0.0026 -0.159142,-5.29e-4 -0.318278,7.94e-4 -0.477423,7.1e-5 -0.152659,0.0016 -0.30535,-0.0019 -0.457996,2.65e-4 -0.170164,-0.0011 -0.340333,-4.5e-5 -0.510498,-0.0011 -0.153918,-0.0043 -0.210134,-0.209474 -0.330742,-0.291852 -0.07702,0.0061 -0.154924,0.01294 -0.23567,0.02133 -0.143311,-0.101193 -0.198659,-0.273487 -0.184515,-0.44133 -0.0031,-0.115158 0.01519,-0.213728 0.04983,-0.322509 0.06435,-0.01476 0.09616,-0.08466 0.148224,-0.115133 5.545265,-3.244919 -3.674072,2.119336 1.806115,-1.066298 0.135573,0.0031 0.269423,0.03852 0.405188,0.04396 0.106775,0.0079 0.213696,0.0083 0.320667,0.0089 0.626309,-2.65e-4 0.143844,-0.009 -1.455867,0.805106 -0.05959,0.03033 0.0941,-0.09735 0.151818,-0.131107 1.617303,-0.945843 1.040879,-0.775644 1.696138,-0.964533 0.129453,0.01378 0.260413,0.0159 0.390647,0.01908 0.01243,-0.02178 0.05931,-0.07731 0.0373,-0.0653 -0.519694,0.283742 -1.025668,0.591931 -1.539803,0.885626 -0.01596,0.0091 0.02917,-0.02252 0.04504,-0.03176 0.839425,-0.489104 1.159608,-0.75537 1.821437,-1.033204 0.147664,-0.09664 0.283535,-0.06669 0.44695,-0.04627 0.6776,0.09489 0.316304,-0.07646 -1.42217,0.837243 -0.07424,0.03902 0.144111,-0.0915 0.196892,-0.156681 0.502211,-0.693082 1.244809,-0.973061 1.989376,-0.929707 0.119544,0.0083 0.239231,0.0093 0.358992,0.0096 0.0195,-4.2e-5 0.04223,0.01064 0.05848,-1.27e-4 0.03657,-0.02426 0.127146,-0.118287 0.08855,-0.0974 -2.649225,1.433653 -1.819309,1.105562 -1.292926,0.722151 1.450803,-0.982146 1.122728,-1.011467 1.974297,-0.905168 0.100084,0.01569 0.201888,0.0122 0.303033,0.01318 0.61451,-0.653463 -2.047629,1.120039 -1.35327,0.722828 1.005097,-0.574968 1.10794,-0.843065 1.821781,-0.986335 0.130775,-0.01275 0.264983,-0.0093 0.396954,-0.0063 0.148765,0.0016 0.297519,0.0028 0.446291,0.0021 0.142722,7.94e-4 0.285441,7.94e-4 0.428162,7.94e-4 0.137086,5e-5 0.274132,-0.0011 0.411221,2.65e-4 0.150561,-7.94e-4 0.301117,2.35e-4 0.451678,-5.29e-4 0.133133,7.93e-4 0.266293,-0.0011 0.399423,1.43e-4 0.112326,-0.0021 0.2247,-2.02e-4 0.337042,-3e-5 0.130173,-7.93e-4 0.260326,2.65e-4 0.390501,-5.29e-4 0.12391,0.0024 0.24783,-0.0011 0.371735,2.65e-4 0.01151,-2.65e-4 0.02689,-0.0096 0.03452,-0.0011 0.118808,0.134329 0.08815,0.168191 0.261051,0.225632 0.192709,0.0094 0.21721,0.209365 0.350311,0.304853 0.117748,0.130072 0.187317,0.289835 0.226753,0.458893 0.02101,0.1245 0.02625,0.248997 0.02432,0.374888 -0.01995,0.123815 0.02612,0.228193 0.04409,0.347499 -0.01196,0.146444 0.09483,0.2315 0.141549,0.367633 0.04739,0.120568 0.05454,0.248039 0.1632,0.330909 0.609532,0.520893 -1.624679,1.666179 -1.476481,0.910204 0.01119,-0.138602 0.01172,-0.277683 0.0052,-0.416497 -0.0029,-0.144719 -0.0016,-0.289449 -0.0041,-0.434144 0.0016,-0.14237 -0.0024,-0.284811 -7.94e-4,-0.427164 -0.0019,-0.145566 0.0032,-0.291307 9.3e-5,-0.436854 -0.01828,-0.704236 -0.06173,-0.07845 1.658527,-0.856345 0.01148,0.132728 0.12034,0.258149 0.176879,0.389078 0.114438,0.116898 0.169077,0.339754 0.304088,0.426706 0.05504,0.180917 0.137661,0.334479 0.217189,0.506124 0.08983,0.143375 0.128341,0.305179 0.192535,0.460116 0.07869,0.144293 0.155919,0.292418 0.203364,0.450644 -0.02339,0.189299 0.06514,0.250806 0.130027,0.415054 0.0689,0.113192 0.09087,0.236305 0.107116,0.366123 0.0057,0.119303 0.0069,0.238789 0.01082,0.358206 -0.003,0.130315 -0.0058,0.260794 -0.0043,0.391149 -7.94e-4,0.18319 -0.0035,0.366311 -5.29e-4,0.549537 0.01656,0.151842 -0.02936,0.317328 0.01566,0.464386 0.05087,0.128654 0.02196,0.256429 0.0093,0.38866 -0.01947,0.145952 -0.02424,0.29374 -0.02424,0.440957 -7.94e-4,0.149916 7.94e-4,0.299839 -0.0024,0.449731 0.0044,0.142536 2.64e-4,0.284932 0.0027,0.427469 0.05388,0.09922 0.161139,0.246234 0.205446,0.381304 0.04786,0.145881 0.05221,0.30026 0.06215,0.452247 -0.02832,0.197263 0.08693,0.351766 0.144613,0.533096 -0.0021,0.04706 0.101939,0.31446 0.140491,0.241265 0.100883,-0.01564 0.203637,-0.01416 0.305493,-0.01783 0.700958,-0.102026 -1.909881,1.585064 -1.40947,0.631407 -0.004,-0.195863 0.06835,-0.367334 0.128808,-0.550838 0.05547,-0.164478 0.08082,-0.334479 0.09314,-0.506976 0.0092,-0.154371 0.0065,-0.309105 0.0071,-0.463664 1.14e-4,-0.148529 -0.0024,-0.296963 -5.29e-4,-0.4455 -0.01762,-0.07845 0.04454,-0.249539 -0.04186,-0.291489 -0.113028,-0.119883 -0.166063,-0.258596 -0.2011,-0.416674 -0.139078,-0.09739 -0.221199,-0.191227 -0.26852,-0.356505 -0.05421,-0.13381 0.0065,-0.295717 -0.04171,-0.426643 -0.08634,-0.131112 -0.152503,-0.2628 -0.206586,-0.411932 -0.03973,-0.158777 -0.04306,-0.324491 -0.04336,-0.48744 0.0163,-0.172283 0.0037,-0.279151 -0.09375,-0.417517 -0.146082,-0.153057 -0.183235,-0.350113 -0.187661,-0.553376 0.02622,-0.232143 -0.143513,-0.396772 -0.212709,-0.603917 -0.04107,-0.167167 -0.03858,-0.291171 -0.13924,-0.429546 -0.100856,-0.111075 -0.135265,-0.249991 -0.159946,-0.393872 -0.0024,-0.118097 -0.0038,-0.238699 -0.147484,-0.247798 -0.146351,-0.07695 -0.08416,-0.26394 -0.144338,-0.369771 -0.0075,-0.01312 -0.01013,0.02845 -0.01519,0.04268 -0.140213,-0.12029 -0.183951,-0.290327 -0.219305,-0.464013 -0.10732,0.02748 -0.222679,-0.259487 -0.252249,-0.358553 -0.0038,-0.01241 -5.29e-4,-0.04439 -0.01146,-0.03726 -0.01241,0.0081 0.01516,0.04363 2.65e-4,0.04456 -0.108038,0.0067 -0.20632,-0.177673 -0.239819,-0.251248 -0.135234,0.04894 -0.255317,-0.02029 -0.367286,-0.09405 -0.109638,-0.09015 -0.259281,-0.132123 -0.399743,-0.128895 -0.142706,-0.0113 -0.286004,-0.01008 -0.429017,-0.0077 0,0 1.506993,-1.094618 1.506993,-1.094618 v 0 c 0.146399,0.0029 0.292721,0.003 0.437795,0.02656 0.160107,0.03459 0.310102,0.09074 0.443532,0.189161 0.152765,0.06627 0.317166,0.04923 0.433038,0.200319 0.03724,0.132701 0.255238,0.109355 0.264258,0.268107 0.02368,0.157075 0.153654,0.262747 0.259625,0.369562 0.01648,0.122817 0.0264,0.25417 0.138102,0.328293 0.114768,0.125341 0.0873,0.175246 0.143081,0.302947 0.151979,0.09545 0.265811,0.223089 0.24955,0.413163 0.01061,0.119864 0.02758,0.223941 0.11104,0.316794 0.117285,0.166476 0.1572,0.285123 0.167783,0.483518 0.05828,0.226282 0.266851,0.399724 0.238487,0.650028 -0.0011,0.173826 -0.0016,0.326485 0.136322,0.454679 0.115083,0.167992 0.175363,0.307872 0.145991,0.516144 0.0019,0.144359 -2.03e-4,0.289652 0.01924,0.432982 0.04626,0.145857 0.110535,0.268769 0.195746,0.397174 0.07072,0.147979 0.0425,0.29809 0.05907,0.459354 0.02114,0.167185 0.203975,0.212947 0.272886,0.361328 0.02032,0.126413 0.04962,0.229473 0.146646,0.320416 0.108902,0.134157 0.127579,0.251968 0.110622,0.420142 0.0021,0.148225 2.64e-4,0.296376 0.0016,0.444598 0.0016,0.158068 7.94e-4,0.316079 -0.0019,0.474102 -0.0089,0.182345 -0.01553,0.372647 -0.08118,0.544316 -0.04477,0.198057 -0.161216,0.343464 -0.126564,0.542238 -0.05602,0.685606 -1.205304,1.280554 -1.775155,1.274452 -0.117052,5.3e-4 -0.240925,0.0083 -0.34934,-0.04272 -0.125754,-0.107686 -0.186619,-0.223004 -0.217197,-0.388679 -0.05813,-0.196651 -0.199395,-0.360248 -0.1768,-0.571817 -2.56e-4,-0.139663 5.3e-4,-0.281292 -0.03695,-0.416899 -0.02297,-0.152947 -0.176268,-0.278357 -0.232275,-0.422881 0.0024,-0.143375 -0.0019,-0.286602 0.0024,-0.429979 -0.0036,-0.150117 -0.0027,-0.300371 -7.93e-4,-0.450485 0.0033,-0.152734 -0.0019,-0.307118 0.01119,-0.458732 0.01717,-0.105738 0.02982,-0.207714 0.03649,-0.310954 -0.06807,-0.168498 -0.04807,-0.341956 -0.04829,-0.522103 0.003,-0.183216 2.65e-4,-0.366331 -1.32e-4,-0.549507 0.0019,-0.130038 -5.29e-4,-0.260141 -0.0021,-0.390179 0.0054,-0.114006 0.0061,-0.228068 0.0013,-0.342154 -0.0076,-0.120639 -0.01347,-0.217823 -0.07835,-0.324813 -0.05542,-0.155183 -0.202703,-0.253285 -0.148394,-0.437028 -0.01368,-0.154599 -0.12315,-0.283353 -0.181393,-0.423503 -0.06742,-0.158398 -0.106188,-0.306763 -0.19245,-0.454818 -0.065,-0.149262 -0.165322,-0.279064 -0.179888,-0.442545 -0.133855,-0.147608 -0.222112,-0.335404 -0.343728,-0.49462 -0.06182,-0.155213 -0.192199,-0.293719 -0.210492,-0.454517 1.799921,-1.020276 1.675154,-1.565966 1.658512,-0.833758 -0.003,0.145534 0.0019,0.291259 0,0.436811 0.0016,0.142293 -0.0026,0.28465 -2.25e-4,0.426964 -0.0013,0.142793 0.0024,0.285774 0.0045,0.428548 0.0019,0.147008 0.01122,0.294267 -7.94e-4,0.441021 -0.01717,0.756737 -1.476515,1.685335 -1.773433,0.894731 -0.112247,-0.121246 -0.170034,-0.256429 -0.207846,-0.414314 -0.03913,-0.145611 -0.199554,-0.250484 -0.172095,-0.412853 0.02633,-0.122754 -0.08788,-0.219276 -0.04174,-0.351883 -0.0013,-0.113895 0.0019,-0.22787 -0.0088,-0.341484 -0.02077,-0.133816 -0.06677,-0.26003 -0.165635,-0.356852 -0.110132,-0.114755 -0.149889,-0.218818 -0.315669,-0.251608 -0.120607,-0.05913 -0.178448,-0.125751 -0.266684,-0.219353 -0.0164,-0.01741 0.03822,0.03414 0.04278,0.05762 0.0021,0.0104 -0.02119,-7.94e-4 -0.03177,-0.0011 -0.124153,0.0013 -0.248317,-0.0019 -0.372473,2.64e-4 -0.129601,-0.0011 -0.259183,1.27e-4 -0.388781,-5.29e-4 -0.112318,1.75e-4 -0.224671,0.0021 -0.336968,-2.6e-5 -0.133263,0.0013 -0.266549,-5.3e-4 -0.399812,1.42e-4 -0.150114,-7.93e-4 -0.30022,2.65e-4 -0.450334,-5.29e-4 -0.137374,0.0013 -0.274704,2.65e-4 -0.412073,2.65e-4 -0.143311,-3.5e-5 -0.286612,-2.65e-4 -0.429926,-2.65e-4 -0.14817,-0.0019 -0.296344,-0.0024 -0.444524,-0.0021 -0.124047,0.0034 -0.249849,0.0019 -0.367798,0.04636 -0.564126,0.2022 -1.592355,0.881232 1.387894,-0.830378 0.02376,-0.01365 -0.04161,0.03618 -0.06525,0.05008 -1.69141,0.994199 -1.043461,0.859833 -1.82577,1.001078 -0.104042,-0.0046 -0.207643,-0.01106 -0.310822,-0.02574 -0.626409,-0.0542 -1.724845,0.996577 1.278366,-0.845058 -0.702638,0.350694 -1.280186,1.10889 -2.094825,1.138565 -0.121812,-0.0026 -0.243446,-0.0063 -0.365017,-0.0149 -0.109524,-0.0055 -0.26294,0.03399 -0.222673,0.0096 1.406438,-0.852667 2.077479,-1.059508 1.472562,-0.869857 -0.141089,0.08647 0.04182,-0.0383 -0.112083,0.132498 -0.458507,0.508849 -1.191315,1.06304 -1.903052,0.972449 -0.148289,-0.0038 -0.262237,0.05375 -0.395079,0.117124 -0.04496,0.01852 -0.176334,0.08107 -0.134808,0.05576 3.321836,-2.024452 0.54609,-0.276733 -0.185033,0.131042 -0.02622,0.01463 -0.05998,-0.0027 -0.08997,-0.004 -0.113983,-0.0016 -0.244655,-0.01643 -0.344252,0.04717 -0.533218,0.338776 -0.162171,0.102349 1.500671,-0.8681 0.05689,-0.0332 -0.114432,0.06527 -0.171288,0.09853 -1.720014,1.006121 -1.051084,1.00778 -1.767933,0.995403 -0.109749,-0.0021 -0.219207,-0.0093 -0.328509,-0.0195 -0.111347,-0.01371 -0.249322,-0.0383 -0.341352,0.0397 4.062822,-2.379737 -0.103817,0.06211 -0.137433,0.07625 -0.538353,0.226439 0.997027,-0.608695 1.501439,-0.903089 0.06067,-0.03541 -0.189478,0.203967 -0.130918,0.165158 -0.150202,-0.04924 -0.09903,0.03382 -0.121463,0.162505 -7.93e-4,0.04254 -0.04496,0.200554 0.0281,0.175543 0.114482,0.0034 0.218212,0.02299 0.311912,0.0946 0.09605,0.09541 0.135723,0.216222 0.252508,0.18538 0.171124,-0.0011 0.342254,6.3e-5 0.513381,-0.0011 0.152347,0.0024 0.304745,-0.0013 0.457105,2.64e-4 0.158985,-5.29e-4 0.317968,7.94e-4 0.476951,-5e-6 0.178557,2.65e-4 0.357071,-7.94e-4 0.535623,-0.0019 0.213137,-0.0053 0.426439,-0.0046 0.639648,-0.0045 0.242888,0.0091 0.425789,0.03124 0.545915,0.269804 -0.310914,0.734078 -1.210725,1.138954 -1.96945,1.097814 -0.309771,-0.0044 -0.619619,-0.0039 -0.929417,-0.0056 -0.57462,-0.005 -1.149361,-0.0034 -1.723962,0.003 0,0 1.49846,-1.088697 1.49846,-1.088697 z"
       inkscape:connector-curvature="0" />
    <path
       style="opacity:1;fill:#ffffff;fill-opacity:1;stroke:none;stroke-width:5.19400024;stroke-linejoin:round;stroke-miterlimit:4;stroke-dasharray:none;stroke-dashoffset:0;stroke-opacity:1;paint-order:normal"
       id="path14956"
       d="m 54.571031,35.156234 c 0.07973,0.360006 0.262424,0.688171 0.392853,1.032307 0.08058,0.184144 0.133078,0.376269 0.213088,0.559797 0.09085,0.08899 0.122949,0.207759 0.187309,0.313629 0.04983,0.141378 0.0217,0.29069 0.0083,0.435896 -0.01852,0.147039 0.09974,0.273447 0.157501,0.405791 0.05922,0.151715 0.08132,0.313984 0.08826,0.475716 0.0075,0.143468 0.0044,0.28738 0.0043,0.431041 0.0016,0.142877 -0.0044,0.286011 -2.64e-4,0.42886 -0.0021,0.140343 5.29e-4,0.280466 -0.0021,0.420801 7.94e-4,0.146085 0.0021,0.292246 0.0011,0.43832 0.0021,0.145232 -0.0031,0.290528 2.12e-4,0.435726 -2.65e-4,0.141616 0.04514,0.270978 0.04248,0.413996 0.01588,0.09461 -0.08687,0.309766 0.0056,0.369361 0.11294,0.153826 0.157916,0.335489 0.193812,0.519158 0.02974,0.155686 0.02643,0.316478 0.025,0.474458 0.0013,0.153824 0.0021,0.307756 5.3e-4,0.461571 -0.0021,0.190773 -7.94e-4,0.381511 -0.003,0.572323 0.0037,0.154345 0.003,0.308753 0.0021,0.463119 0.0011,0.189606 -7.94e-4,0.37909 -0.0028,0.568735 0.0038,0.16619 0.0035,0.332441 0.0026,0.49865 0.0024,0.153381 -0.0026,0.306956 7.93e-4,0.460314 -0.0024,0.155694 0.0011,0.311184 -0.0013,0.466865 -7.94e-4,0.146071 0.0033,0.292243 0.0016,0.438296 -5.29e-4,0.156694 -0.0033,0.313412 7.94e-4,0.47009 -2.36e-4,0.161605 -0.0048,0.323331 -0.0013,0.484918 -8e-6,0.151146 7.94e-4,0.302299 -0.0016,0.453488 0.0019,0.142827 0.0031,0.285713 0.0016,0.428561 -0.0021,0.202054 -5.29e-4,0.404077 -0.0026,0.606168 0.0016,0.20115 -0.0011,0.402352 0.0021,0.603438 0.0019,0.183529 -0.004,0.367165 -2.65e-4,0.550715 2.65e-4,0.161128 0.0016,0.322257 -7.94e-4,0.483425 0.003,0.08929 7.94e-4,0.178652 -2.64e-4,0.267952 0,0 -1.655567,0.843552 -1.655567,0.843552 v 0 c -0.0011,-0.08921 -0.0033,-0.17848 -2.64e-4,-0.267676 -0.0024,-0.160872 -0.0011,-0.321704 -7.94e-4,-0.482537 0.0036,-0.183433 -0.0021,-0.366948 -2.65e-4,-0.550359 0.0031,-0.201827 5.29e-4,-0.40377 0.0021,-0.605661 -0.0021,-0.201207 -5.29e-4,-0.402344 -0.0026,-0.603512 -0.0016,-0.143385 -1.77e-4,-0.286803 0.0016,-0.430165 -0.0024,-0.150688 -0.0016,-0.301339 -0.0016,-0.451979 0.0034,-0.161161 -0.0011,-0.322453 -0.0013,-0.48363 0.0039,-0.156927 0.0013,-0.313888 7.94e-4,-0.470823 -0.0016,-0.146606 0.0024,-0.293328 0.0016,-0.439949 -0.0027,-0.155189 0.0011,-0.310187 -0.0013,-0.465389 0.0033,-0.153606 -0.0016,-0.307422 7.94e-4,-0.461052 -7.94e-4,-0.167109 -0.0011,-0.334256 0.0026,-0.501349 -0.0019,-0.188708 -0.0037,-0.377256 -0.0028,-0.565925 -7.93e-4,-0.155083 -0.0016,-0.310205 0.0021,-0.465267 -0.0021,-0.19009 -7.94e-4,-0.380095 -0.0024,-0.570145 -5.29e-4,-0.154213 0.0016,-0.308518 0.0034,-0.462735 -0.0019,-0.148246 0.0039,-0.297829 -0.01373,-0.445151 -0.02201,-0.150035 -0.04506,-0.303726 -0.142798,-0.425969 -0.125315,-0.162319 -0.103931,-0.310076 -0.07722,-0.501772 0.0191,-0.148484 -0.02564,-0.257656 -0.03744,-0.402232 0.0033,-0.145275 -0.0019,-0.290637 2.12e-4,-0.435941 -7.94e-4,-0.146463 5.29e-4,-0.293013 0.0011,-0.439489 -0.0026,-0.139763 2.17e-4,-0.279318 -0.0019,-0.419095 0.0043,-0.143285 -0.0011,-0.286866 0.0016,-0.43018 0.0011,-0.141788 0.0016,-0.283486 7.93e-4,-0.425276 -0.0039,-0.14003 -0.01005,-0.282355 -0.05672,-0.415766 -0.06539,-0.161973 -0.201972,-0.309097 -0.201819,-0.484965 0.0093,-0.112112 0.01566,-0.227582 0.04264,-0.33628 -0.0566,-0.117999 -0.113681,-0.223825 -0.190269,-0.331619 -0.0864,-0.187899 -0.135933,-0.38074 -0.2144,-0.573913 -0.125852,-0.356883 -0.309116,-0.692642 -0.404977,-1.058119 0,0 1.633077,-0.873117 1.633077,-0.873117 z"
       inkscape:connector-curvature="0" />
    <path
       id="path14958"
       transform="matrix(0.26458333,0,0,0.26458333,1.3376956,0.26406425)"
       style="opacity:1;fill:#ffffff;fill-opacity:1;stroke:none;stroke-width:19.630867;stroke-linejoin:round;stroke-miterlimit:4;stroke-dasharray:none;stroke-dashoffset:0;stroke-opacity:1;paint-order:normal"
       d="m 208.25781,189.60547 -5.90429,3.85742 c 0.20327,0.0745 0.38516,0.17726 0.55078,0.32031 0.31719,0.29046 0.61208,1.18195 1.15234,0.84961 0.20905,0.41534 0.62754,1.1595 1.17774,0.85547 0.431,0.43841 0.74084,0.97533 1.24023,1.32422 0.42279,0.48209 0.81896,0.9889 1.27539,1.43945 0.48358,0.3046 0.60841,0.86963 0.98633,1.29102 0.10333,0.11108 0.20725,0.2229 0.31055,0.33398 0.0644,-0.002 0.14135,-0.046 0.19335,-0.008 0.285,0.2094 0.25427,0.86137 0.68165,0.96875 0.40366,0.41329 0.56338,1.14242 1.20507,1.25781 0.16899,0.56608 0.48706,1.04489 0.99414,1.3711 0.19286,0.63185 0.56161,1.13479 1.07032,1.55859 0.17577,0.63417 0.41891,1.2043 0.84961,1.71094 0.001,0.0313 0.007,0.74779 0.004,1.02344 0.006,0.5637 0.001,1.12768 0.002,1.6914 -0.007,0.49493 0.003,0.98943 -0.002,1.48438 0.003,0.47672 -0.004,0.95295 0,1.42968 -5.1e-4,0.0312 2.9e-4,0.0625 0,0.0937 -1.62221,0.90601 -3.24696,1.80719 -4.85937,2.73047 -0.15989,0.0916 -0.21034,0.21558 -0.29102,0.35157 -0.70383,0.4848 -1.35034,1.01485 -1.86133,1.625 -0.18096,0.46597 -0.51804,0.68126 -0.89062,1.00781 -0.10622,0.2909 -0.13885,0.58364 -0.14453,0.8789 -0.2355,0.13272 -0.61905,0.4249 -1,0.72657 -0.15443,-0.0412 -0.31134,-0.0896 -0.39844,-0.041 -0.007,0.004 -0.94336,0.56714 -1.22266,0.73438 -0.93012,0.39747 -1.80424,0.82731 -2.6582,1.29101 -0.43516,-0.002 -0.87163,0.004 -1.30664,0.002 -0.33581,0.0101 -0.67111,0.0144 -1.00586,0.0273 -0.004,0.003 -0.0131,0.007 -0.0176,0.01 -0.0927,0.006 -0.18599,0.008 -0.27734,0.0195 0.007,-0.003 0.0224,-0.0104 0.0293,-0.0137 -0.0755,0.005 -0.15105,0.004 -0.22656,0.0117 -0.3405,0.0106 -0.95183,0.17334 -1.10547,-0.0137 -0.29063,-0.49575 -0.82937,-0.9956 -1.41211,-1.02734 -0.66915,0.0305 -0.6976,-0.15433 -1.09765,-0.78125 -0.36623,-0.23127 -0.68221,-0.24956 -1.12695,-0.23633 -0.61234,-0.16189 -0.63038,-1.06999 -1.36915,-1.01367 -0.36983,0.0263 -0.92438,-0.087 -1.08203,-0.4375 -0.67471,-1.0283 -0.55382,-0.0804 -1.17382,-0.59571 -0.21958,-0.27267 -0.74402,-0.76365 -1.05469,-0.95312 -0.14313,-0.0873 -0.36398,0.22143 -0.5,0.0508 -0.57366,0.10543 -0.59373,-0.16916 -1.16602,-0.42969 -0.26036,-0.15649 -0.4823,-0.781 -0.8457,-0.6582 -0.0628,0.0212 -0.0767,0.13269 -0.14258,0.14062 -0.0475,0.006 -0.0584,-0.0755 -0.0879,-0.11328 -0.1784,-0.20746 -0.6241,-0.72491 -0.78125,-0.84375 -0.0116,-0.50552 -0.0118,-1.01003 -0.0137,-1.51562 -0.0208,-1.22445 -0.0128,-2.44922 -0.01,-3.67383 l -6.23633,3.17773 c 0.004,1.22778 0.011,2.45402 -0.01,3.68164 -0.002,0.55337 -0.001,1.10681 -0.0156,1.66016 0.22577,0.45053 0.6968,0.73089 1.02539,1.14063 0.43205,0.31695 0.77471,0.38784 1.1543,0.74414 0.53157,0.22916 0.84194,0.73003 1.42578,0.82422 0.60762,-0.0452 0.69544,-0.10598 1.24024,0.40039 0.27435,0.42661 0.78373,0.57416 1.12109,0.52343 0.23494,0.55611 0.85808,0.7369 1.38281,0.91797 0.63992,-0.001 0.76925,0.51714 1.25391,0.8418 0.37478,0.15727 0.76413,0.265 1.16992,0.28125 0.3268,0.47902 0.6178,0.7778 1.19727,0.92773 0.40206,0.0365 0.84395,0.10318 1.06445,0.48633 7e-4,0.001 0.001,0.003 0.002,0.004 -0.53327,0.31365 -1.07895,0.63403 -1.80273,1.03711 -0.33967,0.18916 -0.53116,0.29555 -0.70703,0.5664 -0.33052,0.19461 -0.66171,0.38746 -0.99219,0.58203 -0.30357,0.17873 -0.18628,0.28929 -0.13477,0.58594 0.26128,0.66156 0.81889,0.76078 1.45313,0.82227 0.63819,0.0242 1.27564,0.0177 1.91406,0.0176 0.49621,-0.007 0.99207,-0.002 1.48828,-0.008 0.51092,0.002 1.02229,-0.002 1.53321,0 0.49716,-0.003 0.99503,0.004 1.49218,0 0.5129,0.003 1.02618,-0.002 1.53907,0 0.73508,-0.40264 1.46969,-0.80493 2.20507,-1.20703 -0.68448,0.40393 -1.08137,0.64824 -0.4082,0.29688 1.21565,-0.6345 2.39867,-1.32942 3.57617,-2.03321 0.3832,-0.21032 0.76748,-0.41806 1.15039,-0.6289 0.0511,-0.0281 0.78161,-0.48949 1.10743,-0.71094 0.15879,-0.0933 0.31528,-0.19084 0.47461,-0.2832 -0.0173,-0.005 -0.0176,-0.0126 -0.0254,-0.0195 -0.35068,0.20684 -0.20365,0.11919 -0.51171,0.30078 -0.045,0.0248 -0.0125,0.002 -0.0781,0.0391 -0.49485,0.28122 -1.41567,0.81032 -2.22266,1.27148 1.70462,-1.02022 2.94171,-1.76065 3.72657,-2.23242 0.64377,-0.14611 1.08188,-0.42985 1.96484,-1.05468 -0.0436,-0.0188 -0.0982,-0.0451 -0.14258,-0.0645 0.006,-0.004 -0.001,-0.002 -0.002,-0.002 -0.006,-0.003 -0.0136,-0.005 -0.0195,-0.008 0.31194,-0.18192 -0.23269,0.13506 0.10937,-0.0645 -0.0862,0.0287 -0.10798,0.0238 -0.10156,0.004 0.543,-0.27018 1.08028,-0.55109 1.61133,-0.8418 0.50858,-0.32886 1.12815,-0.71471 1.88867,-1.17187 0.0188,-0.0428 0.0935,-0.12484 0.2832,-0.29102 0.0206,-0.0181 0.0437,-0.0329 0.0645,-0.0508 0.0164,-0.009 0.0324,-0.0198 0.0488,-0.0293 4.9e-4,-2.8e-4 0.001,2.9e-4 0.002,0 0.12302,-0.071 0.24611,-0.14189 0.36914,-0.21289 0.0109,-0.0103 0.0197,-0.021 0.0312,-0.0312 -0.22009,0.12843 -0.16394,0.0966 -0.41016,0.24024 0.0109,-0.009 0.0222,-0.0181 0.0332,-0.0273 -0.1008,0.0601 -0.24898,0.15238 -0.35938,0.21875 -0.49445,0.28831 -0.16691,0.099 -0.75781,0.44336 0.17912,-0.10336 0.35799,-0.20718 0.53711,-0.31054 -1.02285,0.61722 -2.11549,1.28057 -3.1543,1.9082 0.38374,-0.27601 1.21161,-0.76687 0.68555,-0.4668 -0.25147,0.14344 -0.66814,0.40681 -1.01758,0.6211 -0.0212,-0.009 -0.045,-0.0217 -0.0664,-0.0312 -0.3081,0.20059 -0.48648,0.32976 -0.35156,0.28711 -0.28383,0.17639 -0.50588,0.30807 -0.81055,0.5 -0.17479,0.0863 -0.17969,0.0612 0.19532,-0.21094 0.20926,-0.15187 0.43012,-0.28563 0.64453,-0.42969 0.0983,-0.0585 0.18228,-0.10829 0.27929,-0.16601 -0.006,-0.003 -0.0119,-0.005 -0.0176,-0.008 0.65446,-0.42764 1.32237,-0.83614 2.0039,-1.22265 0.0515,-0.073 0.10937,-0.13386 0.16406,-0.20313 1.05623,-0.65349 1.75405,-1.24366 1.26954,-1.3457 0.14095,-0.0916 0.2891,-0.18643 0.43945,-0.28906 0.4583,-0.25281 1.04019,-0.57855 1.3418,-0.74414 -0.11588,0.22295 -0.18548,0.48149 -0.20313,0.77929 -0.20268,0.13037 -0.34331,0.22353 -0.46875,0.31055 -0.4768,0.28565 -1.47866,0.87747 -1.63281,0.97461 0.44164,-0.24507 0.87862,-0.49616 1.31836,-0.74414 -0.006,0.009 -0.006,0.0148 0.002,0.0156 -0.31857,0.18514 -0.63952,0.37534 -1.07617,0.63086 0.37544,-0.21172 0.664,-0.37461 1.18164,-0.66992 0.0279,-0.0111 0.0579,-0.0238 0.0996,-0.043 0.0205,-0.016 0.0419,-0.031 0.0625,-0.0469 0.23012,-0.13139 0.27248,-0.15304 0.51367,-0.29102 -3.4e-4,0.0141 2.1e-4,0.0288 0,0.043 0.10431,-0.0534 0.20701,-0.10924 0.31055,-0.16406 -0.13208,0.0771 -0.16459,0.0964 -0.31055,0.18164 -5e-5,0.005 4e-5,0.0104 0,0.0156 0.22458,-0.1296 0.44925,-0.25907 0.67383,-0.38867 0.52056,-0.28561 1.03502,-0.58135 1.54297,-0.89062 0,0 0,-0.002 0,-0.002 0.41616,-0.2534 0.83505,-0.50238 1.24804,-0.76172 -0.0591,0.0361 -1.01769,0.5936 -1.24023,0.72461 0.002,-0.0102 0.005,-0.0206 0.006,-0.0293 0.56054,-0.32112 1.22718,-0.7051 1.45898,-0.83594 0.6753,-0.42431 1.34921,-0.85349 2.03516,-1.25781 -1.25543,0.73645 -0.18358,0.10675 -1.02344,0.59961 0.13432,-0.0881 0.2679,-0.17796 0.39844,-0.27149 0.32655,-0.19612 0.95728,-0.56421 1.13086,-0.67187 0.10292,-0.0638 0.11824,-0.21988 0.21484,-0.29297 0.28514,-0.2158 0.47663,-0.1963 0.70118,-0.55078 0.57954,-0.20817 0.87776,-0.57992 1.04882,-1.13477 0.0941,-0.50815 0.0931,-1.04666 0.084,-1.56641 -0.002,-0.57059 -0.01,-1.14226 -0.006,-1.71289 -0.0133,-0.48491 0.006,-0.96824 -0.002,-1.45312 0.004,-0.47649 -0.005,-0.95321 -0.002,-1.42969 -0.005,-0.49435 0.005,-0.99003 -0.002,-1.48437 0,-0.56454 -0.005,-1.12882 0.002,-1.69336 0.017,-0.55215 0.073,-0.99228 -0.23633,-1.45508 -0.39511,-0.41464 -0.57927,-0.88289 -0.70312,-1.42969 -0.33699,-0.54642 -0.96747,-0.8837 -1.07031,-1.55664 -0.35247,-0.46444 -0.87503,-0.79013 -0.99219,-1.37695 -0.58359,-0.43066 -0.93209,-0.99002 -1.37891,-1.53907 -0.4038,-0.49071 -0.7176,-0.92576 -1.21484,-1.33984 -0.33636,-0.49399 -0.57409,-0.95369 -1.03125,-1.35547 -0.43241,-0.40649 -0.80758,-0.87275 -1.1875,-1.32812 -0.49369,-0.37267 -0.84509,-0.87429 -1.24219,-1.34571 -0.34674,-0.36041 -0.87635,-0.18512 -1.07031,-0.67382 -0.58939,-0.32839 -0.86044,-0.56718 -1.30078,-1.04102 -0.19114,-0.19707 -0.40913,-0.35973 -0.63477,-0.51367 z m 7.48242,27.875 c -0.0748,0.047 -0.1498,0.0936 -0.22461,0.14062 0.0801,-0.049 0.38763,-0.23264 0.22461,-0.14062 z m -1.47265,0.9043 c -0.006,0.0391 -0.004,0.0317 -0.0176,0.0918 0.65564,-0.41746 1.19123,-0.74726 1.72852,-1.07812 -0.57016,0.32902 -1.14079,0.6573 -1.71094,0.98633 z m 1.71094,-0.98633 c 0.17254,-0.0996 0.34503,-0.19926 0.51757,-0.29883 0.0937,-0.0645 0.37967,-0.25242 0.28125,-0.19531 -0.19729,0.11432 -0.53714,0.33299 -0.79882,0.49414 z m -1.72852,1.07812 c -0.72943,0.46605 -1.46541,0.91228 -2.19922,1.36524 -0.002,-0.0605 -4.2e-4,-0.11884 0,-0.17774 -0.1589,0.0917 -0.31766,0.18369 -0.47656,0.27539 -0.0724,0.0691 -0.13497,0.1231 -0.19141,0.1836 0.0587,-0.009 0.11084,-0.008 0.13672,0.0371 0.12069,0.21152 0.11783,0.57252 0.14453,0.875 0.10373,-0.0278 0.13208,-0.0451 0.25782,-0.0762 0.003,-8.6e-4 0.0114,0.0239 0.0156,0.0274 0.0246,-0.071 0.0893,-0.20023 0.125,-0.28906 -0.0586,-0.21814 -0.11194,-0.43808 -0.084,-0.60547 4.8e-4,-0.003 0.0667,0.007 0.082,0.008 -0.005,-0.0838 -0.007,-0.16451 -0.01,-0.24609 0.64563,-0.39674 1.36969,-0.84877 2.19922,-1.37696 z m -2.1875,2.22071 c 0.02,0.0746 0.0398,0.14866 0.0586,0.2207 0.006,-0.0102 0.008,-0.0172 0.0137,-0.0273 -0.0108,-0.0999 -0.0172,-0.19729 -0.0274,-0.29687 -0.0119,0.0305 -0.0321,0.0717 -0.0449,0.10352 z m 0.0586,0.2207 c -0.04,0.0734 -0.0735,0.13931 -0.10937,0.21094 0.0374,0.10698 0.0671,0.22556 0.10156,0.36523 0.0391,-0.0363 0.0551,-0.0918 0.0625,-0.1543 -0.007,-0.0778 -0.0113,-0.15379 -0.0195,-0.23242 -0.0112,-0.0631 -0.017,-0.11988 -0.0352,-0.18945 z m -0.10937,0.21094 c -0.0295,-0.0844 -0.0546,-0.1265 -0.0742,-0.14258 -0.0818,0.23639 -0.11949,0.38897 -0.15625,0.47461 0.0197,0.0265 0.052,0.0335 0.0801,0.0469 0.0205,-0.10554 0.0806,-0.23943 0.15039,-0.3789 z m 0.0391,-1.48047 c 6e-5,-0.006 -8e-5,-0.0118 0,-0.0176 -0.17227,0.0882 -0.33905,0.18577 -0.51367,0.26953 -0.0315,0.0151 -0.0366,0.0135 -0.0625,0.0254 -0.0824,0.0645 -0.16581,0.12791 -0.24609,0.19531 0.1694,-0.10103 0.46962,-0.28607 0.60546,-0.36523 -0.094,0.0439 -0.16552,0.0967 -0.22851,0.15234 0.23871,-0.13928 0.23615,-0.13765 0.44531,-0.25976 z m -1.85742,0.99023 c -0.38315,0.21607 -1.07499,0.61262 -1.20703,0.68164 -0.005,0.008 -0.0123,0.0136 -0.0176,0.0215 -0.51224,0.30401 -1.24995,0.74621 -1.91602,1.14258 0.0138,0.006 0.0292,0.0134 0.043,0.0195 0.70805,-0.46098 1.8007,-1.10629 3.09766,-1.86524 z m -1.20703,0.68164 c 0.004,-0.006 0.009,-0.0113 0.0137,-0.0176 0.002,0.002 -0.0659,0.0449 -0.0137,0.0176 z M 209,221.30273 c -0.002,-0.003 0.85961,-0.50993 0.94922,-0.5664 -0.30546,0.1695 -0.60649,0.34536 -0.91016,0.51758 -0.0123,0.0175 -0.027,0.0311 -0.0391,0.0488 z m 1.80664,-0.77929 c -0.0268,0.061 0.14722,-0.0238 0.38867,-0.15625 0.0296,-0.0579 0.042,-0.0691 0.0742,-0.13477 -0.007,0.005 -0.0124,0.0153 -0.0195,0.0195 -0.17477,0.10358 -0.28177,0.17435 -0.44336,0.27149 z m -1.88867,1.17187 c -0.68671,0.44404 -1.08613,0.71547 -1.45508,0.97657 0.77839,0.33554 1.41394,0.56194 1.96289,0.71679 0.0582,-0.0623 0.11569,-0.12514 0.17383,-0.1875 0.0232,0.0597 0.0336,0.17123 0.0527,0.2461 0.0286,0.007 0.0599,0.0167 0.0879,0.0234 0.11459,-0.12599 0.13982,-0.3194 0.20508,-0.48437 -0.48766,-0.5727 -0.5643,-1.52762 0.33789,-1.77735 0.14504,0.004 0.31674,-0.036 0.48828,-0.0742 0.0962,-0.13964 0.25263,-0.43499 0.41797,-0.75782 -0.75048,0.45198 -1.5038,0.89812 -2.27148,1.31836 z m -4.33399,2.65235 c 0.37345,-0.22028 0.12091,-0.0701 0.54493,-0.32032 0.16683,-0.0985 -0.65867,0.21874 -0.54493,0.32032 z m -6.44336,-2.53907 c 0.0886,-0.006 0.17704,-0.0122 0.26563,-0.0156 0.37199,-0.22163 0.36059,-0.28434 -0.26563,0.0156 z m 15.90821,-8.17578 c 0,0 0,0.002 0,0.002 -0.0203,0.0118 -0.0612,0.0348 -0.082,0.0469 0.027,-0.0158 0.0553,-0.0332 0.082,-0.0488 z m 2.76367,1.99414 c -0.52483,0.30445 -1.28902,0.7512 -1.99023,1.16016 -0.0219,0.006 -0.0373,0.0111 -0.0586,0.0176 0.0922,-0.0531 2.75213,-1.58571 2.04883,-1.17774 z m -2.76953,0.16407 c -3.1e-4,0.0118 -0.002,0.0234 -0.002,0.0351 -0.546,0.32457 -0.80852,0.47892 -1.44727,0.85742 -0.0415,0.008 -0.082,0.0166 -0.12305,0.0234 0.48512,-0.28275 1.27025,-0.74088 1.57227,-0.91601 z m -3.99805,0.23046 c -2.4e-4,0.0112 -0.004,0.01 -0.004,0.0215 -8e-4,0.028 -0.001,0.056 -0.002,0.084 -0.4545,0.27674 -0.9115,0.54948 -1.36718,0.82422 -0.0185,-0.0515 0.59259,-0.44542 1.37304,-0.92969 z m 3.98633,0.01 c -0.003,0.0509 -0.002,0.10195 -0.008,0.15234 -0.31967,0.15184 -0.6802,0.30067 -1.06055,0.41016 0.4649,-0.25554 0.79002,-0.42403 1.06836,-0.5625 z m 1.93945,0.0273 c -0.35615,0.20828 -0.86354,0.50804 -1.34961,0.79297 -0.0182,0.007 -0.0476,0.0122 -0.0625,0.0195 0.48999,-0.28128 0.90735,-0.51933 1.41211,-0.8125 z m -0.64258,1.59961 c -0.36281,0.21302 -0.95796,0.56099 -1.0371,0.60742 6.8e-4,-0.004 0.003,-0.0141 0.004,-0.0176 0.25837,-0.15273 0.39397,-0.23532 0.65625,-0.39063 0.12575,-0.0661 0.25195,-0.13199 0.37695,-0.19922 z m -6.85546,0.7793 c 0.0532,-0.0131 -0.10752,0.10777 -0.42188,0.31641 -0.0256,0.0154 -0.0485,0.0275 -0.0742,0.043 -0.0248,-4.3e-4 -0.0404,3.9e-4 -0.0644,0 0.034,-0.0401 0.1051,-0.0877 0.17578,-0.13672 0.10358,-0.0603 0.29191,-0.16869 0.38477,-0.22266 z m 3.56054,1.12109 c -0.0605,0.0351 -0.27991,0.16535 -0.36523,0.21485 0.0119,-0.009 0.0232,-0.0186 0.0352,-0.0273 0.10974,-0.063 0.22086,-0.12372 0.33008,-0.1875 z m -1.57226,0.28711 c 0.0109,0.007 -0.13567,0.13652 -0.53125,0.41992 0.28989,-0.25896 0.51874,-0.42822 0.53125,-0.41992 z m -5.60352,0.69727 c -0.0351,0.0589 -0.0755,0.0841 -0.27344,0.18359 -0.0701,0.0331 -0.27783,0.13881 -0.21093,0.0996 0.28255,-0.16534 0.22378,-0.13076 0.48437,-0.2832 z m 7.17188,0.99023 c -0.0268,3.9e-4 -0.0584,0.005 -0.0899,0.01 0.0185,0.001 0.0315,0.0109 0.0527,0.008 0.0168,-0.002 0.0228,-0.0131 0.0371,-0.0176 z m 0.0918,0.008 c 0.0464,0.198 0.0928,0.41228 0.0723,0.42968 -0.51071,0.15172 -0.76953,0.20764 -0.95703,0.24414 0.001,0.0126 -0.005,0.0212 -0.006,0.0332 0.18174,-0.0216 0.37637,-0.04 0.58594,-0.0547 0.0554,-0.0228 0.10537,-0.0235 0.14257,-0.01 0.002,-1.7e-4 0.004,1.8e-4 0.006,0 6.9e-4,0.002 0.001,0.004 0.002,0.006 0.0151,0.008 0.0343,0.0106 0.0391,0.0293 0.009,0.0341 0.008,0.0691 0.0137,0.10352 0.0143,0.0378 0.0282,0.0756 0.043,0.11328 0.0657,-0.006 0.0769,-0.0116 0.13867,-0.0176 0.026,-0.2663 0.0139,-0.56445 -0.01,-0.87109 -0.0346,-0.004 -0.025,-5.6e-4 -0.0703,-0.006 z m -9.58984,0.0273 c -0.0911,0.0619 -0.19837,0.13258 -0.29492,0.19726 -0.0261,10e-5 -0.0521,-3e-5 -0.0781,0 0.16744,-0.0923 0.24822,-0.13172 0.37305,-0.19726 z m 7.625,0.83398 c -0.0587,-0.003 -0.0753,0.0943 -0.0293,0.35547 2.2e-4,0.001 -1.9e-4,0.003 0,0.004 0.0751,-0.072 0.14893,-0.12872 0.22266,-0.18164 -0.0111,-0.012 -0.0266,-0.0324 -0.0371,-0.043 -0.0641,-0.0273 -0.10321,-0.0674 -0.12109,-0.11719 -0.0117,-0.006 -0.0256,-0.017 -0.0352,-0.0176 z m -5.46484,0.36133 c -0.65134,0.34835 -1.29539,0.70352 -1.92579,1.07813 0.49552,-0.28671 1.11443,-0.65713 1.75586,-1.04102 0.057,-0.011 0.113,-0.0249 0.16993,-0.0371 z m 0.14648,0.10156 c -0.001,0.004 -0.005,0.01 -0.006,0.0137 -1.15413,0.66106 -2.22787,1.27782 -3.33008,1.91601 -0.0189,-3e-5 -0.0377,3e-5 -0.0566,0 3.15661,-1.79739 3.33457,-1.89696 3.39258,-1.92969 z m 0.0449,0.13086 c 0.002,4.6e-4 0.004,-4.2e-4 0.006,0 -0.16401,0.0961 -1.79784,1.03879 -2.41992,1.39844 -0.23147,0.13205 -0.52977,0.30053 -0.70508,0.40039 -0.009,0 -0.0182,1e-5 -0.0273,0 1.5886,-0.91305 2.5839,-1.47999 3.14648,-1.79883 z m -1.60937,0.19336 c -0.27844,0.2508 -0.57174,0.49479 -0.83399,0.74805 -0.10186,0.0932 -0.42713,0.34669 -0.30664,0.2793 0.0658,-0.0368 0.21713,-0.13173 0.29102,-0.17383 -0.37917,0.23443 -0.74735,0.48796 -1.10938,0.75391 -0.21878,-2.7e-4 -0.43745,-0.001 -0.65625,0 -0.25008,-0.003 -0.49989,-0.003 -0.75,-0.002 0.4957,-0.28616 0.95693,-0.59754 1.41992,-0.91797 0.71,-0.0931 1.30492,-0.31251 1.94532,-0.6875 z m 2.20898,0.53907 c -0.30283,0.17515 -1.22184,0.71652 -5.38867,3.18554 3.90549,-2.31115 4.45895,-2.64978 5.32227,-3.17187 0.0176,-0.004 0.0494,-0.01 0.0664,-0.0137 z m -0.17969,0.0332 c -1.57368,0.90966 0.91772,-0.5445 -0.0176,0.004 0.005,-9.8e-4 0.0126,-0.003 0.0176,-0.004 z m -0.16211,0.0293 c -1.97298,1.24777 -3.8113,2.41458 -2.72265,1.51953 0.15956,-0.13118 1.20149,-0.76502 2.33594,-1.44922 0.15077,-0.0239 0.26716,-0.0486 0.38671,-0.0703 z m -5.16406,2.01757 c -0.002,0.003 -0.006,0.009 -0.008,0.0117 -0.20506,0.11516 -0.35952,0.20078 0.008,-0.0117 z m 0.51758,0.93946 c -0.41273,0.23835 -0.92284,0.53458 -0.39648,0.21679 0.13217,-0.0723 0.26433,-0.14444 0.39648,-0.21679 z m -12.31641,0.24023 c -0.0224,0.0378 -0.0459,0.0666 -0.0684,0.11133 0.23571,0.004 -0.42283,0.1713 -0.32422,0.11328 0.0866,-0.051 0.29108,-0.16558 0.39257,-0.22461 z" />
  </g>
</svg>
